<svg width="535" height="369" viewBox="0 0 535 369" fill="none" xmlns="http://www.w3.org/2000/svg">
<path d="M1 328V41C1 18.9086 18.9087 1 41.0001 1H266.196C279.071 1 291.159 7.19726 298.674 17.6511L326.822 56.8042C334.337 67.258 346.425 73.4552 359.3 73.4552H397.346C410.221 73.4552 422.309 67.258 429.824 56.8042L457.972 17.6511C465.487 7.19726 477.575 1 490.45 1H494C516.091 1 534 18.9086 534 41V328C534 350.091 516.091 368 494 368H41C18.9086 368 1 350.091 1 328Z" stroke="#03A081" stroke-width="2"/>
</svg>
