<svg width="147" height="147" viewBox="0 0 147 147" fill="none" xmlns="http://www.w3.org/2000/svg">
<path d="M69.5041 5.31263C71.5043 2.65328 75.4957 2.65328 77.4959 5.31263L78.3538 6.45323C80.0487 8.70661 83.2705 9.11364 85.4726 7.35254L86.5872 6.46113C89.1859 4.38276 93.0518 5.37536 94.3279 8.44859L94.8751 9.76671C95.9564 12.3708 98.9758 13.5663 101.547 12.4081L102.848 11.8219C105.882 10.4551 109.379 12.378 109.851 15.672L110.053 17.0848C110.453 19.876 113.08 21.7848 115.858 21.3024L117.265 21.0582C120.543 20.4888 123.453 23.2211 123.09 26.5289L122.935 27.9476C122.628 30.7505 124.698 33.2528 127.509 33.4764L128.931 33.5895C132.249 33.8534 134.387 37.2234 133.214 40.3372L132.71 41.6727C131.716 44.3112 133.099 47.2496 135.765 48.1652L137.115 48.6286C140.263 49.7092 141.496 53.5051 139.585 56.2292L138.765 57.3976C137.146 59.7059 137.754 62.8959 140.11 64.4459L141.302 65.2305C144.082 67.0598 144.332 71.0432 141.804 73.2065L140.719 74.1343C138.577 75.9673 138.373 79.2084 140.269 81.2955L141.228 82.3519C143.466 84.815 142.718 88.7357 139.731 90.2021L138.45 90.8311C135.919 92.0737 134.915 95.1623 136.232 97.6553L136.899 98.9172C138.454 101.859 136.754 105.471 133.496 106.148L132.099 106.439C129.339 107.013 127.598 109.755 128.254 112.497L128.586 113.885C129.36 117.122 126.816 120.197 123.492 120.043L122.067 119.977C119.25 119.847 116.883 122.07 116.836 124.889L116.812 126.316C116.757 129.643 113.528 131.989 110.347 131.013L108.982 130.595C106.287 129.768 103.441 131.333 102.694 134.052L102.317 135.428C101.436 138.637 97.7249 140.106 94.8862 138.37L93.6686 137.625C91.2632 136.154 88.1178 136.962 86.7187 139.41L86.0105 140.649C84.3594 143.538 80.3995 144.038 78.0818 141.651L77.0877 140.626C75.1237 138.603 71.8763 138.603 69.9123 140.626L68.9182 141.651C66.6005 144.038 62.6406 143.538 60.9895 140.649L60.2813 139.41C58.8822 136.962 55.7368 136.154 53.3314 137.625L52.1138 138.37C49.2751 140.106 45.5641 138.637 44.6833 135.428L44.3055 134.052C43.5592 131.333 40.7134 129.768 38.0177 130.595L36.6532 131.013C33.4719 131.989 30.2428 129.643 30.1877 126.316L30.1641 124.889C30.1174 122.07 27.7501 119.847 24.9335 119.977L23.5078 120.043C20.1837 120.197 17.6396 117.122 18.4137 113.885L18.7457 112.497C19.4016 109.755 17.6615 107.013 14.9009 106.439L13.5036 106.148C10.2457 105.471 8.54626 101.859 10.1009 98.9172L10.7676 97.6553C12.0849 95.1623 11.0814 92.0737 8.55032 90.8311L7.26917 90.2021C4.28212 88.7357 3.53422 84.815 5.77166 82.3519L6.7313 81.2955C8.62719 79.2084 8.42328 75.9673 6.28076 74.1343L5.19628 73.2065C2.66777 71.0432 2.91839 67.0598 5.69808 65.2305L6.8903 64.4459C9.24566 62.8959 9.85418 59.7059 8.23483 57.3976L7.41516 56.2293C5.50407 53.5051 6.73745 49.7092 9.88475 48.6286L11.2346 48.1652C13.9015 47.2496 15.2842 44.3112 14.2898 41.6727L13.7864 40.3372C12.6128 37.2234 14.7515 33.8534 18.0686 33.5895L19.4913 33.4764C22.3021 33.2528 24.3721 30.7505 24.0651 27.9477L23.9097 26.5289C23.5473 23.2211 26.4569 20.4888 29.7354 21.0582L31.1416 21.3024C33.9196 21.7848 36.5469 19.876 36.9466 17.0848L37.1489 15.672C37.6205 12.378 41.1181 10.4551 44.1521 11.8219L45.4534 12.4081C48.0242 13.5663 51.0436 12.3708 52.1249 9.76672L52.6721 8.4486C53.9482 5.37536 57.8141 4.38276 60.4128 6.46112L61.5274 7.35254C63.7295 9.11363 66.9513 8.70662 68.6462 6.45323L69.5041 5.31263Z" fill="#03A081"/>
<path d="M79.6875 67.5C81.4824 67.5 82.9375 66.0449 82.9375 64.25C82.9375 62.4551 81.4824 61 79.6875 61C77.8926 61 76.4375 62.4551 76.4375 64.25C76.4375 66.0449 77.8926 67.5 79.6875 67.5Z" stroke="white" stroke-width="2" stroke-miterlimit="10"/>
<path d="M68.3125 67.5C70.1074 67.5 71.5625 66.0449 71.5625 64.25C71.5625 62.4551 70.1074 61 68.3125 61C66.5176 61 65.0625 62.4551 65.0625 64.25C65.0625 66.0449 66.5176 67.5 68.3125 67.5Z" stroke="white" stroke-width="2" stroke-miterlimit="10"/>
<path d="M85.375 77.25C87.1699 77.25 88.625 75.7949 88.625 74C88.625 72.2051 87.1699 70.75 85.375 70.75C83.5801 70.75 82.125 72.2051 82.125 74C82.125 75.7949 83.5801 77.25 85.375 77.25Z" stroke="white" stroke-width="2" stroke-miterlimit="10"/>
<path d="M90.7402 66.6875C92.0864 66.6875 93.1777 65.5962 93.1777 64.25C93.1777 62.9038 92.0864 61.8125 90.7402 61.8125C89.394 61.8125 88.3027 62.9038 88.3027 64.25C88.3027 65.5962 89.394 66.6875 90.7402 66.6875Z" stroke="white" stroke-width="2" stroke-miterlimit="10"/>
<path d="M90.7402 86.1875C92.0864 86.1875 93.1777 85.0962 93.1777 83.75C93.1777 82.4038 92.0864 81.3125 90.7402 81.3125C89.394 81.3125 88.3027 82.4038 88.3027 83.75C88.3027 85.0962 89.394 86.1875 90.7402 86.1875Z" stroke="white" stroke-width="2" stroke-miterlimit="10"/>
<path d="M99.1875 76.4375C100.534 76.4375 101.625 75.3462 101.625 74C101.625 72.6538 100.534 71.5625 99.1875 71.5625C97.8413 71.5625 96.75 72.6538 96.75 74C96.75 75.3462 97.8413 76.4375 99.1875 76.4375Z" stroke="white" stroke-width="2" stroke-miterlimit="10"/>
<path d="M57.1035 66.6875C58.4497 66.6875 59.541 65.5962 59.541 64.25C59.541 62.9038 58.4497 61.8125 57.1035 61.8125C55.7573 61.8125 54.666 62.9038 54.666 64.25C54.666 65.5962 55.7573 66.6875 57.1035 66.6875Z" stroke="white" stroke-width="2" stroke-miterlimit="10"/>
<path d="M57.1035 86.1875C58.4497 86.1875 59.541 85.0962 59.541 83.75C59.541 82.4038 58.4497 81.3125 57.1035 81.3125C55.7573 81.3125 54.666 82.4038 54.666 83.75C54.666 85.0962 55.7573 86.1875 57.1035 86.1875Z" stroke="white" stroke-width="2" stroke-miterlimit="10"/>
<path d="M48.6484 76.4375C49.9946 76.4375 51.0859 75.3462 51.0859 74C51.0859 72.6538 49.9946 71.5625 48.6484 71.5625C47.3022 71.5625 46.2109 72.6538 46.2109 74C46.2109 75.3462 47.3022 76.4375 48.6484 76.4375Z" stroke="white" stroke-width="2" stroke-miterlimit="10"/>
<path d="M86.6777 54.3375C88.0239 54.3375 89.1152 53.2462 89.1152 51.9C89.1152 50.5538 88.0239 49.4625 86.6777 49.4625C85.3315 49.4625 84.2402 50.5538 84.2402 51.9C84.2402 53.2462 85.3315 54.3375 86.6777 54.3375Z" stroke="white" stroke-width="2" stroke-miterlimit="10"/>
<path d="M61.3223 54.3375C62.6685 54.3375 63.7598 53.2462 63.7598 51.9C63.7598 50.5538 62.6685 49.4625 61.3223 49.4625C59.9761 49.4625 58.8848 50.5538 58.8848 51.9C58.8848 53.2462 59.9761 54.3375 61.3223 54.3375Z" stroke="white" stroke-width="2" stroke-miterlimit="10"/>
<path d="M74.166 56.9375C75.5122 56.9375 76.6035 55.8462 76.6035 54.5C76.6035 53.1538 75.5122 52.0625 74.166 52.0625C72.8198 52.0625 71.7285 53.1538 71.7285 54.5C71.7285 55.8462 72.8198 56.9375 74.166 56.9375Z" stroke="white" stroke-width="2" stroke-miterlimit="10"/>
<path d="M86.6777 99.1875C88.0239 99.1875 89.1152 98.0962 89.1152 96.75C89.1152 95.4038 88.0239 94.3125 86.6777 94.3125C85.3315 94.3125 84.2402 95.4038 84.2402 96.75C84.2402 98.0962 85.3315 99.1875 86.6777 99.1875Z" stroke="white" stroke-width="2" stroke-miterlimit="10"/>
<path d="M61.3223 99.1875C62.6685 99.1875 63.7598 98.0962 63.7598 96.75C63.7598 95.4038 62.6685 94.3125 61.3223 94.3125C59.9761 94.3125 58.8848 95.4038 58.8848 96.75C58.8848 98.0962 59.9761 99.1875 61.3223 99.1875Z" stroke="white" stroke-width="2" stroke-miterlimit="10"/>
<path d="M74.166 96.5875C75.5122 96.5875 76.6035 95.4962 76.6035 94.15C76.6035 92.8038 75.5122 91.7125 74.166 91.7125C72.8198 91.7125 71.7285 92.8038 71.7285 94.15C71.7285 95.4962 72.8198 96.5875 74.166 96.5875Z" stroke="white" stroke-width="2" stroke-miterlimit="10"/>
<path d="M62.625 77.25C64.4199 77.25 65.875 75.7949 65.875 74C65.875 72.2051 64.4199 70.75 62.625 70.75C60.8301 70.75 59.375 72.2051 59.375 74C59.375 75.7949 60.8301 77.25 62.625 77.25Z" stroke="white" stroke-width="2" stroke-miterlimit="10"/>
<path d="M68.3125 87C70.1074 87 71.5625 85.5449 71.5625 83.75C71.5625 81.9551 70.1074 80.5 68.3125 80.5C66.5176 80.5 65.0625 81.9551 65.0625 83.75C65.0625 85.5449 66.5176 87 68.3125 87Z" stroke="white" stroke-width="2" stroke-miterlimit="10"/>
<path d="M79.6875 87C81.4824 87 82.9375 85.5449 82.9375 83.75C82.9375 81.9551 81.4824 80.5 79.6875 80.5C77.8926 80.5 76.4375 81.9551 76.4375 83.75C76.4375 85.5449 77.8926 87 79.6875 87Z" stroke="white" stroke-width="2" stroke-miterlimit="10"/>
<path d="M74 42.9625V42.9625" stroke="white" stroke-width="3" stroke-linecap="round" stroke-linejoin="round"/>
<path d="M91.875 44.2625V44.2625" stroke="white" stroke-width="3" stroke-linecap="round" stroke-linejoin="round"/>
<path d="M91.875 103.9V103.9" stroke="white" stroke-width="3" stroke-linecap="round" stroke-linejoin="round"/>
<path d="M100 88.625V88.625" stroke="white" stroke-width="3" stroke-linecap="round" stroke-linejoin="round"/>
<path d="M100 57.75V57.75" stroke="white" stroke-width="3" stroke-linecap="round" stroke-linejoin="round"/>
<path d="M48 88.625V88.625" stroke="white" stroke-width="3" stroke-linecap="round" stroke-linejoin="round"/>
<path d="M48 57.75V57.75" stroke="white" stroke-width="3" stroke-linecap="round" stroke-linejoin="round"/>
<path d="M56.125 44.2625V44.2625" stroke="white" stroke-width="3" stroke-linecap="round" stroke-linejoin="round"/>
<path d="M56.125 103.9V103.9" stroke="white" stroke-width="3" stroke-linecap="round" stroke-linejoin="round"/>
<path d="M74 104.875V104.875" stroke="white" stroke-width="3" stroke-linecap="round" stroke-linejoin="round"/>
<path d="M40.041 74V74" stroke="white" stroke-width="3" stroke-linecap="round" stroke-linejoin="round"/>
<path d="M108.125 74V74" stroke="white" stroke-width="3" stroke-linecap="round" stroke-linejoin="round"/>
</svg>
