<svg width="375" height="416" viewBox="0 0 375 416" fill="none" xmlns="http://www.w3.org/2000/svg">
<path fill-rule="evenodd" clip-rule="evenodd" d="M66.2673 7.67281C62.4766 2.8297 56.6683 0 50.518 0H20C8.95431 0 0 8.95431 0 20V396C0 407.046 8.95431 416 20 416H355C366.046 416 375 407.046 375 396V20C375 8.95431 366.046 0 355 0H324.624C318.434 0 312.593 2.86587 308.805 7.76132L288.32 34.2387C284.532 39.1341 278.691 42 272.501 42H102.879C96.7292 42 90.9209 39.1703 87.1301 34.3272L66.2673 7.67281Z" fill="white"/>
</svg>
