<svg width="356" height="359" viewBox="0 0 356 359" fill="none" xmlns="http://www.w3.org/2000/svg">
<path d="M13 13H330C343.807 13 355 24.1929 355 38V156C355 169.807 343.807 181 330 181H38C24.1929 181 13 192.193 13 206V324C13 337.807 24.1929 349 38 349H355" stroke="url(#paint0_linear_578_16560)" stroke-width="0.641953"/>
<path d="M97.0038 0H12.8391C5.74824 0 0 5.74824 0 12.8391V97.0038C0 108.442 13.8295 114.171 21.9176 106.082L106.082 21.9176C114.171 13.8295 108.442 0 97.0038 0Z" fill="url(#paint1_linear_578_16560)"/>
<path d="M257.996 231L342.161 231C349.252 231 355 236.748 355 243.839L355 328.004C355 339.442 341.171 345.171 333.082 337.082L248.918 252.918C240.829 244.829 246.558 231 257.996 231Z" fill="url(#paint2_linear_578_16560)"/>
<defs>
<linearGradient id="paint0_linear_578_16560" x1="13" y1="13" x2="379.422" y2="427.406" gradientUnits="userSpaceOnUse">
<stop stop-color="#777777" stop-opacity="0"/>
<stop offset="0.587322" stop-color="#777777"/>
<stop offset="1" stop-color="#777777" stop-opacity="0"/>
</linearGradient>
<linearGradient id="paint1_linear_578_16560" x1="64" y1="0" x2="64" y2="94.08" gradientUnits="userSpaceOnUse">
<stop stop-color="#03A081"/>
<stop offset="1" stop-color="#03A081" stop-opacity="0"/>
</linearGradient>
<linearGradient id="paint2_linear_578_16560" x1="291" y1="231" x2="291" y2="341.08" gradientUnits="userSpaceOnUse">
<stop offset="0.167176" stop-color="#03A081" stop-opacity="0"/>
<stop offset="1" stop-color="#03A081"/>
</linearGradient>
</defs>
</svg>
