<svg width="32" height="32" viewBox="0 0 32 32" fill="none" xmlns="http://www.w3.org/2000/svg">
<path d="M9.97266 24.4667L14.106 27.6667C14.6393 28.2 15.8393 28.4667 16.6393 28.4667H21.706C23.306 28.4667 25.0393 27.2667 25.4393 25.6667L28.6393 15.9333C29.306 14.0667 28.106 12.4667 26.106 12.4667H20.7727C19.9727 12.4667 19.306 11.8 19.4393 10.8667L20.106 6.6C20.3727 5.4 19.5727 4.06666 18.3727 3.66666C17.306 3.26666 15.9727 3.8 15.4393 4.6L9.97266 12.7333" stroke="#292D32" stroke-width="2" stroke-miterlimit="10"/>
<path d="M3.17383 24.4666V11.4C3.17383 9.5333 3.97383 8.86664 5.84049 8.86664H7.17383C9.04049 8.86664 9.84049 9.5333 9.84049 11.4V24.4666C9.84049 26.3333 9.04049 27 7.17383 27H5.84049C3.97383 27 3.17383 26.3333 3.17383 24.4666Z" stroke="#292D32" stroke-width="2" stroke-linecap="round" stroke-linejoin="round"/>
</svg>
