<svg width="32" height="32" viewBox="0 0 32 32" fill="none" xmlns="http://www.w3.org/2000/svg">
<path d="M29.3333 11.3334C29.3333 16.12 25.4533 20 20.6667 20C20.44 20 20.2 19.9867 19.9733 19.9734C19.64 15.7467 16.2533 12.36 12.0267 12.0267C12.0133 11.8 12 11.56 12 11.3334C12 6.54669 15.88 2.66669 20.6667 2.66669C25.4533 2.66669 29.3333 6.54669 29.3333 11.3334Z" stroke="#050505" stroke-width="1.5" stroke-linecap="round" stroke-linejoin="round"/>
<path d="M20.0013 20.6667C20.0013 25.4533 16.1213 29.3333 11.3346 29.3333C6.54797 29.3333 2.66797 25.4533 2.66797 20.6667C2.66797 15.88 6.54797 12 11.3346 12C11.5613 12 11.8013 12.0133 12.028 12.0267C16.2546 12.36 19.6413 15.7467 19.9747 19.9733C19.988 20.2 20.0013 20.44 20.0013 20.6667Z" stroke="#050505" stroke-width="1.5" stroke-linecap="round" stroke-linejoin="round"/>
<path d="M7.45463 2.66669H4.0013C3.26797 2.66669 2.66797 3.26669 2.66797 4.00002V7.45335C2.66797 8.64002 4.10796 9.24 4.94796 8.4L8.40129 4.94668C9.22795 4.10668 8.6413 2.66669 7.45463 2.66669Z" stroke="#050505" stroke-width="1.5" stroke-linecap="round" stroke-linejoin="round"/>
<path d="M24.5476 29.3333H28.0009C28.7343 29.3333 29.3343 28.7333 29.3343 28V24.5467C29.3343 23.36 27.8943 22.76 27.0543 23.6L23.6009 27.0534C22.7743 27.8934 23.3609 29.3333 24.5476 29.3333Z" stroke="#050505" stroke-width="1.5" stroke-linecap="round" stroke-linejoin="round"/>
</svg>
