<svg width="60" height="60" viewBox="0 0 60 60" fill="none" xmlns="http://www.w3.org/2000/svg">
<circle cx="30" cy="30" r="30" fill="#EAEAEA"/>
<path opacity="0.4" d="M40.6654 26V29.8933L39.6254 29.2933C38.772 28.8 37.7054 28.9466 37.012 29.6133C36.8654 29.7466 36.7454 29.9066 36.6387 30.08L36.5587 30.2266C36.412 30.48 36.292 30.5466 36.2787 30.56C36.252 30.5466 36.1187 30.48 35.972 30.2133L35.892 30.08C35.5987 29.5733 35.132 29.2266 34.572 29.08C33.9987 28.92 33.412 29 32.9187 29.2933L31.7054 30C31.1587 30.3066 30.772 30.8133 30.612 31.4133C30.452 32.0266 30.532 32.6533 30.8387 33.2C30.9854 33.44 30.9854 33.5866 30.9854 33.6133C30.972 33.6266 30.8387 33.7066 30.5454 33.7066C29.252 33.7066 28.1987 34.76 28.1987 36.04V37.2933C28.1987 38.5733 29.252 39.6266 30.5454 39.6266C30.8387 39.6266 30.972 39.7066 30.972 39.72C30.9854 39.7333 30.9854 39.8933 30.8387 40.1333C30.7454 40.3066 30.6654 40.48 30.6254 40.6666H25.9987C22.3187 40.6666 19.332 37.68 19.332 34V26C19.332 22.32 22.3187 19.3333 25.9987 19.3333H33.9987C37.6787 19.3333 40.6654 22.32 40.6654 26Z" fill="#777777"/>
<path d="M37.011 26.9866V29.6133C36.8644 29.7466 36.7444 29.9066 36.6377 30.08L36.5577 30.2266C36.411 30.48 36.291 30.5466 36.2777 30.56C36.251 30.5466 36.1177 30.48 35.971 30.2133L35.891 30.08C35.5977 29.5733 35.131 29.2266 34.571 29.08C33.9977 28.92 33.411 29 32.9177 29.2933L31.7044 30C31.1577 30.3066 30.771 30.8133 30.611 31.4133C30.451 32.0266 30.531 32.6533 30.8377 33.2C30.9844 33.44 30.9844 33.5866 30.9844 33.6133C30.971 33.6266 30.8377 33.7066 30.5444 33.7066C29.251 33.7066 28.1977 34.76 28.1977 36.04V37.0133H26.9844C24.7844 37.0133 22.9844 35.2133 22.9844 33.0133V26.9866C22.9844 24.7866 24.7844 22.9866 26.9844 22.9866H33.011C35.211 22.9866 37.011 24.7866 37.011 26.9866Z" fill="#777777"/>
<path d="M26.0781 17.6667V19.3334H25.9981C25.3315 19.3334 24.6915 19.4267 24.0781 19.6134V17.6667C24.0781 17.12 24.5181 16.6667 25.0781 16.6667C25.6248 16.6667 26.0781 17.12 26.0781 17.6667Z" fill="#777777"/>
<path d="M31 17.6667V19.3334H29V17.6667C29 17.12 29.4533 16.6667 30 16.6667C30.5467 16.6667 31 17.12 31 17.6667Z" fill="#777777"/>
<path d="M35.9336 17.6667V19.6134C35.3203 19.4267 34.6669 19.3334 34.0003 19.3334H33.9336V17.6667C33.9336 17.12 34.3869 16.6667 34.9336 16.6667C35.4803 16.6667 35.9336 17.12 35.9336 17.6667Z" fill="#777777"/>
<path d="M43.3334 25.0667C43.3334 25.6267 42.8934 26.0667 42.3334 26.0667H40.6667V26C40.6667 25.3333 40.5734 24.68 40.3867 24.0667H42.3334C42.8934 24.0667 43.3334 24.52 43.3334 25.0667Z" fill="#777777"/>
<path d="M26.0781 40.6667V42.3333C26.0781 42.88 25.6248 43.3333 25.0781 43.3333C24.5181 43.3333 24.0781 42.88 24.0781 42.3333V40.3867C24.6915 40.5733 25.3315 40.6667 25.9981 40.6667H26.0781Z" fill="#777777"/>
<path d="M19.6146 24.0667C19.428 24.68 19.3346 25.3333 19.3346 26V26.0667H17.668C17.1213 26.0667 16.668 25.6267 16.668 25.0667C16.668 24.52 17.1213 24.0667 17.668 24.0667H19.6146Z" fill="#777777"/>
<path d="M19.3346 29V31H17.668C17.1213 31 16.668 30.5467 16.668 30C16.668 29.44 17.1213 29 17.668 29H19.3346Z" fill="#777777"/>
<path d="M19.6146 35.9334H17.668C17.1213 35.9334 16.668 35.48 16.668 34.9333C16.668 34.3733 17.1213 33.9333 17.668 33.9333H19.3346V34C19.3346 34.6667 19.428 35.32 19.6146 35.9334Z" fill="#777777"/>
<path opacity="0.4" d="M41.9859 34.7067C41.0792 34.7067 40.5592 34.2534 40.5592 33.5867C40.5592 33.32 40.6392 33.0134 40.8259 32.6934C41.1992 32.0534 40.9726 31.2267 40.3326 30.8667L39.1192 30.16C38.5592 29.8267 37.8392 30.0267 37.5059 30.5867L37.4259 30.72C36.7859 31.8267 35.7459 31.8267 35.1059 30.72L35.0259 30.5867C34.7059 30.0267 33.9726 29.8267 33.4259 30.16L32.1992 30.8667C31.7726 31.1067 31.5192 31.56 31.5192 32.0267C31.5192 32.2534 31.5859 32.48 31.7059 32.6934C31.8926 33.0134 31.9859 33.32 31.9859 33.5867C31.9859 34.2534 31.4526 34.7067 30.5459 34.7067C29.8126 34.7067 29.1992 35.3067 29.1992 36.04V37.2934C29.1992 38.0267 29.8126 38.6267 30.5459 38.6267C31.4526 38.6267 31.9859 39.08 31.9859 39.7467C31.9859 40.0134 31.8926 40.32 31.7059 40.64C31.3326 41.28 31.5592 42.1067 32.1992 42.4667L33.4259 43.1734C33.9726 43.5067 34.7059 43.3067 35.0259 42.7467L35.1059 42.6134C35.7459 41.5067 36.7859 41.5067 37.4259 42.6134L37.5059 42.7467C37.8392 43.3067 38.5592 43.5067 39.1192 43.1734L40.3326 42.4667C40.7592 42.2267 41.0126 41.7734 41.0126 41.3067C41.0126 41.08 40.9459 40.8534 40.8259 40.64C40.6392 40.32 40.5592 40.0134 40.5592 39.7467C40.5592 39.08 41.0792 38.6267 41.9859 38.6267C42.7326 38.6267 43.3326 38.0267 43.3326 37.2934V36.04C43.3326 35.3067 42.7326 34.7067 41.9859 34.7067ZM36.2659 38.96C34.9992 38.96 33.9726 37.9334 33.9726 36.6667C33.9726 35.4 34.9992 34.3734 36.2659 34.3734C37.5326 34.3734 38.5592 35.4 38.5592 36.6667C38.5592 37.9334 37.5326 38.96 36.2659 38.96Z" fill="#777777"/>
<path d="M38.5593 36.6667C38.5593 37.9334 37.5327 38.96 36.266 38.96C34.9993 38.96 33.9727 37.9334 33.9727 36.6667C33.9727 35.4 34.9993 34.3734 36.266 34.3734C37.5327 34.3734 38.5593 35.4 38.5593 36.6667Z" fill="#777777"/>
</svg>
