<svg width="32" height="32" viewBox="0 0 32 32" fill="none" xmlns="http://www.w3.org/2000/svg">
<path d="M4 29.3333H28" stroke="white" stroke-width="1.5" stroke-linecap="round" stroke-linejoin="round"/>
<path d="M7.46663 11.1733H5.33333C4.6 11.1733 4 11.7733 4 12.5067V24C4 24.7333 4.6 25.3333 5.33333 25.3333H7.46663C8.19997 25.3333 8.79997 24.7333 8.79997 24V12.5067C8.79997 11.7733 8.19997 11.1733 7.46663 11.1733Z" stroke="white" stroke-width="1.5" stroke-linecap="round" stroke-linejoin="round"/>
<path d="M17.0662 6.92001H14.9329C14.1996 6.92001 13.5996 7.52001 13.5996 8.25334V24C13.5996 24.7333 14.1996 25.3333 14.9329 25.3333H17.0662C17.7996 25.3333 18.3996 24.7333 18.3996 24V8.25334C18.3996 7.52001 17.7996 6.92001 17.0662 6.92001Z" stroke="white" stroke-width="1.5" stroke-linecap="round" stroke-linejoin="round"/>
<path d="M26.6659 2.66667H24.5326C23.7992 2.66667 23.1992 3.26667 23.1992 4V24C23.1992 24.7333 23.7992 25.3333 24.5326 25.3333H26.6659C27.3992 25.3333 27.9992 24.7333 27.9992 24V4C27.9992 3.26667 27.3992 2.66667 26.6659 2.66667Z" stroke="white" stroke-width="1.5" stroke-linecap="round" stroke-linejoin="round"/>
</svg>
