<svg width="62" height="113" viewBox="0 0 62 113" fill="none" xmlns="http://www.w3.org/2000/svg">
<path d="M29.1108 53.5117C30.0565 52.2544 31.9435 52.2544 32.8892 53.5117C33.6905 54.5771 35.2138 54.7696 36.2549 53.9369C37.4835 52.9543 39.3113 53.4236 39.9146 54.8766C40.4258 56.1078 41.8533 56.673 43.0688 56.1254C44.5032 55.4792 46.1568 56.3883 46.3798 57.9457C46.5688 59.2653 47.8109 60.1678 49.1244 59.9397C50.6744 59.6705 52.05 60.9623 51.8787 62.5262C51.7336 63.8514 52.7122 65.0344 54.0411 65.1401C55.6094 65.2649 56.6206 66.8582 56.0657 68.3303C55.5956 69.5778 56.2493 70.967 57.5101 71.3999C58.9981 71.9108 59.5813 73.7055 58.6777 74.9934C57.9121 76.0847 58.1998 77.5929 59.3134 78.3257C60.6276 79.1906 60.7461 81.0739 59.5507 82.0967C58.5377 82.9633 58.4413 84.4957 59.3376 85.4824C60.3955 86.647 60.0419 88.5006 58.6296 89.1939C57.433 89.7814 56.9585 91.2416 57.5813 92.4203C58.3163 93.8113 57.5129 95.5188 55.9726 95.8391C54.6674 96.1106 53.8447 97.4069 54.1548 98.7034C54.5208 100.234 53.3179 101.688 51.7463 101.615C50.4147 101.553 49.2954 102.604 49.2734 103.937C49.2473 105.51 47.7207 106.619 46.2166 106.158C44.9421 105.767 43.5966 106.507 43.2438 107.792C42.8273 109.309 41.0728 110.004 39.7307 109.183C38.5934 108.488 37.1063 108.869 36.4448 110.027C35.6642 111.393 33.792 111.629 32.6962 110.5C31.7677 109.544 30.2323 109.544 29.3038 110.5C28.208 111.629 26.3358 111.393 25.5552 110.027C24.8937 108.869 23.4066 108.488 22.2693 109.183C20.9272 110.004 19.1727 109.309 18.7562 107.792C18.4034 106.507 17.0579 105.767 15.7834 106.158C14.2793 106.619 12.7527 105.51 12.7266 103.937C12.7046 102.604 11.5853 101.553 10.2537 101.615C8.68208 101.688 7.47923 100.234 7.8452 98.7034C8.15531 97.4069 7.33261 96.1106 6.02745 95.8391C4.48715 95.5188 3.68368 93.8113 4.41867 92.4203C5.04147 91.2416 4.56701 89.7814 3.37036 89.1939C1.95811 88.5006 1.60452 86.647 2.66235 85.4824C3.55871 84.4957 3.4623 82.9633 2.44934 82.0967C1.25389 81.0739 1.37238 79.1906 2.68659 78.3257C3.80018 77.5929 4.08788 76.0847 3.32227 74.9934C2.41873 73.7055 3.00186 71.9108 4.48986 71.3999C5.75071 70.967 6.40445 69.5778 5.93429 68.3303C5.37943 66.8582 6.39056 65.2649 7.95886 65.1401C9.28776 65.0344 10.2664 63.8514 10.1213 62.5262C9.94996 60.9623 11.3256 59.6705 12.8756 59.9397C14.1891 60.1678 15.4312 59.2653 15.6202 57.9457C15.8432 56.3883 17.4968 55.4792 18.9312 56.1254C20.1467 56.673 21.5742 56.1078 22.0854 54.8766C22.6887 53.4236 24.5165 52.9543 25.7451 53.9369C26.7862 54.7696 28.3095 54.5771 29.1108 53.5117Z" fill="white"/>
<path fill-rule="evenodd" clip-rule="evenodd" d="M31.2517 67.449C32.4824 67.449 33.48 68.4466 33.48 69.6773V69.6921C33.48 70.9228 32.4824 71.9204 31.2517 71.9204C30.0211 71.9204 29.0234 70.9228 29.0234 69.6921V69.6773C29.0234 68.4466 30.0211 67.449 31.2517 67.449Z" fill="#050505"/>
<path fill-rule="evenodd" clip-rule="evenodd" d="M31.2517 74.1338C32.4824 74.1338 33.48 75.1314 33.48 76.3621V76.3769C33.48 77.6076 32.4824 78.6052 31.2517 78.6052C30.0211 78.6052 29.0234 77.6076 29.0234 76.3769V76.3621C29.0234 75.1314 30.0211 74.1338 31.2517 74.1338Z" fill="#050505"/>
<path fill-rule="evenodd" clip-rule="evenodd" d="M31.2517 80.0759C32.4824 80.0759 33.48 81.0736 33.48 82.3042V82.3191C33.48 83.5497 32.4824 84.5474 31.2517 84.5474C30.0211 84.5474 29.0234 83.5497 29.0234 82.3191V82.3042C29.0234 81.0736 30.0211 80.0759 31.2517 80.0759Z" fill="#050505"/>
<path fill-rule="evenodd" clip-rule="evenodd" d="M31.2512 86.7607C32.0716 86.7607 32.7367 87.4258 32.7367 88.2463V88.2611C32.7367 89.0816 32.0716 89.7466 31.2512 89.7466C30.4307 89.7466 29.7656 89.0816 29.7656 88.2611V88.2463C29.7656 87.4258 30.4307 86.7607 31.2512 86.7607Z" fill="#050505"/>
<path fill-rule="evenodd" clip-rule="evenodd" d="M31.247 92.3315C31.8623 92.3315 32.3611 92.8304 32.3611 93.4457V93.4605C32.3611 94.0759 31.8623 94.5747 31.247 94.5747C30.6316 94.5747 30.1328 94.0759 30.1328 93.4605V93.4457C30.1328 92.8304 30.6316 92.3315 31.247 92.3315Z" fill="#050505"/>
<path fill-rule="evenodd" clip-rule="evenodd" d="M31.2506 97.1594C31.6608 97.1594 31.9933 97.492 31.9933 97.9022V97.917C31.9933 98.3273 31.6608 98.6598 31.2506 98.6598C30.8404 98.6598 30.5078 98.3273 30.5078 97.917V97.9022C30.5078 97.492 30.8404 97.1594 31.2506 97.1594Z" fill="#050505"/>
<path fill-rule="evenodd" clip-rule="evenodd" d="M18.6267 74.1339C19.8574 74.1339 20.855 75.1315 20.855 76.3622V76.3771C20.855 77.6077 19.8574 78.6053 18.6267 78.6053C17.3961 78.6053 16.3984 77.6077 16.3984 76.3771V76.3622C16.3984 75.1315 17.3961 74.1339 18.6267 74.1339Z" fill="#050505"/>
<path fill-rule="evenodd" clip-rule="evenodd" d="M43.8767 74.1338C45.1074 74.1338 46.105 75.1314 46.105 76.3621V76.3769C46.105 77.6076 45.1074 78.6052 43.8767 78.6052C42.6461 78.6052 41.6484 77.6076 41.6484 76.3769V76.3621C41.6484 75.1314 42.6461 74.1338 43.8767 74.1338Z" fill="#050505"/>
<path fill-rule="evenodd" clip-rule="evenodd" d="M43.8762 80.8187C44.6966 80.8187 45.3617 81.4838 45.3617 82.3043V82.3191C45.3617 83.1395 44.6966 83.8046 43.8762 83.8046C43.0557 83.8046 42.3906 83.1395 42.3906 82.3191V82.3043C42.3906 81.4838 43.0557 80.8187 43.8762 80.8187Z" fill="#050505"/>
<path fill-rule="evenodd" clip-rule="evenodd" d="M18.6262 80.8187C19.4466 80.8187 20.1117 81.4838 20.1117 82.3043V82.3191C20.1117 83.1395 19.4466 83.8046 18.6262 83.8046C17.8057 83.8046 17.1406 83.1395 17.1406 82.3191V82.3043C17.1406 81.4838 17.8057 80.8187 18.6262 80.8187Z" fill="#050505"/>
<path fill-rule="evenodd" clip-rule="evenodd" d="M43.8798 85.6466C44.4951 85.6466 44.9939 86.1454 44.9939 86.7608V86.7756C44.9939 87.3909 44.4951 87.8897 43.8798 87.8897C43.2644 87.8897 42.7656 87.3909 42.7656 86.7756V86.7608C42.7656 86.1454 43.2644 85.6466 43.8798 85.6466Z" fill="#050505"/>
<path fill-rule="evenodd" clip-rule="evenodd" d="M43.8756 90.4746C44.2858 90.4746 44.6183 90.8072 44.6183 91.2174V91.2322C44.6183 91.6424 44.2858 91.975 43.8756 91.975C43.4654 91.975 43.1328 91.6424 43.1328 91.2322V91.2174C43.1328 90.8072 43.4654 90.4746 43.8756 90.4746Z" fill="#050505"/>
<path fill-rule="evenodd" clip-rule="evenodd" d="M18.6298 85.6466C19.2451 85.6466 19.7439 86.1454 19.7439 86.7608V86.7756C19.7439 87.3909 19.2451 87.8897 18.6298 87.8897C18.0144 87.8897 17.5156 87.3909 17.5156 86.7756V86.7608C17.5156 86.1454 18.0144 85.6466 18.6298 85.6466Z" fill="#050505"/>
<path fill-rule="evenodd" clip-rule="evenodd" d="M18.6256 90.4746C19.0358 90.4746 19.3683 90.8072 19.3683 91.2174V91.2322C19.3683 91.6424 19.0358 91.975 18.6256 91.975C18.2154 91.975 17.8828 91.6424 17.8828 91.2322V91.2174C17.8828 90.8072 18.2154 90.4746 18.6256 90.4746Z" fill="#050505"/>
<path fill-rule="evenodd" clip-rule="evenodd" d="M25.0174 77.1049C26.248 77.1049 27.2456 78.1025 27.2456 79.3331V79.348C27.2456 80.5787 26.248 81.5763 25.0174 81.5763C23.7867 81.5763 22.7891 80.5787 22.7891 79.348V79.3331C22.7891 78.1025 23.7867 77.1049 25.0174 77.1049Z" fill="#050505"/>
<path fill-rule="evenodd" clip-rule="evenodd" d="M24.9392 70.8657C26.1699 70.8657 27.1675 71.8634 27.1675 73.094V73.1089C27.1675 74.3395 26.1699 75.3372 24.9392 75.3372C23.7086 75.3372 22.7109 74.3395 22.7109 73.1089V73.094C22.7109 71.8634 23.7086 70.8657 24.9392 70.8657Z" fill="#050505"/>
<path fill-rule="evenodd" clip-rule="evenodd" d="M37.4939 77.1049C38.7246 77.1049 39.7222 78.1025 39.7222 79.3331V79.348C39.7222 80.5787 38.7246 81.5763 37.4939 81.5763C36.2633 81.5763 35.2656 80.5787 35.2656 79.348V79.3331C35.2656 78.1025 36.2633 77.1049 37.4939 77.1049Z" fill="#050505"/>
<path fill-rule="evenodd" clip-rule="evenodd" d="M37.5642 70.8656C38.7949 70.8656 39.7925 71.8632 39.7925 73.0939V73.1087C39.7925 74.3394 38.7949 75.337 37.5642 75.337C36.3336 75.337 35.3359 74.3394 35.3359 73.1087V73.0939C35.3359 71.8632 36.3336 70.8656 37.5642 70.8656Z" fill="#050505"/>
<path fill-rule="evenodd" clip-rule="evenodd" d="M25.0168 83.7897C25.8372 83.7897 26.5023 84.4548 26.5023 85.2752V85.2901C26.5023 86.1105 25.8372 86.7756 25.0168 86.7756C24.1963 86.7756 23.5312 86.1105 23.5312 85.2901V85.2752C23.5312 84.4548 24.1963 83.7897 25.0168 83.7897Z" fill="#050505"/>
<path fill-rule="evenodd" clip-rule="evenodd" d="M25.0204 88.6177C25.6357 88.6177 26.1345 89.1165 26.1345 89.7318V89.7467C26.1345 90.362 25.6357 90.8608 25.0204 90.8608C24.4051 90.8608 23.9062 90.362 23.9062 89.7467V89.7318C23.9062 89.1165 24.4051 88.6177 25.0204 88.6177Z" fill="#050505"/>
<path fill-rule="evenodd" clip-rule="evenodd" d="M25.0162 93.4457C25.4264 93.4457 25.759 93.7782 25.759 94.1884V94.2033C25.759 94.6135 25.4264 94.9461 25.0162 94.9461C24.606 94.9461 24.2734 94.6135 24.2734 94.2033V94.1884C24.2734 93.7782 24.606 93.4457 25.0162 93.4457Z" fill="#050505"/>
<path fill-rule="evenodd" clip-rule="evenodd" d="M37.4933 83.7897C38.3138 83.7897 38.9789 84.4548 38.9789 85.2752V85.2901C38.9789 86.1105 38.3138 86.7756 37.4933 86.7756C36.6729 86.7756 36.0078 86.1105 36.0078 85.2901V85.2752C36.0078 84.4548 36.6729 83.7897 37.4933 83.7897Z" fill="#050505"/>
<path fill-rule="evenodd" clip-rule="evenodd" d="M37.497 88.6177C38.1123 88.6177 38.6111 89.1165 38.6111 89.7318V89.7467C38.6111 90.362 38.1123 90.8608 37.497 90.8608C36.8816 90.8608 36.3828 90.362 36.3828 89.7467V89.7318C36.3828 89.1165 36.8816 88.6177 37.497 88.6177Z" fill="#050505"/>
<path fill-rule="evenodd" clip-rule="evenodd" d="M37.4928 93.4457C37.903 93.4457 38.2355 93.7782 38.2355 94.1884V94.2033C38.2355 94.6135 37.903 94.9461 37.4928 94.9461C37.0825 94.9461 36.75 94.6135 36.75 94.2033V94.1884C36.75 93.7782 37.0825 93.4457 37.4928 93.4457Z" fill="#050505"/>
<path d="M29.1108 2.51175C30.0565 1.25444 31.9435 1.25444 32.8892 2.51175C33.6905 3.57712 35.2138 3.76956 36.2549 2.93693C37.4835 1.95431 39.3113 2.4236 39.9146 3.87659C40.4258 5.10777 41.8533 5.67298 43.0688 5.12542C44.5032 4.47922 46.1568 5.38831 46.3798 6.94569C46.5688 8.26532 47.8109 9.16779 49.1244 8.93971C50.6744 8.67053 52.05 9.96231 51.8787 11.5262C51.7336 12.8514 52.7122 14.0344 54.0411 14.1401C55.6094 14.2649 56.6206 15.8582 56.0657 17.3303C55.5956 18.5778 56.2493 19.967 57.5101 20.3999C58.9981 20.9108 59.5813 22.7055 58.6777 23.9934C57.9121 25.0847 58.1998 26.5929 59.3134 27.3257C60.6276 28.1906 60.7461 30.0739 59.5507 31.0967C58.5377 31.9633 58.4413 33.4957 59.3376 34.4824C60.3955 35.647 60.0419 37.5006 58.6296 38.1939C57.433 38.7814 56.9585 40.2416 57.5813 41.4203C58.3163 42.8113 57.5129 44.5188 55.9726 44.8391C54.6674 45.1106 53.8447 46.4069 54.1548 47.7034C54.5208 49.2335 53.3179 50.6875 51.7463 50.6148C50.4147 50.5531 49.2954 51.6041 49.2734 52.937C49.2473 54.5101 47.7207 55.6193 46.2166 55.1579C44.9421 54.767 43.5966 55.5067 43.2438 56.7922C42.8273 58.3094 41.0728 59.0041 39.7307 58.1832C38.5934 57.4876 37.1063 57.8694 36.4448 59.0268C35.6642 60.3928 33.792 60.6293 32.6962 59.5004C31.7677 58.5438 30.2323 58.5438 29.3038 59.5004C28.208 60.6293 26.3358 60.3927 25.5552 59.0268C24.8937 57.8694 23.4066 57.4876 22.2693 58.1832C20.9272 59.0041 19.1727 58.3094 18.7562 56.7922C18.4034 55.5067 17.0579 54.767 15.7834 55.1579C14.2793 55.6193 12.7527 54.5101 12.7266 52.937C12.7046 51.6041 11.5853 50.5531 10.2537 50.6148C8.68208 50.6875 7.47923 49.2335 7.8452 47.7034C8.15531 46.4069 7.33261 45.1106 6.02745 44.8391C4.48715 44.5188 3.68368 42.8113 4.41867 41.4203C5.04147 40.2416 4.56701 38.7814 3.37036 38.1939C1.95811 37.5006 1.60452 35.647 2.66235 34.4824C3.55871 33.4957 3.4623 31.9633 2.44934 31.0967C1.25389 30.0739 1.37238 28.1906 2.68659 27.3257C3.80018 26.5929 4.08788 25.0847 3.32227 23.9934C2.41873 22.7055 3.00186 20.9108 4.48986 20.3999C5.75071 19.967 6.40445 18.5778 5.93429 17.3303C5.37943 15.8582 6.39056 14.2649 7.95886 14.1401C9.28776 14.0344 10.2664 12.8514 10.1213 11.5262C9.94996 9.96231 11.3256 8.67053 12.8756 8.93971C14.1891 9.16779 15.4312 8.26532 15.6202 6.94569C15.8432 5.38831 17.4968 4.47922 18.9312 5.12542C20.1467 5.67298 21.5742 5.10777 22.0854 3.87659C22.6887 2.4236 24.5165 1.95431 25.7451 2.93693C26.7862 3.76956 28.3095 3.57712 29.1108 2.51175Z" fill="#050505"/>
<path fill-rule="evenodd" clip-rule="evenodd" d="M33.6128 26.1496C33.0887 26.1496 32.6638 26.5744 32.6638 27.0985C32.6638 27.6227 33.0887 28.0475 33.6128 28.0475C34.1369 28.0475 34.5618 27.6227 34.5618 27.0985C34.5618 26.5744 34.1369 26.1496 33.6128 26.1496ZM31.8203 27.0985C31.8203 26.1086 32.6228 25.306 33.6128 25.306C34.6028 25.306 35.4053 26.1086 35.4053 27.0985C35.4053 28.0885 34.6028 28.8911 33.6128 28.8911C32.6228 28.8911 31.8203 28.0885 31.8203 27.0985Z" fill="white"/>
<path fill-rule="evenodd" clip-rule="evenodd" d="M28.816 26.1496C28.2918 26.1496 27.867 26.5744 27.867 27.0985C27.867 27.6227 28.2918 28.0475 28.816 28.0475C29.3401 28.0475 29.7649 27.6227 29.7649 27.0985C29.7649 26.5744 29.3401 26.1496 28.816 26.1496ZM27.0234 27.0985C27.0234 26.1086 27.826 25.306 28.816 25.306C29.8059 25.306 30.6085 26.1086 30.6085 27.0985C30.6085 28.0885 29.8059 28.8911 28.816 28.8911C27.826 28.8911 27.0234 28.0885 27.0234 27.0985Z" fill="white"/>
<path fill-rule="evenodd" clip-rule="evenodd" d="M36.0113 30.2618C35.4872 30.2618 35.0623 30.6866 35.0623 31.2107C35.0623 31.7348 35.4872 32.1597 36.0113 32.1597C36.5354 32.1597 36.9602 31.7348 36.9602 31.2107C36.9602 30.6866 36.5354 30.2618 36.0113 30.2618ZM34.2188 31.2107C34.2188 30.2207 35.0213 29.4182 36.0113 29.4182C37.0012 29.4182 37.8038 30.2207 37.8038 31.2107C37.8038 32.2007 37.0012 33.0032 36.0113 33.0032C35.0213 33.0032 34.2188 32.2007 34.2188 31.2107Z" fill="white"/>
<path fill-rule="evenodd" clip-rule="evenodd" d="M38.2701 26.4922C37.9353 26.4922 37.6639 26.7637 37.6639 27.0985C37.6639 27.4334 37.9353 27.7048 38.2701 27.7048C38.605 27.7048 38.8764 27.4334 38.8764 27.0985C38.8764 26.7637 38.605 26.4922 38.2701 26.4922ZM36.8203 27.0985C36.8203 26.2978 37.4694 25.6487 38.2701 25.6487C39.0709 25.6487 39.72 26.2978 39.72 27.0985C39.72 27.8992 39.0709 28.5483 38.2701 28.5483C37.4694 28.5483 36.8203 27.8992 36.8203 27.0985Z" fill="white"/>
<path fill-rule="evenodd" clip-rule="evenodd" d="M38.2701 34.7167C37.9353 34.7167 37.6639 34.9882 37.6639 35.323C37.6639 35.6578 37.9353 35.9293 38.2701 35.9293C38.605 35.9293 38.8764 35.6578 38.8764 35.323C38.8764 34.9882 38.605 34.7167 38.2701 34.7167ZM36.8203 35.323C36.8203 34.5223 37.4694 33.8732 38.2701 33.8732C39.0709 33.8732 39.72 34.5223 39.72 35.323C39.72 36.1237 39.0709 36.7728 38.2701 36.7728C37.4694 36.7728 36.8203 36.1237 36.8203 35.323Z" fill="white"/>
<path fill-rule="evenodd" clip-rule="evenodd" d="M41.8405 30.6045C41.5056 30.6045 41.2342 30.876 41.2342 31.2108C41.2342 31.5457 41.5056 31.8171 41.8405 31.8171C42.1753 31.8171 42.4467 31.5457 42.4467 31.2108C42.4467 30.876 42.1753 30.6045 41.8405 30.6045ZM40.3906 31.2108C40.3906 30.4101 41.0397 29.761 41.8405 29.761C42.6412 29.761 43.2903 30.4101 43.2903 31.2108C43.2903 32.0115 42.6412 32.6606 41.8405 32.6606C41.0397 32.6606 40.3906 32.0115 40.3906 31.2108Z" fill="white"/>
<path fill-rule="evenodd" clip-rule="evenodd" d="M24.0826 26.4922C23.7478 26.4922 23.4764 26.7637 23.4764 27.0985C23.4764 27.4334 23.7478 27.7048 24.0826 27.7048C24.4175 27.7048 24.6889 27.4334 24.6889 27.0985C24.6889 26.7637 24.4175 26.4922 24.0826 26.4922ZM22.6328 27.0985C22.6328 26.2978 23.2819 25.6487 24.0826 25.6487C24.8834 25.6487 25.5325 26.2978 25.5325 27.0985C25.5325 27.8992 24.8834 28.5483 24.0826 28.5483C23.2819 28.5483 22.6328 27.8992 22.6328 27.0985Z" fill="white"/>
<path fill-rule="evenodd" clip-rule="evenodd" d="M24.0826 34.7167C23.7478 34.7167 23.4764 34.9882 23.4764 35.323C23.4764 35.6578 23.7478 35.9293 24.0826 35.9293C24.4175 35.9293 24.6889 35.6578 24.6889 35.323C24.6889 34.9882 24.4175 34.7167 24.0826 34.7167ZM22.6328 35.323C22.6328 34.5223 23.2819 33.8732 24.0826 33.8732C24.8834 33.8732 25.5325 34.5223 25.5325 35.323C25.5325 36.1237 24.8834 36.7728 24.0826 36.7728C23.2819 36.7728 22.6328 36.1237 22.6328 35.323Z" fill="white"/>
<path fill-rule="evenodd" clip-rule="evenodd" d="M20.5201 30.6045C20.1853 30.6045 19.9138 30.876 19.9138 31.2108C19.9138 31.5457 20.1853 31.8171 20.5201 31.8171C20.855 31.8171 21.1264 31.5457 21.1264 31.2108C21.1264 30.876 20.855 30.6045 20.5201 30.6045ZM19.0703 31.2108C19.0703 30.4101 19.7194 29.761 20.5201 29.761C21.3209 29.761 21.97 30.4101 21.97 31.2108C21.97 32.0115 21.3209 32.6606 20.5201 32.6606C19.7194 32.6606 19.0703 32.0115 19.0703 31.2108Z" fill="white"/>
<path fill-rule="evenodd" clip-rule="evenodd" d="M36.5592 21.2835C36.2244 21.2835 35.9529 21.5549 35.9529 21.8898C35.9529 22.2246 36.2244 22.4961 36.5592 22.4961C36.8941 22.4961 37.1655 22.2246 37.1655 21.8898C37.1655 21.5549 36.8941 21.2835 36.5592 21.2835ZM35.1094 21.8898C35.1094 21.0891 35.7585 20.4399 36.5592 20.4399C37.3599 20.4399 38.009 21.0891 38.009 21.8898C38.009 22.6905 37.3599 23.3396 36.5592 23.3396C35.7585 23.3396 35.1094 22.6905 35.1094 21.8898Z" fill="white"/>
<path fill-rule="evenodd" clip-rule="evenodd" d="M25.8639 21.2835C25.529 21.2835 25.2576 21.5549 25.2576 21.8898C25.2576 22.2246 25.529 22.4961 25.8639 22.4961C26.1987 22.4961 26.4702 22.2246 26.4702 21.8898C26.4702 21.5549 26.1987 21.2835 25.8639 21.2835ZM24.4141 21.8898C24.4141 21.0891 25.0632 20.4399 25.8639 20.4399C26.6646 20.4399 27.3137 21.0891 27.3137 21.8898C27.3137 22.6905 26.6646 23.3396 25.8639 23.3396C25.0632 23.3396 24.4141 22.6905 24.4141 21.8898Z" fill="white"/>
<path fill-rule="evenodd" clip-rule="evenodd" d="M31.278 22.38C30.9431 22.38 30.6717 22.6515 30.6717 22.9863C30.6717 23.3212 30.9431 23.5926 31.278 23.5926C31.6128 23.5926 31.8842 23.3212 31.8842 22.9863C31.8842 22.6515 31.6128 22.38 31.278 22.38ZM29.8281 22.9863C29.8281 22.1856 30.4772 21.5365 31.278 21.5365C32.0787 21.5365 32.7278 22.1856 32.7278 22.9863C32.7278 23.787 32.0787 24.4362 31.278 24.4362C30.4772 24.4362 29.8281 23.787 29.8281 22.9863Z" fill="white"/>
<path fill-rule="evenodd" clip-rule="evenodd" d="M36.5592 40.1997C36.2244 40.1997 35.9529 40.4712 35.9529 40.806C35.9529 41.1409 36.2244 41.4123 36.5592 41.4123C36.8941 41.4123 37.1655 41.1409 37.1655 40.806C37.1655 40.4712 36.8941 40.1997 36.5592 40.1997ZM35.1094 40.806C35.1094 40.0053 35.7585 39.3562 36.5592 39.3562C37.3599 39.3562 38.009 40.0053 38.009 40.806C38.009 41.6068 37.3599 42.2559 36.5592 42.2559C35.7585 42.2559 35.1094 41.6068 35.1094 40.806Z" fill="white"/>
<path fill-rule="evenodd" clip-rule="evenodd" d="M25.8639 40.1997C25.529 40.1997 25.2576 40.4712 25.2576 40.806C25.2576 41.1409 25.529 41.4123 25.8639 41.4123C26.1987 41.4123 26.4702 41.1409 26.4702 40.806C26.4702 40.4712 26.1987 40.1997 25.8639 40.1997ZM24.4141 40.806C24.4141 40.0053 25.0632 39.3562 25.8639 39.3562C26.6646 39.3562 27.3137 40.0053 27.3137 40.806C27.3137 41.6068 26.6646 42.2559 25.8639 42.2559C25.0632 42.2559 24.4141 41.6068 24.4141 40.806Z" fill="white"/>
<path fill-rule="evenodd" clip-rule="evenodd" d="M31.278 39.1032C30.9431 39.1032 30.6717 39.3746 30.6717 39.7095C30.6717 40.0443 30.9431 40.3158 31.278 40.3158C31.6128 40.3158 31.8842 40.0443 31.8842 39.7095C31.8842 39.3746 31.6128 39.1032 31.278 39.1032ZM29.8281 39.7095C29.8281 38.9088 30.4772 38.2596 31.278 38.2596C32.0787 38.2596 32.7278 38.9088 32.7278 39.7095C32.7278 40.5102 32.0787 41.1593 31.278 41.1593C30.4772 41.1593 29.8281 40.5102 29.8281 39.7095Z" fill="white"/>
<path fill-rule="evenodd" clip-rule="evenodd" d="M26.4175 30.2618C25.8934 30.2618 25.4685 30.6866 25.4685 31.2107C25.4685 31.7348 25.8934 32.1597 26.4175 32.1597C26.9416 32.1597 27.3665 31.7348 27.3665 31.2107C27.3665 30.6866 26.9416 30.2618 26.4175 30.2618ZM24.625 31.2107C24.625 30.2207 25.4275 29.4182 26.4175 29.4182C27.4075 29.4182 28.21 30.2207 28.21 31.2107C28.21 32.2007 27.4075 33.0032 26.4175 33.0032C25.4275 33.0032 24.625 32.2007 24.625 31.2107Z" fill="white"/>
<path fill-rule="evenodd" clip-rule="evenodd" d="M28.816 34.3741C28.2918 34.3741 27.867 34.7989 27.867 35.323C27.867 35.8471 28.2918 36.272 28.816 36.272C29.3401 36.272 29.7649 35.8471 29.7649 35.323C29.7649 34.7989 29.3401 34.3741 28.816 34.3741ZM27.0234 35.323C27.0234 34.3331 27.826 33.5305 28.816 33.5305C29.8059 33.5305 30.6085 34.3331 30.6085 35.323C30.6085 36.313 29.8059 37.1156 28.816 37.1156C27.826 37.1156 27.0234 36.313 27.0234 35.323Z" fill="white"/>
<path fill-rule="evenodd" clip-rule="evenodd" d="M33.6128 34.3741C33.0887 34.3741 32.6638 34.7989 32.6638 35.323C32.6638 35.8471 33.0887 36.272 33.6128 36.272C34.1369 36.272 34.5618 35.8471 34.5618 35.323C34.5618 34.7989 34.1369 34.3741 33.6128 34.3741ZM31.8203 35.323C31.8203 34.3331 32.6228 33.5305 33.6128 33.5305C34.6028 33.5305 35.4053 34.3331 35.4053 35.323C35.4053 36.313 34.6028 37.1156 33.6128 37.1156C32.6228 37.1156 31.8203 36.313 31.8203 35.323Z" fill="white"/>
<path fill-rule="evenodd" clip-rule="evenodd" d="M31.2108 18.7529C30.8614 18.7529 30.5781 18.4697 30.5781 18.1203C30.5781 17.7709 30.8614 17.4876 31.2108 17.4876C31.5602 17.4876 31.8434 17.7709 31.8434 18.1203C31.8434 18.4697 31.5602 18.7529 31.2108 18.7529Z" fill="white"/>
<path fill-rule="evenodd" clip-rule="evenodd" d="M38.7498 19.301C38.4004 19.301 38.1172 19.0178 38.1172 18.6684C38.1172 18.319 38.4004 18.0357 38.7498 18.0357C39.0992 18.0357 39.3825 18.319 39.3825 18.6684C39.3825 19.0178 39.0992 19.301 38.7498 19.301Z" fill="white"/>
<path fill-rule="evenodd" clip-rule="evenodd" d="M38.7498 44.4543C38.4004 44.4543 38.1172 44.1711 38.1172 43.8217C38.1172 43.4723 38.4004 43.189 38.7498 43.189C39.0992 43.189 39.3825 43.4723 39.3825 43.8217C39.3825 44.1711 39.0992 44.4543 38.7498 44.4543Z" fill="white"/>
<path fill-rule="evenodd" clip-rule="evenodd" d="M42.1795 38.0118C41.8301 38.0118 41.5469 37.7286 41.5469 37.3792C41.5469 37.0298 41.8301 36.7465 42.1795 36.7465C42.5289 36.7465 42.8122 37.0298 42.8122 37.3792C42.8122 37.7286 42.5289 38.0118 42.1795 38.0118Z" fill="white"/>
<path fill-rule="evenodd" clip-rule="evenodd" d="M42.1795 24.9897C41.8301 24.9897 41.5469 24.7065 41.5469 24.3571C41.5469 24.0077 41.8301 23.7244 42.1795 23.7244C42.5289 23.7244 42.8122 24.0077 42.8122 24.3571C42.8122 24.7065 42.5289 24.9897 42.1795 24.9897Z" fill="white"/>
<path fill-rule="evenodd" clip-rule="evenodd" d="M20.242 38.0118C19.8926 38.0118 19.6094 37.7286 19.6094 37.3792C19.6094 37.0298 19.8926 36.7465 20.242 36.7465C20.5914 36.7465 20.8747 37.0298 20.8747 37.3792C20.8747 37.7286 20.5914 38.0118 20.242 38.0118Z" fill="white"/>
<path fill-rule="evenodd" clip-rule="evenodd" d="M20.242 24.9897C19.8926 24.9897 19.6094 24.7065 19.6094 24.3571C19.6094 24.0077 19.8926 23.7244 20.242 23.7244C20.5914 23.7244 20.8747 24.0077 20.8747 24.3571C20.8747 24.7065 20.5914 24.9897 20.242 24.9897Z" fill="white"/>
<path fill-rule="evenodd" clip-rule="evenodd" d="M23.6717 19.3011C23.3223 19.3011 23.0391 19.0179 23.0391 18.6685C23.0391 18.3191 23.3223 18.0358 23.6717 18.0358C24.0211 18.0358 24.3044 18.3191 24.3044 18.6685C24.3044 19.0179 24.0211 19.3011 23.6717 19.3011Z" fill="white"/>
<path fill-rule="evenodd" clip-rule="evenodd" d="M23.6717 44.4545C23.3223 44.4545 23.0391 44.1712 23.0391 43.8218C23.0391 43.4724 23.3223 43.1892 23.6717 43.1892C24.0211 43.1892 24.3044 43.4724 24.3044 43.8218C24.3044 44.1712 24.0211 44.4545 23.6717 44.4545Z" fill="white"/>
<path fill-rule="evenodd" clip-rule="evenodd" d="M31.2108 44.8656C30.8614 44.8656 30.5781 44.5824 30.5781 44.2329C30.5781 43.8835 30.8614 43.6003 31.2108 43.6003C31.5602 43.6003 31.8434 43.8835 31.8434 44.2329C31.8434 44.5824 31.5602 44.8656 31.2108 44.8656Z" fill="white"/>
<path fill-rule="evenodd" clip-rule="evenodd" d="M16.8905 31.8435C16.5411 31.8435 16.2578 31.5603 16.2578 31.2109C16.2578 30.8614 16.5411 30.5782 16.8905 30.5782C17.2399 30.5782 17.5231 30.8614 17.5231 31.2109C17.5231 31.5603 17.2399 31.8435 16.8905 31.8435Z" fill="white"/>
<path fill-rule="evenodd" clip-rule="evenodd" d="M45.6014 31.8435C45.252 31.8435 44.9688 31.5603 44.9688 31.2109C44.9688 30.8614 45.252 30.5782 45.6014 30.5782C45.9508 30.5782 46.2341 30.8614 46.2341 31.2109C46.2341 31.5603 45.9508 31.8435 45.6014 31.8435Z" fill="white"/>
</svg>
