<svg width="390" height="769" viewBox="0 0 390 769" fill="none" xmlns="http://www.w3.org/2000/svg">
<g clip-path="url(#clip0_578_18208)">
<path d="M1.5 301.5H388.5V729C388.5 750.263 371.263 767.5 350 767.5H40C18.737 767.5 1.5 750.263 1.5 729V301.5Z" stroke="white" stroke-width="3"/>
<path d="M1.5 449.5H388.5V566C388.5 587.263 371.263 604.5 350 604.5H40C18.737 604.5 1.5 587.263 1.5 566V449.5Z" fill="#03A081" stroke="white" stroke-width="3"/>
<path d="M68.6448 11.5883L60.5523 19.608C53.8972 26.2033 44.9068 29.9035 35.5373 29.9035C15.9106 29.9035 0 45.814 0 65.4408V295C0 317.091 17.9086 335 40 335H350C372.091 335 390 317.091 390 295V69.9035C390 47.8121 372.091 29.9035 350 29.9035H225.659C215.113 29.9035 204.993 25.7386 197.502 18.3152L190.714 11.5883C183.224 4.16484 173.104 0 162.558 0H96.8011C86.255 0 76.1356 4.16483 68.6448 11.5883Z" fill="white"/>
<path d="M61.6082 69.6735L69.7007 61.6537C76.9106 54.5086 86.6505 50.5 96.8011 50.5H162.558C172.709 50.5 182.449 54.5087 189.659 61.6537L196.446 68.3806C204.218 76.0825 214.717 80.4035 225.659 80.4035H350C371.263 80.4035 388.5 97.6405 388.5 118.903V344C388.5 365.263 371.263 382.5 350 382.5H40C18.737 382.5 1.5 365.263 1.5 344V114.441C1.5 95.6425 16.739 80.4035 35.5373 80.4035C45.3023 80.4035 54.6722 76.5471 61.6082 69.6735Z" fill="#03A081" stroke="white" stroke-width="3"/>
<path d="M61.6082 118.675L69.7005 110.655C76.9105 103.509 86.6508 99.5 96.8019 99.5H162.557C172.708 99.5 182.449 103.509 189.659 110.655L196.446 117.382C204.218 125.084 214.717 129.406 225.659 129.406H350C371.263 129.406 388.5 146.643 388.5 167.906V443C388.5 464.263 371.263 481.5 350 481.5H40C18.737 481.5 1.5 464.263 1.5 443V163.442C1.5 144.644 16.7388 129.406 35.5368 129.406C45.3021 129.406 54.6722 125.549 61.6082 118.675Z" fill="#E4E4E4" stroke="white" stroke-width="3"/>
</g>
<defs>
<clipPath id="clip0_578_18208">
<rect width="390" height="769" fill="white"/>
</clipPath>
</defs>
</svg>
