<?xml version="1.0" encoding="utf-8"?><svg xmlns="http://www.w3.org/2000/svg" xmlns:xlink="http://www.w3.org/1999/xlink"><symbol fill="none" viewBox="0 0 24 24" id="arrow" xmlns="http://www.w3.org/2000/svg"><path d="m19.92 8.95-6.52 6.52c-.77.77-2.03.77-2.8 0L4.08 8.95" stroke="#292D32" stroke-width="1.5" stroke-miterlimit="10" stroke-linecap="round" stroke-linejoin="round"/></symbol><symbol viewBox="0 0 16 28" id="arrowline" xmlns="http://www.w3.org/2000/svg"><path d="M9 1a1 1 0 0 0-2 0h2ZM7.293 27.163a1 1 0 0 0 1.414 0l6.364-6.364a1 1 0 0 0-1.414-1.414L8 25.042l-5.657-5.657A1 1 0 0 0 .93 20.799l6.364 6.364ZM7 1v25.456h2V1H7Z"/></symbol><symbol fill="none" viewBox="0 0 36 36" id="book" xmlns="http://www.w3.org/2000/svg"><path d="M33 25.11V7.005c0-1.8-1.47-3.135-3.255-2.985h-.09c-3.15.27-7.935 1.875-10.605 3.555l-.255.165c-.435.27-1.155.27-1.59 0l-.375-.225C14.16 5.85 9.39 4.26 6.24 4.005 4.455 3.855 3 5.205 3 6.99v18.12c0 1.44 1.17 2.79 2.61 2.97l.435.06c3.255.435 8.28 2.085 11.16 3.66l.06.03c.405.225 1.05.225 1.44 0 2.88-1.59 7.92-3.255 11.19-3.69l.495-.06c1.44-.18 2.61-1.53 2.61-2.97ZM18 8.235v22.5M11.625 12.735H8.25M12.75 17.235h-4.5" stroke="#fff" stroke-width="1.5" stroke-linecap="round" stroke-linejoin="round"/></symbol><symbol fill="none" viewBox="0 0 24 24" id="cancel" xmlns="http://www.w3.org/2000/svg"><path d="m7.757 7.757 8.486 8.486M7.757 16.243l8.486-8.486" stroke="#292D32" stroke-width="1.5" stroke-linecap="round" stroke-linejoin="round"/></symbol><symbol fill="none" viewBox="0 0 24 24" id="card" xmlns="http://www.w3.org/2000/svg"><path d="M3.93 15.88 15.88 3.93M11.101 18.279l1.2-1.2M13.793 15.589l2.39-2.39" stroke="#292D32" stroke-width="1.5" stroke-miterlimit="10" stroke-linecap="round" stroke-linejoin="round"/><path d="m3.601 10.239 6.64-6.64c2.12-2.12 3.18-2.13 5.28-.03l4.91 4.91c2.1 2.1 2.09 3.16-.03 5.28l-6.64 6.64c-2.12 2.12-3.18 2.13-5.28.03l-4.91-4.91c-2.1-2.1-2.1-3.15.03-5.28ZM2 21.998h20" stroke="#292D32" stroke-width="1.5" stroke-linecap="round" stroke-linejoin="round"/></symbol><symbol fill="none" viewBox="0 0 24 24" id="chart" xmlns="http://www.w3.org/2000/svg"><path d="M3 22h18M5.6 8.38H4c-.55 0-1 .45-1 1V18c0 .55.45 1 1 1h1.6c.55 0 1-.45 1-1V9.38c0-.55-.45-1-1-1ZM12.8 5.19h-1.6c-.55 0-1 .45-1 1V18c0 .55.45 1 1 1h1.6c.55 0 1-.45 1-1V6.19c0-.55-.45-1-1-1ZM20 2h-1.6c-.55 0-1 .45-1 1v15c0 .55.45 1 1 1H20c.55 0 1-.45 1-1V3c0-.55-.45-1-1-1Z" stroke="#292D32" stroke-width="1.5" stroke-linecap="round" stroke-linejoin="round"/></symbol><symbol fill="none" viewBox="0 0 24 24" id="check" xmlns="http://www.w3.org/2000/svg"><path fill-rule="evenodd" clip-rule="evenodd" d="M19.502 6.443a.75.75 0 0 1 .056 1.059l-7.738 8.597a2.75 2.75 0 0 1-3.762.308l-3.526-2.821a.75.75 0 0 1 .937-1.172l3.526 2.822a1.25 1.25 0 0 0 1.71-.14l7.738-8.598a.75.75 0 0 1 1.059-.055Z" fill="#28303F"/></symbol><symbol fill="none" viewBox="0 0 40 40" id="close" xmlns="http://www.w3.org/2000/svg"><path d="m12.93 12.929 14.142 14.142M12.928 27.071 27.07 12.93" stroke="#fff" stroke-width="2" stroke-linecap="round" stroke-linejoin="round"/></symbol><symbol fill="none" viewBox="0 0 24 24" id="command" xmlns="http://www.w3.org/2000/svg"><path d="M16.001 8h-8v8h8V8ZM5.001 22c1.65 0 3-1.35 3-3v-3h-3c-1.65 0-3 1.35-3 3s1.35 3 3 3ZM5.001 8h3V5c0-1.65-1.35-3-3-3s-3 1.35-3 3 1.35 3 3 3ZM15.999 8h3c1.65 0 3-1.35 3-3s-1.35-3-3-3-3 1.35-3 3v3ZM18.999 22c1.65 0 3-1.35 3-3s-1.35-3-3-3h-3v3c0 1.65 1.35 3 3 3Z" stroke="#050505" stroke-width="1.5" stroke-linecap="round" stroke-linejoin="round"/></symbol><symbol fill="none" viewBox="0 0 36 36" id="connection" xmlns="http://www.w3.org/2000/svg"><path d="M18 24v4.5M18 34.5a3 3 0 1 0 0-6 3 3 0 0 0 0 6ZM27 31.5h-6M15 31.5H9" stroke="#fff" stroke-width="1.5" stroke-miterlimit="10" stroke-linecap="round" stroke-linejoin="round"/><path d="M28.5 12.45v6.3c0 4.2-1.05 5.25-5.25 5.25h-10.5c-4.2 0-5.25-1.05-5.25-5.25V8.25C7.5 4.05 8.55 3 12.75 3h1.575c1.575 0 1.92.465 2.52 1.26l1.575 2.1c.405.525.63.84 1.68.84h3.15c4.2 0 5.25 1.05 5.25 5.25Z" stroke="#fff" stroke-width="1.5" stroke-miterlimit="10"/></symbol><symbol fill="none" viewBox="0 0 38 38" id="cpu" xmlns="http://www.w3.org/2000/svg"><path d="M31.667 15.2c0-6.333-2.533-8.867-8.866-8.867h-7.6c-6.334 0-8.867 2.534-8.867 8.867v7.6c0 6.333 2.533 8.867 8.867 8.867" stroke="#fff" stroke-width="2" stroke-linecap="round" stroke-linejoin="round"/><path d="M25.888 12.667c-.87-1.109-2.327-1.584-4.512-1.584h-4.75c-3.959 0-5.542 1.584-5.542 5.542v4.75c0 2.185.475 3.642 1.568 4.512M12.682 6.333V3.167M19 6.333V3.167M25.334 6.333V3.167M31.666 12.667h3.167M12.682 31.667v3.166M3.166 12.667h3.167M3.166 19h3.167M3.166 25.333h3.167" stroke="#fff" stroke-width="2" stroke-linecap="round" stroke-linejoin="round"/><path d="M26.457 29.434a2.518 2.518 0 1 0 0-5.035 2.518 2.518 0 0 0 0 5.035Z" stroke="#fff" stroke-width="2" stroke-miterlimit="10" stroke-linecap="round" stroke-linejoin="round"/><path d="M18.066 27.645v-1.473c0-.87.713-1.583 1.584-1.583 1.52 0 2.137-1.076 1.377-2.39a1.582 1.582 0 0 1 .586-2.17l1.44-.839c.666-.396 1.52-.158 1.917.507l.095.158c.76 1.314 1.995 1.314 2.755 0l.095-.158a1.415 1.415 0 0 1 1.916-.507l1.44.84c.76.442 1.03 1.408.586 2.168-.76 1.314-.142 2.391 1.378 2.391.87 0 1.583.713 1.583 1.584v1.472c0 .87-.712 1.583-1.583 1.583-1.52 0-2.138 1.077-1.378 2.391.444.76.174 1.742-.586 2.17l-1.44.838c-.665.396-1.52.159-1.916-.506l-.095-.159c-.76-1.314-1.995-1.314-2.755 0l-.095.159a1.415 1.415 0 0 1-1.916.506l-1.44-.839a1.586 1.586 0 0 1-.587-2.169c.76-1.314.143-2.39-1.377-2.39-.871.015-1.584-.697-1.584-1.584Z" stroke="#fff" stroke-width="2" stroke-miterlimit="10" stroke-linecap="round" stroke-linejoin="round"/></symbol><symbol fill="none" viewBox="0 0 24 24" id="documentcode" xmlns="http://www.w3.org/2000/svg"><path d="M21 7v10c0 3-1.5 5-5 5H8c-3.5 0-5-2-5-5V7c0-3 1.5-5 5-5h8c3.5 0 5 2 5 5Z" stroke="#292D32" stroke-width="1.5" stroke-miterlimit="10" stroke-linecap="round" stroke-linejoin="round"/><path d="M14.5 4.5v2c0 1.1.9 2 2 2h2M10 13l-2 2 2 2M14 13l2 2-2 2" stroke="#292D32" stroke-width="1.5" stroke-miterlimit="10" stroke-linecap="round" stroke-linejoin="round"/></symbol><symbol fill="none" viewBox="0 0 24 24" id="documenttext" xmlns="http://www.w3.org/2000/svg"><path d="M22 10v5c0 5-2 7-7 7H9c-5 0-7-2-7-7V9c0-5 2-7 7-7h5" stroke="#292D32" stroke-width="1.5" stroke-linecap="round" stroke-linejoin="round"/><path d="M22 10h-4c-3 0-4-1-4-4V2l8 8ZM7 13h6M7 17h4" stroke="#292D32" stroke-width="1.5" stroke-linecap="round" stroke-linejoin="round"/></symbol><symbol fill="none" viewBox="0 0 38 38" id="global" xmlns="http://www.w3.org/2000/svg"><path d="M19 34.833c8.744 0 15.833-7.088 15.833-15.833 0-8.745-7.09-15.833-15.834-15.833S3.166 10.255 3.166 19c0 8.744 7.089 15.833 15.833 15.833Z" stroke="#777" stroke-width="2" stroke-linecap="round" stroke-linejoin="round"/><path d="M12.666 4.75h1.583a45.004 45.004 0 0 0 0 28.5h-1.583M23.75 4.75a45.004 45.004 0 0 1 0 28.5" stroke="#777" stroke-width="2" stroke-linecap="round" stroke-linejoin="round"/><path d="M4.75 25.333V23.75a45.004 45.004 0 0 0 28.5 0v1.583M4.75 14.25a45.004 45.004 0 0 1 28.5 0" stroke="#777" stroke-width="2" stroke-linecap="round" stroke-linejoin="round"/></symbol><symbol fill="none" viewBox="0 0 24 24" id="group" xmlns="http://www.w3.org/2000/svg"><path d="M12 16v3M12 23a2 2 0 1 0 0-4 2 2 0 0 0 0 4ZM18 21h-4M10 21H6" stroke="#050505" stroke-width="1.5" stroke-miterlimit="10" stroke-linecap="round" stroke-linejoin="round"/><path d="M19 8.3v4.2c0 2.8-.7 3.5-3.5 3.5h-7C5.7 16 5 15.3 5 12.5v-7C5 2.7 5.7 2 8.5 2h1.05c1.05 0 1.28.31 1.68.84l1.05 1.4c.27.35.42.56 1.12.56h2.1c2.8 0 3.5.7 3.5 3.5Z" stroke="#050505" stroke-width="1.5" stroke-miterlimit="10"/></symbol><symbol fill="none" viewBox="0 0 24 25" id="invoice" xmlns="http://www.w3.org/2000/svg"><path d="M8 7.5h4m-4 4h8m-8 4h8M5 2.5h14a2 2 0 0 1 2 2v15.154a2 2 0 0 1-2.677 1.882l-1.562-.562a2 2 0 0 0-1.498.058L12.82 22.13a2 2 0 0 1-1.642 0l-2.442-1.1a2 2 0 0 0-1.498-.057l-1.562.562A2 2 0 0 1 3 19.654V4.5a2 2 0 0 1 2-2Z" stroke="#03A081" stroke-width="2" stroke-linecap="round"/></symbol><symbol fill="none" viewBox="0 0 24 24" id="like" xmlns="http://www.w3.org/2000/svg"><path d="m7.48 18.35 3.1 2.4c.4.4 1.3.6 1.9.6h3.8c1.2 0 2.5-.9 2.8-2.1l2.4-7.3c.5-1.4-.4-2.6-1.9-2.6h-4c-.6 0-1.1-.5-1-1.2l.5-3.2c.2-.9-.4-1.9-1.3-2.2-.8-.3-1.8.1-2.2.7l-4.1 6.1" stroke="#292D32" stroke-width="1.5" stroke-miterlimit="10"/><path d="M2.38 18.35v-9.8c0-1.4.6-1.9 2-1.9h1c1.4 0 2 .5 2 1.9v9.8c0 1.4-.6 1.9-2 1.9h-1c-1.4 0-2-.5-2-1.9Z" stroke="#292D32" stroke-width="1.5" stroke-linecap="round" stroke-linejoin="round"/></symbol><symbol fill="none" viewBox="0 0 24 24" id="link" xmlns="http://www.w3.org/2000/svg"><path d="M14.99 17.5h1.51c3.02 0 5.5-2.47 5.5-5.5 0-3.02-2.47-5.5-5.5-5.5h-1.51M9 6.5H7.5A5.51 5.51 0 0 0 2 12c0 3.02 2.47 5.5 5.5 5.5H9M8 12h8" stroke="#292D32" stroke-width="1.5" stroke-linecap="round" stroke-linejoin="round"/></symbol><symbol fill="none" viewBox="0 0 24 24" id="location" xmlns="http://www.w3.org/2000/svg"><path d="M12 13.43a3.12 3.12 0 1 0 0-6.24 3.12 3.12 0 0 0 0 6.24Z" stroke="#03A081" stroke-width="1.5"/><path d="M3.623 8.49c1.97-8.66 14.8-8.65 16.76.01 1.15 5.08-2.01 9.38-4.78 12.04a5.194 5.194 0 0 1-7.21 0c-2.76-2.66-5.92-6.97-4.77-12.05Z" stroke="#03A081" stroke-width="1.5"/></symbol><symbol fill="none" viewBox="0 0 205 29" id="logotype" xmlns="http://www.w3.org/2000/svg"><path d="M0 .895h23.945c4.44 0 7.93 2.298 10.47 6.894a9.989 9.989 0 0 1 1.151 4.727V29H12.91C7.13 29 3.066 26.181.723 20.543.24 19.371 0 17.984 0 16.383v-5.156h31.836c-.677-2.435-2.018-4.304-4.023-5.606-1.55-.755-2.937-1.133-4.16-1.133H0V.895ZM3.594 14.8v1.015c0 5.04 2.578 8.19 7.734 9.454.73.09 1.543.136 2.442.136h18.203V14.801H3.593ZM39.062.973h3.575V4.41C45.11 2.118 47.825.973 50.78.973h13.867v3.574h-13.71c-3.1 0-5.58 1.621-7.442 4.863-.573 1.133-.86 2.468-.86 4.004V29h-3.574V.973ZM68.36.895h23.946c4.44 0 7.929 2.298 10.468 6.894a9.98 9.98 0 0 1 1.153 4.727V29H81.269c-5.78 0-9.843-2.819-12.187-8.457-.482-1.172-.723-2.559-.723-4.16v-5.156h31.836c-.677-2.435-2.018-4.304-4.023-5.606-1.55-.755-2.936-1.133-4.16-1.133H68.359V.895ZM71.953 14.8v1.015c0 5.04 2.578 8.19 7.734 9.454.73.09 1.544.136 2.442.136h18.203V14.801H71.953ZM107.422.973h3.574v15.879c0 3.854 2.142 6.614 6.426 8.28 1.198.196 2.2.294 3.008.294h14.726V29h-15.293c-4.843 0-8.515-2.142-11.015-6.426-.951-1.706-1.426-3.613-1.426-5.722V.972Zm43.926.078h12.109c4.336 0 7.806 2.233 10.41 6.699.768 1.758 1.153 3.23 1.153 4.414v.723c0 .09.045.136.136.136l-.136.293v3.711c0 5.091-2.663 8.841-7.989 11.25a14.167 14.167 0 0 1-4.433.723h-10.547c-5.781 0-9.772-2.95-11.973-8.848-.286-1.198-.43-2.337-.43-3.418v-3.418c0-5.768 2.995-9.759 8.985-11.972 1.146-.196 2.051-.293 2.715-.293Zm-8.125 12.558v2.559c0 4.48 2.089 7.428 6.269 8.848.716.273 1.758.41 3.125.41h9.414c4.714 0 7.754-2.181 9.121-6.543a9.761 9.761 0 0 0 .293-2.422V12.75c0-3.346-1.901-5.918-5.703-7.715-1.015-.273-1.868-.41-2.558-.41h-11.7c-3.281 0-5.8 1.758-7.558 5.273-.469 1.068-.703 2.305-.703 3.711ZM178.711.973h3.574c.222 0 1.029 3.196 2.422 9.59 2.383 9.388 3.574 14.342 3.574 14.863h6.016c.221 0 1.029-3.197 2.422-9.59 2.383-9.414 3.574-14.369 3.574-14.863h3.73v.136c0 .326-2.239 9.623-6.718 27.891H185.43c-.091-.807-2.331-10.15-6.719-28.027Z" fill="#050505"/><path d="M0 .895v-.5h-.5v.5H0Zm34.414 6.894.442-.233-.004-.009-.438.242ZM35.566 29v.5h.5V29h-.5ZM.723 20.543l-.463.19.001.002.462-.192ZM0 11.227v-.5h-.5v.5H0Zm31.836 0v.5h.658l-.176-.634-.482.134ZM27.813 5.62l.272-.42-.026-.016-.027-.013-.22.45ZM0 4.488h-.5v.5H0v-.5Zm3.594 10.313v-.5h-.5v.5h.5Zm7.734 10.469-.119.485.028.007.03.004.061-.496Zm20.645.136v.5h.5v-.5h-.5Zm0-10.605h.5v-.5h-.5v.5ZM0 1.395h23.945v-1H0v1Zm23.945 0c4.222 0 7.561 2.164 10.031 6.636l.876-.484C32.244 2.827 28.604.395 23.945.395v1Zm10.027 6.627a9.49 9.49 0 0 1 1.094 4.494h1c0-1.772-.402-3.428-1.21-4.96l-.884.466Zm1.094 4.494V29h1V12.516h-1Zm.5 15.984H12.91v1h22.656v-1Zm-22.656 0c-2.806 0-5.164-.683-7.098-2.025-1.936-1.344-3.484-3.373-4.628-6.124l-.923.384c1.2 2.887 2.855 5.086 4.981 6.562C7.371 28.773 9.935 29.5 12.91 29.5v-1ZM1.185 20.353C.734 19.255.5 17.936.5 16.383h-1c0 1.65.248 3.104.76 4.35l.925-.38ZM.5 16.383v-5.156h-1v5.156h1ZM0 11.727h31.836v-1H0v1Zm32.318-.634c-.708-2.545-2.12-4.519-4.233-5.891l-.545.838c1.897 1.232 3.168 2.996 3.814 5.32l.964-.267Zm-4.286-5.921c-1.592-.776-3.055-1.184-4.38-1.184v1c1.124 0 2.434.348 3.941 1.083l.439-.9Zm-4.38-1.184H0v1h23.652v-1ZM.5 4.488V.895h-1v3.593h1Zm2.594 10.313v1.015h1v-1.015h-1Zm0 1.015c0 2.607.668 4.775 2.046 6.46 1.376 1.681 3.418 2.83 6.07 3.48l.237-.972c-2.505-.614-4.33-1.672-5.533-3.142-1.2-1.466-1.82-3.393-1.82-5.826h-1Zm8.172 9.95c.754.094 1.589.14 2.504.14v-1a19.31 19.31 0 0 1-2.38-.133l-.124.993Zm2.504.14h18.203v-1H13.77v1Zm18.703-.5V14.801h-1v10.605h1Zm-.5-11.105H3.593v1h28.38v-1ZM39.063.973v-.5h-.5v.5h.5Zm3.574 0h.5v-.5h-.5v.5Zm0 3.437h-.5v1.145l.84-.778-.34-.367ZM64.648.973h.5v-.5h-.5v.5Zm0 3.574v.5h.5v-.5h-.5ZM43.496 9.41l-.434-.249-.006.012-.006.011.446.226ZM42.636 29v.5h.5V29h-.5Zm-3.574 0h-.5v.5h.5V29Zm0-27.527h3.575v-1h-3.575v1Zm3.075-.5V4.41h1V.973h-1Zm.84 3.804c2.395-2.219 4.992-3.304 7.804-3.304v-1c-3.1 0-5.932 1.206-8.484 3.57l.68.734Zm7.804-3.304h13.867v-1H50.781v1Zm13.367-.5v3.574h1V.973h-1Zm.5 3.074h-13.71v1h13.71v-1Zm-13.71 0c-3.318 0-5.946 1.755-7.876 5.114l.868.498c1.794-3.125 4.127-4.612 7.008-4.612v-1ZM43.05 9.185c-.615 1.215-.913 2.63-.913 4.23h1c0-1.475.274-2.73.805-3.78l-.892-.45Zm-.913 4.23V29h1V13.414h-1Zm.5 15.085h-3.575v1h3.575v-1Zm-3.075.5V.973h-1V29h1ZM68.36.895v-.5h-.5v.5h.5Zm34.414 6.894.443-.233-.005-.009-.438.242ZM103.926 29v.5h.5V29h-.5Zm-34.844-8.457-.462.19v.002l.462-.192Zm-.723-9.316v-.5h-.5v.5h.5Zm31.836 0v.5h.658l-.176-.634-.482.134ZM96.172 5.62l.272-.42-.026-.016-.027-.013-.22.45ZM68.359 4.488h-.5v.5h.5v-.5Zm3.594 10.313v-.5h-.5v.5h.5Zm7.734 10.469-.118.485.028.007.029.004.061-.496Zm20.645.136v.5h.5v-.5h-.5Zm0-10.605h.5v-.5h-.5v.5ZM68.359 1.395h23.946v-1H68.359v1Zm23.946 0c4.221 0 7.56 2.164 10.031 6.636l.875-.484C100.603 2.827 96.963.395 92.305.395v1Zm10.026 6.627a9.493 9.493 0 0 1 1.095 4.494h1a10.49 10.49 0 0 0-1.21-4.96l-.885.466Zm1.095 4.494V29h1V12.516h-1Zm.5 15.984H81.269v1h22.657v-1Zm-22.657 0c-2.806 0-5.163-.683-7.097-2.025-1.936-1.344-3.484-3.373-4.628-6.124l-.924.384c1.2 2.887 2.855 5.086 4.982 6.562 2.128 1.476 4.693 2.203 7.667 2.203v-1Zm-11.725-8.147c-.45-1.098-.685-2.417-.685-3.97h-1c0 1.65.248 3.104.76 4.35l.925-.38Zm-.685-3.97v-5.156h-1v5.156h1Zm-.5-4.656h31.836v-1H68.359v1Zm32.318-.634c-.708-2.545-2.12-4.519-4.233-5.891l-.544.838c1.896 1.232 3.167 2.996 3.814 5.32l.963-.267Zm-4.286-5.921c-1.592-.776-3.055-1.184-4.38-1.184v1c1.124 0 2.434.348 3.942 1.083l.438-.9Zm-4.38-1.184H68.36v1h23.653v-1Zm-23.152.5V.895h-1v3.593h1Zm2.594 10.313v1.015h1v-1.015h-1Zm0 1.015c0 2.607.668 4.775 2.047 6.46 1.376 1.681 3.417 2.83 6.069 3.48l.237-.972c-2.504-.614-4.33-1.672-5.532-3.142-1.2-1.466-1.82-3.393-1.82-5.826h-1Zm8.172 9.95c.754.094 1.59.14 2.504.14v-1c-.882 0-1.675-.044-2.38-.133l-.123.993Zm2.504.14h18.203v-1H82.129v1Zm18.703-.5V14.801h-1v10.605h1Zm-.5-11.105H71.953v1h28.379v-1Zm7.09-13.328v-.5h-.5v.5h.5Zm3.574 0h.5v-.5h-.5v.5Zm6.426 24.16-.181.466.049.019.051.008.081-.493Zm17.734.293h.5v-.5h-.5v.5Zm0 3.574v.5h.5V29h-.5Zm-26.308-6.426-.437.244.005.008.432-.252Zm-1.426-21.101h3.574v-1h-3.574v1Zm3.074-.5v15.879h1V.972h-1Zm0 15.879c0 2.026.565 3.79 1.712 5.267 1.141 1.47 2.832 2.624 5.033 3.48l.362-.932c-2.083-.81-3.605-1.872-4.605-3.161-.996-1.283-1.502-2.826-1.502-4.654h-1Zm6.845 8.774c1.213.198 2.245.3 3.089.3v-1c-.771 0-1.745-.094-2.928-.287l-.161.987Zm3.089.3h14.726v-1H120.43v1Zm14.226-.5V29h1v-3.574h-1Zm.5 3.074h-15.293v1h15.293v-1Zm-15.293 0c-4.66 0-8.17-2.043-10.584-6.178l-.863.504c2.587 4.433 6.421 6.674 11.447 6.674v-1Zm-10.579-6.17c-.905-1.625-1.362-3.447-1.362-5.478h-1c0 2.187.494 4.18 1.489 5.966l.873-.487Zm-1.362-5.478V.972h-1v15.88h1Zm65.945-9.102.458-.2-.011-.027-.015-.025-.432.252Zm1.289 5.273.453.212.332-.712h-.785v.5Zm-.136.293-.454-.211-.046.1v.111h.5Zm-7.989 14.961.156.476.026-.009.024-.011-.206-.456Zm-26.953-8.125-.486.117.007.03.011.028.468-.175Zm8.555-18.808-.084-.493-.046.008-.044.016.174.469Zm.859 23.672.179-.467-.009-.004-.009-.003-.161.474Zm21.66-6.133.477.15.005-.014.003-.013-.485-.123Zm-5.41-13.848.214-.452-.041-.019-.043-.012-.13.483Zm-21.816 4.863-.447-.223-.006.011-.005.011.458.201Zm7.422-8.347h12.109v-1h-12.109v1Zm12.109 0c4.121 0 7.443 2.103 9.978 6.45l.864-.503c-2.673-4.585-6.291-6.947-10.842-6.947v1Zm9.952 6.4c.756 1.728 1.111 3.127 1.111 4.213h1c0-1.283-.414-2.828-1.195-4.614l-.916.4Zm1.111 4.213v.723h1v-.723h-1Zm0 .723c0 .122.031.306.18.456.15.15.334.18.456.18v-1c.032 0 .147.009.251.113.104.104.113.22.113.25h-1Zm.183-.075-.137.293.907.423.136-.293-.906-.423Zm-.183.504v3.711h1v-3.71h-1Zm0 3.711c0 2.454-.64 4.56-1.905 6.342-1.268 1.785-3.186 3.275-5.79 4.453l.412.91c2.722-1.23 4.798-2.82 6.193-4.784 1.398-1.969 2.09-4.283 2.09-6.92h-1Zm-7.644 10.775a13.678 13.678 0 0 1-4.278.698v1c1.539 0 3.069-.25 4.589-.747l-.311-.95Zm-4.278.698h-10.547v1h10.547v-1Zm-10.547 0c-2.802 0-5.136-.713-7.032-2.114-1.899-1.403-3.397-3.526-4.472-6.408l-.937.35c1.125 3.015 2.723 5.316 4.815 6.862 2.095 1.548 4.646 2.31 7.626 2.31v-1Zm-11.487-8.464c-.278-1.165-.416-2.265-.416-3.302h-1c0 1.125.15 2.304.444 3.535l.972-.233Zm-.416-3.302v-3.418h-1v3.418h1Zm0-3.418c0-2.793.724-5.123 2.146-7.019 1.426-1.9 3.583-3.402 6.512-4.484l-.347-.938c-3.06 1.13-5.395 2.73-6.964 4.822-1.573 2.095-2.347 4.645-2.347 7.62h1Zm8.569-11.48c1.135-.193 2.008-.285 2.631-.285v-1c-.706 0-1.643.103-2.799.3l.168.986Zm-5.994 11.773v2.559h1v-2.559h-1Zm0 2.559c0 2.318.541 4.283 1.659 5.86 1.118 1.578 2.782 2.725 4.949 3.461l.322-.947c-2.013-.683-3.483-1.72-4.455-3.092s-1.475-3.121-1.475-5.282h-1Zm6.591 9.315c.801.306 1.915.443 3.303.443v-1c-1.346 0-2.315-.137-2.946-.377l-.357.934Zm3.303.443h9.414v-1h-9.414v1Zm9.414 0c2.434 0 4.482-.564 6.107-1.73 1.626-1.166 2.783-2.903 3.491-5.164l-.954-.299c-.658 2.101-1.706 3.636-3.12 4.65-1.415 1.016-3.244 1.543-5.524 1.543v1Zm9.606-6.92c.206-.811.308-1.66.308-2.545h-1c0 .808-.093 1.573-.277 2.299l.969.246Zm.308-2.545V12.75h-1v3.71h1Zm0-3.711c0-1.775-.506-3.36-1.523-4.736-1.013-1.37-2.513-2.508-4.466-3.43l-.427.903c1.849.874 3.2 1.92 4.088 3.122.884 1.195 1.328 2.57 1.328 4.141h1Zm-6.073-8.198c-1.038-.28-1.938-.427-2.688-.427v1c.629 0 1.435.126 2.428.393l.26-.966Zm-2.688-.427h-11.7v1h11.7v-1Zm-11.7 0c-1.735 0-3.287.467-4.636 1.408-1.345.938-2.463 2.33-3.369 4.142l.894.447c.852-1.703 1.872-2.949 3.047-3.769 1.17-.816 2.519-1.228 4.064-1.228v-1Zm-8.016 5.572c-.502 1.143-.745 2.45-.745 3.912h1c0-1.35.225-2.517.661-3.51l-.916-.402ZM178.711.973v-.5h-.638l.152.619.486-.12Zm5.996 9.59-.489.106.002.008.002.008.485-.123Zm3.574 14.863h-.5v.5h.5v-.5Zm8.438-9.59-.485-.123-.002.008-.002.008.489.107ZM200.293.973v-.5h-.5v.5h.5Zm3.73 0h.5v-.5h-.5v.5ZM197.305 29v.5h.392l.093-.38-.485-.12Zm-11.875 0-.497.056.05.444h.447V29Zm-6.719-27.527h3.574v-1h-3.574v1Zm3.574 0a.467.467 0 0 1-.284-.096c-.042-.032-.064-.063-.07-.07-.011-.016-.007-.014.01.025.034.072.081.199.144.393.124.384.286.97.487 1.768.401 1.59.95 3.98 1.646 7.176l.978-.213c-.697-3.198-1.249-5.602-1.655-7.208a31.562 31.562 0 0 0-.504-1.83 4.726 4.726 0 0 0-.187-.505 1.167 1.167 0 0 0-.114-.2.648.648 0 0 0-.122-.126.537.537 0 0 0-.329-.114v1Zm1.937 9.213a940.424 940.424 0 0 1 2.68 10.75c.297 1.238.52 2.195.667 2.874.074.34.129.607.165.803a7.8 7.8 0 0 1 .038.232c.009.063.009.085.009.08h1a3.13 3.13 0 0 0-.064-.492c-.038-.212-.096-.491-.171-.835-.15-.69-.374-1.656-.672-2.896a977.03 977.03 0 0 0-2.682-10.763l-.97.246Zm4.059 15.24h6.016v-1h-6.016v1Zm6.016 0c.159 0 .273-.071.328-.114a.627.627 0 0 0 .123-.127c.048-.066.085-.139.114-.2.058-.128.121-.3.187-.505.133-.416.302-1.028.504-1.83.406-1.606.957-4.01 1.654-7.208l-.977-.213c-.696 3.196-1.245 5.587-1.646 7.177a32.495 32.495 0 0 1-.487 1.767 4.01 4.01 0 0 1-.144.394c-.018.039-.022.04-.01.025a.346.346 0 0 1 .07-.07.465.465 0 0 1 .284-.096v1Zm2.906-9.967a1015.35 1015.35 0 0 0 2.683-10.783c.298-1.24.522-2.203.672-2.89.075-.342.132-.619.171-.828.035-.19.064-.369.064-.485h-1c0-.007 0 .012-.009.075a5.88 5.88 0 0 1-.039.228c-.035.194-.09.459-.164.797-.148.676-.37 1.632-.668 2.87-.595 2.474-1.488 6.064-2.679 10.77l.969.246Zm3.09-14.486h3.73v-1h-3.73v1Zm3.23-.5v.136h1V.973h-1Zm0 .136c0-.034.005-.053 0-.02a13.2 13.2 0 0 1-.093.457c-.069.317-.174.776-.313 1.376-.28 1.201-.7 2.963-1.259 5.287a5733.582 5733.582 0 0 1-5.039 20.672l.971.238c2.24-9.134 3.92-16.026 5.04-20.676.56-2.324.98-4.09 1.26-5.294.141-.602.246-1.066.317-1.39a23.152 23.152 0 0 0 .104-.515c.003-.023.012-.08.012-.135h-1ZM197.305 28.5H185.43v1h11.875v-1Zm-11.378.444c-.027-.238-.194-1.011-.481-2.262a628.717 628.717 0 0 0-1.278-5.41A4192.736 4192.736 0 0 0 179.197.852l-.972.239a4140.002 4140.002 0 0 1 4.97 20.412c.56 2.335.985 4.136 1.276 5.402.296 1.287.443 1.985.462 2.15l.994-.112Z" fill="#050505"/></symbol><symbol fill="none" viewBox="0 0 55 54" id="monitor" xmlns="http://www.w3.org/2000/svg"><path d="M14.99 4.5h24.997C47.997 4.5 50 6.503 50 14.49v14.243c0 8.01-2.002 9.99-9.99 9.99H14.99C7.003 38.744 5 36.742 5 28.754V14.49C5 6.503 7.003 4.5 14.99 4.5ZM27.5 38.745V49.5M5 29.25h45M17.375 49.5h20.25" stroke="#fff" stroke-width="2" stroke-linecap="round" stroke-linejoin="round"/></symbol><symbol viewBox="0 0 55 55" fill="none" id="numberingIconFirst" xmlns="http://www.w3.org/2000/svg"><circle cx="13.25" cy="13.25" r="13.25" fill="#03A081"/><circle cx="39.75" cy="13.25" r="12.75" stroke="#03A081"/><circle cx="39.75" cy="39.75" r="12.75" stroke="#03A081"/><circle cx="13.25" cy="39.75" r="12.75" stroke="#03A081"/></symbol><symbol viewBox="0 0 55 55" fill="none" id="numberingIconFourth" xmlns="http://www.w3.org/2000/svg"><circle cx="13.25" cy="13.25" r="13.25" fill="#03A081"/><circle cx="39.75" cy="13.25" r="12.75" fill="#03A081" stroke="#03A081"/><circle cx="39.75" cy="39.75" r="12.75" fill="#03A081" stroke="#03A081"/><circle cx="13.25" cy="39.75" r="12.75" fill="#03A081" stroke="#03A081"/></symbol><symbol viewBox="0 0 55 55" fill="none" id="numberingIconSecond" xmlns="http://www.w3.org/2000/svg"><circle cx="13.25" cy="13.25" r="13.25" fill="#03A081"/><circle cx="39.75" cy="13.25" r="13.25" fill="#03A081"/><circle cx="39.75" cy="39.75" r="12.75" stroke="#03A081"/><circle cx="13.25" cy="39.75" r="12.75" stroke="#03A081"/></symbol><symbol viewBox="0 0 55 55" fill="none" id="numberingIconThird" xmlns="http://www.w3.org/2000/svg"><circle cx="13.25" cy="13.25" r="13.25" fill="#03A081"/><circle cx="39.75" cy="13.25" r="12.75" fill="#03A081" stroke="#03A081"/><circle cx="39.75" cy="39.75" r="12.75" stroke="#03A081"/><circle cx="13.25" cy="39.75" r="12.75" fill="#03A081" stroke="#03A081"/></symbol><symbol fill="none" viewBox="0 0 24 24" id="paperclip" xmlns="http://www.w3.org/2000/svg"><path d="m12.33 12.15-2.47 2.47a3.495 3.495 0 0 0 0 4.95 3.495 3.495 0 0 0 4.95 0l3.89-3.89a7.007 7.007 0 0 0 0-9.9 7.007 7.007 0 0 0-9.9 0l-4.24 4.24c-2.34 2.34-2.34 6.14 0 8.49" stroke="#292D32" stroke-width="1.5" stroke-linecap="round" stroke-linejoin="round"/></symbol><symbol viewBox="0 0 24 25" id="phone" xmlns="http://www.w3.org/2000/svg"><path d="M21.97 18.83c0 .36-.08.73-.25 1.09-.17.36-.39.7-.68 1.02-.49.54-1.03.93-1.64 1.18-.6.25-1.25.38-1.95.38-1.02 0-2.11-.24-3.26-.73s-2.3-1.15-3.44-1.98a28.75 28.75 0 0 1-3.28-2.8 28.414 28.414 0 0 1-2.79-3.27c-.82-1.14-1.48-2.28-1.96-3.41C2.24 9.17 2 8.08 2 7.04c0-.68.12-1.33.36-1.93.24-.61.62-1.17 1.15-1.67.64-.63 1.34-.94 2.08-.94.28 0 .56.06.81.18.26.12.49.3.67.56l2.32 3.27c.18.25.31.48.4.7.09.21.14.42.14.61 0 .24-.07.48-.21.71-.13.23-.32.47-.56.71l-.76.79c-.11.11-.16.24-.16.4 0 .08.01.15.03.23.03.08.06.14.08.2.18.33.49.76.93 1.28.45.52.93 1.05 1.45 1.58.54.53 1.06 1.02 1.59 1.47.52.44.95.74 1.29.92.05.02.11.05.18.08.08.03.16.04.25.04.17 0 .3-.06.41-.17l.76-.75c.25-.25.49-.44.72-.56.23-.14.46-.21.71-.21.19 0 .39.04.61.13.22.09.45.22.7.39l3.31 2.35c.26.18.44.39.55.64.1.25.16.5.16.78Z" stroke="#03A081" stroke-width="1.5" stroke-miterlimit="10"/></symbol><symbol fill="none" viewBox="0 0 32 32" id="profiles" xmlns="http://www.w3.org/2000/svg"><path d="M12.212 14.493a2.412 2.412 0 0 0-.44 0A5.893 5.893 0 0 1 6.08 8.587c0-3.267 2.64-5.92 5.92-5.92a5.924 5.924 0 0 1 5.92 5.92c-.013 3.2-2.533 5.8-5.707 5.906ZM21.88 5.333A4.663 4.663 0 0 1 26.547 10c0 2.52-2 4.573-4.493 4.667a1.51 1.51 0 0 0-.347 0M5.545 19.413c-3.227 2.16-3.227 5.68 0 7.827 3.667 2.453 9.68 2.453 13.347 0 3.226-2.16 3.226-5.68 0-7.827-3.654-2.44-9.667-2.44-13.347 0ZM24.454 26.667c.96-.2 1.867-.587 2.613-1.16 2.08-1.56 2.08-4.134 0-5.694-.733-.56-1.626-.933-2.573-1.146" stroke="#03A081" stroke-width="2" stroke-linecap="round" stroke-linejoin="round"/></symbol><symbol viewBox="0 0 24 24" id="sms" xmlns="http://www.w3.org/2000/svg"><path d="M17 20.5H7c-3 0-5-1.5-5-5v-7c0-3.5 2-5 5-5h10c3 0 5 1.5 5 5v7c0 3.5-2 5-5 5Z" stroke="#03A081" stroke-width="1.5" stroke-miterlimit="10" stroke-linecap="round" stroke-linejoin="round"/><path d="m17 9-3.13 2.5c-1.03.82-2.72.82-3.75 0L7 9" stroke="#03A081" stroke-width="1.5" stroke-miterlimit="10" stroke-linecap="round" stroke-linejoin="round"/></symbol><symbol viewBox="0 0 24 24" id="timer" xmlns="http://www.w3.org/2000/svg"><path d="M20.75 13.25c0 4.83-3.92 8.75-8.75 8.75s-8.75-3.92-8.75-8.75S7.17 4.5 12 4.5s8.75 3.92 8.75 8.75ZM12 8v5M9 2h6"/></symbol><symbol fill="none" viewBox="0 0 24 24" id="trade" xmlns="http://www.w3.org/2000/svg"><path d="M22 8.5a6.5 6.5 0 0 1-7.02 6.48 6.509 6.509 0 0 0-5.96-5.96A6.5 6.5 0 1 1 22 8.5Z" stroke="#050505" stroke-width="1.5" stroke-linecap="round" stroke-linejoin="round"/><path d="M15.001 15.5a6.5 6.5 0 1 1-13 0 6.5 6.5 0 0 1 13 0ZM5.591 2h-2.59c-.55 0-1 .45-1 1v2.59c0 .89 1.08 1.34 1.71.71l2.59-2.59c.62-.63.18-1.71-.71-1.71ZM18.41 22H21c.55 0 1-.45 1-1v-2.59c0-.89-1.08-1.34-1.71-.71l-2.59 2.59c-.62.63-.18 1.71.71 1.71Z" stroke="#050505" stroke-width="1.5" stroke-linecap="round" stroke-linejoin="round"/></symbol></svg>