<svg width="193" height="23" viewBox="0 0 193 23" fill="none" xmlns="http://www.w3.org/2000/svg">
<g clip-path="url(#clip0_2302_1558)">
<path d="M12.2505 0.158167C12.2204 0.256176 11.949 0.964848 11.6474 1.73383C11.1574 2.98532 8.54133 9.67246 7.0109 13.5928L6.42285 15.078L6.62641 15.2212C6.96566 15.4625 7.70449 15.8017 8.3227 16.0128C11.3383 17.023 15.8391 16.8044 20.8074 15.4097C21.3276 15.2664 21.7875 15.1006 21.8402 15.0554C21.9533 14.9423 22.1343 14.2713 22.0739 14.2034C22.0438 14.1808 21.7045 14.2638 21.32 14.3919C19.0583 15.1383 16.3669 15.5303 13.5096 15.5303C11.7831 15.5303 10.705 15.4097 9.80035 15.1081C9.18215 14.897 8.60918 14.5955 8.54887 14.4372C8.52625 14.3844 9.54402 11.6854 10.803 8.43606C13.8488 0.610512 13.9468 0.354183 13.9468 0.293871C13.9468 0.226019 13.3588 0.105394 12.7255 0.0300026C12.3259 -0.0152302 12.3033 -0.00769234 12.2505 0.158167Z" fill="#777777"/>
<path d="M8.00601 0.640709C2.71359 2.37469 -0.482973 7.84805 0.610191 13.2837C1.02484 15.372 2.02 17.1814 3.61074 18.7797C5.26179 20.4232 7.05609 21.4259 9.31027 21.9461C10.3054 22.1723 12.2354 22.225 13.2834 22.0516C16.3518 21.5465 19.1186 19.7221 20.8903 17.0457C21.1768 16.616 21.4105 16.2315 21.4105 16.1938C21.4105 16.0958 21.3049 16.1184 20.7546 16.322C20.0459 16.5934 18.3798 17.0608 17.3394 17.287C15.2511 17.7468 13.5849 17.9052 11.4363 17.8448C9.33289 17.7921 7.85523 17.5433 6.31726 16.9929C5.25425 16.6084 3.54289 15.6434 3.54289 15.4248C3.54289 15.3796 3.95 14.2186 4.45511 12.854C4.95269 11.4819 5.76691 9.2654 6.25695 7.9159C6.74699 6.56641 7.54613 4.38008 8.03617 3.05321C8.51867 1.72633 8.93332 0.580397 8.95593 0.505007C9.00117 0.331608 8.9107 0.339146 8.00601 0.640709Z" fill="#777777"/>
<path d="M16.6378 1.4852C16.6076 1.53798 11.7902 13.51 11.6017 14.0076C11.5414 14.1584 11.564 14.1961 11.7977 14.2941C12.725 14.6786 15.0244 14.7841 16.8489 14.5202C18.5075 14.279 21.8699 13.51 22.3298 13.2612C22.4805 13.1783 22.5258 12.5902 22.3825 12.5902C22.3448 12.5902 21.9076 12.6882 21.4251 12.8089C20.3244 13.0878 18.8618 13.3743 17.6782 13.5402C16.2834 13.7362 13.7805 13.7136 13.4337 13.5025C13.3658 13.4648 13.4186 13.2688 13.6523 12.7335C13.8257 12.3415 14.9113 9.8234 16.0723 7.12442L18.1757 2.22403L17.9646 2.05817C17.6782 1.82446 16.9318 1.43243 16.7886 1.43243C16.7207 1.43243 16.6529 1.45505 16.6378 1.4852Z" fill="#777777"/>
<path d="M19.6543 6.1969C19.2999 7.07897 18.5611 8.87326 18.0258 10.1775C17.4906 11.4818 17.0759 12.5825 17.0985 12.6202C17.1212 12.6579 17.7318 12.6654 18.5008 12.6428C20.0011 12.5976 20.9585 12.4317 21.8934 12.0774L22.4287 11.8738L22.4513 11.0445C22.489 9.5744 22.2025 8.14198 21.5918 6.70955C21.2375 5.90287 20.5288 4.66647 20.3931 4.62123C20.3479 4.60616 20.0162 5.31483 19.6543 6.1969Z" fill="#777777"/>
<path d="M32.1162 7.08682V11.8364H38.7883H45.4604V7.08682V2.33721H44.1787H42.8971V5.88057V9.42393H41.4646H40.0322V5.88057V2.33721H38.7129H37.3936V5.88057V9.42393H36.0365H34.6795V5.88057V2.33721H33.3979H32.1162V7.08682Z" fill="#777777"/>
<path d="M48.6492 2.48041C47.8877 2.74428 47.2771 3.27955 46.9378 3.98823L46.7041 4.4858V7.04909V9.61237L46.9077 10.0044C47.2092 10.5698 47.5108 10.8865 48.1214 11.2634C49.0638 11.8515 48.9206 11.8364 54.7257 11.8364H59.8598V10.5547V9.27311H54.4693H49.0789V8.78307V8.29303L54.5296 8.27795L59.9729 8.25534V7.08678V5.91823L54.5296 5.89561L49.0789 5.88053V5.39049V4.90045L54.5296 4.88538L59.9729 4.86276V3.61881V2.37487L54.507 2.35979C49.4106 2.34471 49.0111 2.35225 48.6492 2.48041Z" fill="#777777"/>
<path d="M61.0664 7.08682V11.8364H62.348H63.6297V10.0647V8.30061L68.0627 8.27799L72.4881 8.25537L73.0686 7.97643C73.8074 7.62209 74.3352 7.10943 74.6593 6.42338C74.8704 5.97857 74.893 5.84287 74.9006 5.23975C74.9006 4.62908 74.878 4.516 74.6593 4.07119C74.3201 3.37006 74.0788 3.14389 73.2345 2.73678L72.4881 2.3749L66.781 2.35228L61.0664 2.33721V7.08682ZM72.375 5.39053V5.88057H68.0023H63.6297V5.39053V4.90049H68.0023H72.375V5.39053Z" fill="#777777"/>
<path d="M78.3679 2.40506C77.8628 2.52568 76.9732 3.13635 76.6792 3.56607C76.5585 3.74701 76.3851 4.10889 76.2947 4.37275C76.1439 4.81756 76.1363 4.96834 76.159 7.19236L76.1816 9.53701L76.3851 9.96674C76.6415 10.5096 77.1013 10.9845 77.7195 11.3388C78.579 11.8364 78.5413 11.8364 84.3087 11.8364H89.488V10.5548V9.27314H84.0222H78.5564V8.78311V8.29307H84.0222H89.488V7.08682V5.88057H84.0222H78.5564V5.39053V4.90049H84.0222H89.488V3.61885V2.33721L84.0448 2.34475C81.0443 2.35228 78.4961 2.3749 78.3679 2.40506Z" fill="#777777"/>
<path d="M92.3154 2.40497C92.1495 2.43513 91.9233 2.51052 91.8178 2.57083C91.5162 2.72915 90.9432 3.40767 90.7472 3.82231C90.5814 4.17665 90.5814 4.23696 90.5587 7.9311L90.5361 11.6856H91.7801H93.0316L93.0466 8.50407L93.0693 5.32259L93.9966 7.32798C94.5017 8.42868 94.9842 9.49923 95.0746 9.70278C95.4516 10.5999 95.8964 11.188 96.5071 11.5951C97.0197 11.9419 97.4193 12.0324 98.0601 11.957C98.5652 11.8966 98.7914 11.7836 99.1533 11.4066C99.485 11.0598 99.5604 10.9166 101.031 7.59185L102.192 4.96825L102.214 8.32313L102.229 11.6856H103.435H104.642V8.17235C104.642 4.84763 104.634 4.62899 104.491 4.15403C104.204 3.21919 103.85 2.82716 102.908 2.40497C102.614 2.27681 101.717 2.35974 101.325 2.56329C100.337 3.06087 100.148 3.36997 98.8291 6.64192C98.2411 8.11204 97.7359 9.33337 97.7058 9.37106C97.6832 9.40122 97.1931 8.26282 96.6277 6.84548C95.9944 5.25474 95.4818 4.10126 95.3084 3.84493C94.5318 2.69899 94.1624 2.43513 93.205 2.38235C92.8808 2.35974 92.4812 2.37481 92.3154 2.40497Z" fill="#777777"/>
<path d="M107.929 2.46537C107.431 2.61615 107.009 2.91018 106.497 3.48314C105.833 4.20689 105.811 4.33506 105.811 7.04912C105.811 9.84611 105.811 9.85365 106.678 10.7282C107.273 11.3238 107.643 11.5349 108.374 11.7309C108.668 11.8138 109.851 11.8364 113.9 11.8364H119.042V10.5548V9.27314H113.613H108.185V8.78311V8.29307H113.613H119.042V7.08682V5.88057H113.613H108.185V5.39053V4.90049H113.613H119.042V3.61885V2.33721L113.674 2.34475C109.09 2.34475 108.246 2.36736 107.929 2.46537Z" fill="#777777"/>
<path d="M120.323 3.61875V4.90039H123.075H125.827V8.29297V11.6855H127.033H128.239V8.29297V4.90039H130.991H133.743V3.61875V2.33711H127.033H120.323V3.61875Z" fill="#777777"/>
<path d="M134.874 7.01133V11.6855L140.664 11.6705L146.446 11.6479L146.861 11.4443C147.404 11.1804 148.354 10.3059 148.527 9.91387C148.633 9.69523 148.671 9.42383 148.671 8.90363C148.671 8.26281 148.648 8.14219 148.444 7.73508C148.324 7.47875 148.007 7.04902 147.751 6.76254C147.336 6.31773 147.208 6.2348 146.733 6.06895L146.183 5.88047H141.81H137.437V4.10879V2.33711H136.156H134.874V7.01133ZM146.258 8.8584V9.42383H141.923H137.588V8.8584V8.29297H141.923H146.258V8.8584Z" fill="#777777"/>
<path d="M152.018 2.55567C151.686 2.66876 151.287 2.84216 151.128 2.93262C150.706 3.19649 150.352 3.71669 150.141 4.38766C149.96 4.96063 149.952 5.0511 149.952 7.10173C149.952 8.78294 149.975 9.31067 150.073 9.67255C150.201 10.1852 150.616 10.8562 150.917 11.0748C151.369 11.3915 152.35 11.8438 152.742 11.9116C153.005 11.9569 155.033 11.9795 158.132 11.972L163.108 11.9493L163.13 10.6828L163.146 9.42376H157.755H152.365V8.85833V8.2929L157.74 8.27782L163.108 8.2552L163.13 7.06403L163.153 5.8804H157.755H152.365V5.39036V4.90032H157.755H163.146V3.61868V2.33704H157.891L152.629 2.34458L152.018 2.55567Z" fill="#777777"/>
<path d="M164.352 7.08682V11.8364H169.81C175.065 11.8364 175.283 11.8289 175.758 11.6856C176.376 11.4972 177.093 11.0147 177.432 10.5774C177.756 10.1477 178.02 9.35607 178.02 8.80572C178.02 8.46646 177.96 8.25537 177.711 7.73518L177.402 7.09436L177.56 6.69479C177.944 5.70717 177.982 5.32268 177.809 4.48584C177.703 4.00334 177.658 3.92795 177.228 3.48314C176.557 2.80463 176.437 2.73678 175.615 2.52568L174.869 2.33721H169.614H164.352V7.08682ZM175.359 5.31514V5.72978H171.137H166.915V5.31514V4.90049H171.137H175.359V5.31514ZM175.359 8.78311V9.27314H171.137H166.915V8.78311V8.29307H171.137H175.359V8.78311Z" fill="#777777"/>
<path d="M181.51 2.53312C180.779 2.73668 180.553 2.87992 179.867 3.59613C179.58 3.8977 179.414 4.15402 179.354 4.36512C179.301 4.57621 179.279 5.45828 179.294 7.07164L179.316 9.46152L179.527 9.91387C180.055 11.0296 180.025 10.9995 181.035 11.4141L181.691 11.6855H185.958H190.225L190.859 11.4141C191.718 11.0447 192.118 10.6753 192.381 9.98926L192.585 9.46152V7.08672C192.585 5.02102 192.57 4.68176 192.464 4.48574C192.389 4.35758 192.231 4.04094 192.103 3.76953C191.906 3.35488 191.801 3.23426 191.394 2.95531C190.474 2.32957 190.504 2.33711 186.079 2.34465C182.189 2.35219 182.181 2.35219 181.51 2.53312ZM190.059 7.16211V9.42383H185.951H181.842V7.16211V4.90039H185.951H190.059V7.16211Z" fill="#777777"/>
<path d="M124.673 13.088C124.643 13.1181 124.62 13.3744 124.62 13.6609V14.1736H126.505H128.397L128.375 13.6232L128.352 13.0804L126.535 13.0578C125.54 13.0503 124.703 13.0653 124.673 13.088Z" fill="#777777"/>
<path d="M41.1708 14.9199C39.7534 15.5984 39.8213 15.4853 39.8665 17.272C39.8967 18.4632 39.9193 18.6818 40.0475 18.9005C40.1304 19.0362 40.2435 19.1493 40.2963 19.1493C40.349 19.1493 40.4093 19.202 40.432 19.2624C40.4621 19.3227 40.6129 19.4358 40.7788 19.5262C41.0652 19.6695 41.2085 19.677 43.7642 19.677H46.4406V18.9985V18.32H43.7642H41.0879V18.0938V17.8676H43.7642H46.4406V17.2268V16.586H43.7642H41.0879V16.3598V16.1336H43.7642H46.4406V15.4551V14.7766L43.9376 14.7842C41.7965 14.7992 41.3894 14.8143 41.1708 14.9199Z" fill="#777777"/>
<path d="M46.9678 14.9726C46.9678 15.0028 47.3146 15.4099 47.7443 15.8849C48.1665 16.3598 48.6188 16.88 48.7545 17.0308L48.9958 17.3173L47.9855 18.4632C47.4277 19.0965 46.9678 19.6242 46.9678 19.6468C46.9678 19.6619 47.3372 19.677 47.782 19.677H48.5962L49.4104 18.7723C49.8552 18.2747 50.2548 17.8676 50.2925 17.8676C50.3302 17.8676 50.3604 18.2747 50.3604 18.7723V19.677H51.0389H51.7098L51.7325 18.7497C51.7551 17.8902 51.7626 17.845 51.8606 18.0561C51.9209 18.1767 52.2753 18.5989 52.6522 18.9759L53.3383 19.677H54.1148H54.8913L54.0093 18.6743C53.5192 18.1315 53.0744 17.6264 53.0216 17.5585C52.9387 17.453 53.0518 17.2871 53.9489 16.2769L54.9743 15.1159L54.16 15.0933L53.3383 15.0706L52.4562 15.9678L51.5666 16.8649V15.9678V15.0782H50.8881H50.2096V15.9527C50.2096 16.7292 50.1945 16.8122 50.0965 16.7066C50.0362 16.6463 49.9834 16.5408 49.9834 16.4804C49.9834 16.4126 49.9532 16.3598 49.9231 16.3598C49.8929 16.3598 49.5989 16.0356 49.2823 15.6436L48.6942 14.9274H47.8348C47.3598 14.9274 46.9678 14.95 46.9678 14.9726Z" fill="#777777"/>
<path d="M127.908 15.0707C127.757 15.1537 127.162 15.704 126.589 16.2996C126.023 16.8952 125.314 17.634 125.013 17.9431L124.47 18.5085V16.7896V15.0783H123.829H123.188V16.8801C123.188 18.2598 123.211 18.7498 123.302 18.991C123.415 19.3228 123.716 19.6469 124.003 19.76C124.251 19.858 124.802 19.843 125.051 19.7374C125.164 19.6922 126.001 18.9157 126.905 18.026L128.541 16.3976V18.1165V19.8279H129.182H129.83L129.808 17.7622C129.785 15.7794 129.778 15.6889 129.627 15.5155C129.536 15.4175 129.446 15.2818 129.423 15.2064C129.393 15.131 129.295 15.0783 129.19 15.0783C129.084 15.0783 128.978 15.0406 128.956 15.0029C128.873 14.8747 128.217 14.92 127.908 15.0707Z" fill="#777777"/>
<path d="M32.8697 15.2139C32.7189 15.2817 32.538 15.4702 32.44 15.6436C32.2741 15.9376 32.2666 16.013 32.2666 17.8827V19.8278H32.8697H33.4729L33.4879 18.2069L33.5105 16.5935L34.0609 17.8148C34.3549 18.4934 34.6037 19.0814 34.6037 19.1266C34.6037 19.2623 35.2747 19.8956 35.4782 19.9484C36.1718 20.1218 36.6694 19.6318 37.5138 17.9053L38.1395 16.6237V18.2219L38.1471 19.8278H38.6371H39.1347L39.1045 17.9204C39.0895 16.88 39.0442 15.8999 39.0065 15.7567C38.9085 15.4174 38.4411 15.0857 38.0491 15.0782C37.363 15.0782 37.069 15.44 36.3 17.2494C35.9758 18.0033 35.7044 18.614 35.6893 18.6064C35.6366 18.5386 34.6791 16.1035 34.6791 16.0205C34.6791 15.9678 34.5886 15.7868 34.4831 15.6134C34.1589 15.1234 33.4125 14.9349 32.8697 15.2139Z" fill="#777777"/>
<path d="M63.5537 16.1487V17.2117L63.8628 17.4982C64.3905 17.9883 64.579 18.0184 67.0368 18.0184H69.208V18.2446V18.4708H66.5316H63.8553V19.0739V19.677H66.705H69.5623L69.9091 19.3528C70.452 18.8477 70.452 18.8628 70.4746 16.8649L70.5047 15.0782H69.781H69.0572V15.9075V16.7368H66.8709H64.6846V15.9075V15.0782H64.1191H63.5537V16.1487Z" fill="#777777"/>
<path d="M70.9424 17.3776V19.677H71.5455H72.1486V18.8477V18.0184H74.2973H76.4459V18.8477V19.677H77.1244H77.8029V17.3776V15.0782H77.1244H76.4459V15.9075V16.7368H74.2973H72.1486V15.9075V15.0782H71.5455H70.9424V17.3776Z" fill="#777777"/>
<path d="M80.8186 15.1988C80.5321 15.3873 80.0119 16.2317 79.0846 18.0335L78.2402 19.677H78.9489H79.65L79.9516 19.1116L80.2532 18.5461H81.4293H82.6054L82.8994 19.089L83.1934 19.6393L83.8945 19.6619C84.2715 19.6695 84.5881 19.6619 84.5881 19.6393C84.5881 19.6167 84.2036 18.8628 83.7362 17.9581C83.2613 17.0609 82.7712 16.1035 82.6355 15.8321C82.4772 15.5079 82.3189 15.2968 82.1681 15.2063C81.8665 15.0405 81.0825 15.0329 80.8186 15.1988ZM81.678 16.9026L81.8891 17.2645H81.4293H80.9694L81.0825 17.076C81.1428 16.9705 81.2483 16.7971 81.3162 16.6915C81.3765 16.586 81.4443 16.5106 81.4519 16.5257C81.467 16.5332 81.565 16.7066 81.678 16.9026Z" fill="#777777"/>
<path d="M85.3418 17.4531V19.8279H85.9449H86.548V19.0061V18.1844L88.8324 18.1542L91.1092 18.1316L91.4635 17.928C91.8631 17.6868 92.2023 17.1138 92.2023 16.6539C92.2023 16.3373 91.9083 15.6286 91.6972 15.4401C91.3127 15.0933 91.1544 15.0783 88.1689 15.0783H85.3418V17.4531ZM90.9961 16.5861V16.8876H88.8475H86.6988V16.5861V16.2845H88.8475H90.9961V16.5861Z" fill="#777777"/>
<path d="M93.7862 15.2742C93.5978 15.3647 93.349 15.5456 93.2208 15.6813L92.9946 15.915L92.972 17.3022C92.9419 18.8552 92.972 18.9834 93.4771 19.4282L93.7485 19.6695L96.2213 19.677H98.6866L98.9957 19.481C99.4631 19.187 99.5159 18.9834 99.5159 17.5133C99.5159 16.2769 99.5084 16.2392 99.3048 15.8698C99.1917 15.6662 98.9656 15.4024 98.7997 15.2893L98.4981 15.0857L96.3118 15.0933C94.1933 15.1008 94.1179 15.1008 93.7862 15.2742ZM98.3097 17.453V18.6215H96.2364H94.1632V17.453V16.2844H96.2364H98.3097V17.453Z" fill="#777777"/>
<path d="M107.997 17.3776V19.677H108.698H109.392V18.8477V18.0184H111.503H113.614V18.8477V19.677H114.254H114.895V17.3776V15.0782H114.254H113.614V15.9075V16.7368H111.503H109.392V15.9075V15.0782H108.698H107.997V17.3776Z" fill="#777777"/>
<path d="M115.348 17.3776V19.677H117.481C119.577 19.677 119.63 19.6695 119.954 19.5036C120.444 19.2473 120.625 18.8854 120.625 18.1541C120.625 17.4454 120.497 17.174 120.022 16.9403C119.713 16.7895 119.554 16.7745 118.122 16.7518L116.554 16.7292V15.8999V15.0782H115.951H115.348V17.3776ZM119.494 18.32V18.6215H118.099H116.705V18.32V18.0184H118.099H119.494V18.32Z" fill="#777777"/>
<path d="M121.379 17.3776V19.677H121.982H122.585V17.3776V15.0782H121.982H121.379V17.3776Z" fill="#777777"/>
<path d="M136.781 15.4099C136.622 15.5908 136.441 15.8321 136.381 15.9527C136.321 16.0733 135.891 16.8499 135.431 17.6792C134.971 18.5084 134.541 19.3 134.466 19.4282L134.338 19.677H135.099H135.861L136.117 19.1116L136.373 18.5461H137.527H138.68L138.982 19.089L139.284 19.6393L139.985 19.6619C140.362 19.6695 140.678 19.6619 140.678 19.6393C140.678 19.6092 140.55 19.3453 140.384 19.0513C140.075 18.4708 138.929 16.194 138.726 15.7567C138.658 15.6134 138.507 15.4024 138.379 15.2817C138.183 15.1008 138.1 15.0782 137.617 15.0782H137.075L136.781 15.4099ZM137.851 16.8348C137.957 17.0157 138.04 17.1891 138.04 17.2117C138.04 17.2419 137.851 17.2645 137.617 17.2645H137.203L137.414 16.8875C137.527 16.684 137.632 16.5106 137.64 16.5106C137.648 16.5106 137.746 16.6614 137.851 16.8348Z" fill="#777777"/>
<path d="M141.433 15.7566V16.4352H144.109H146.785V16.6613V16.8875H144.109H141.433V17.5283V18.1691H144.109H146.785V18.3953V18.6215H144.109H141.433V19.3V19.9785H144.071C146.929 19.9785 146.959 19.9785 147.509 19.5563C147.652 19.4432 147.856 19.1869 147.961 18.9909C148.135 18.6441 148.142 18.5536 148.142 17.3097V15.9904L147.901 15.7114C147.765 15.5531 147.486 15.3495 147.275 15.2591C146.906 15.0781 146.868 15.0781 144.169 15.0781H141.433V15.7566Z" fill="#777777"/>
<path d="M148.595 17.4531V19.8279H149.236H149.876V19.0061V18.1768L152.123 18.1542C154.596 18.1316 154.588 18.1316 155.139 17.6114C155.493 17.2797 155.606 17.0233 155.606 16.571C155.606 15.998 155.282 15.508 154.754 15.2592L154.362 15.0783H151.482H148.595V17.4531ZM154.249 16.5861V16.8876H152.138H150.027V16.5861V16.2845H152.138H154.249V16.5861Z" fill="#777777"/>
<path d="M157.152 15.2591C156.322 15.6511 156.187 16.0055 156.224 17.6038C156.255 18.8929 156.307 19.0663 156.827 19.4433L157.144 19.677H159.542C161.788 19.677 161.962 19.6695 162.241 19.5262C162.806 19.2397 162.844 19.1267 162.844 17.5284C162.844 16.013 162.821 15.8849 162.414 15.523C161.909 15.0706 161.977 15.0782 159.662 15.0782C157.581 15.0857 157.521 15.0857 157.152 15.2591ZM161.562 17.453V18.6215H159.526H157.491V17.453V16.2844H159.526H161.562V17.453Z" fill="#777777"/>
<path d="M163.446 17.4531V19.8279H164.049H164.653V18.0562V16.2845H166.801H168.95V18.0562V19.8279H169.553H170.156V17.4531V15.0783H166.801H163.446V17.4531Z" fill="#777777"/>
<path d="M171.762 15.2591C171.008 15.6436 170.91 15.8999 170.91 17.4681C170.91 18.7723 170.963 18.9759 171.43 19.3981L171.739 19.677H174.212C176.625 19.677 176.685 19.6695 176.972 19.5036C177.424 19.2397 177.545 18.8326 177.545 17.5133C177.545 16.307 177.462 15.9753 177.062 15.5456C176.625 15.0782 176.632 15.0782 174.25 15.0857C172.199 15.1008 172.064 15.1083 171.762 15.2591ZM176.263 17.453V18.6215H174.19H172.116V17.453V16.2844H174.19H176.263V17.453Z" fill="#777777"/>
<path d="M178.087 17.4302L178.11 19.79L178.736 19.8126L179.354 19.8352V19.0059V18.1766L181.601 18.154C184.111 18.1314 184.066 18.1389 184.684 17.5433C185.046 17.189 185.212 16.7065 185.091 16.3145C184.955 15.8395 184.639 15.455 184.232 15.259L183.84 15.0781H180.952H178.072L178.087 17.4302ZM183.727 16.5859V16.8874H181.54H179.354V16.5859V16.2843H181.54H183.727V16.5859Z" fill="#777777"/>
<path d="M185.611 15.6813V16.2844H186.968H188.325V17.9807V19.677H188.966H189.607V17.9807V16.2844H190.964H192.321V15.6813V15.0782H188.966H185.611V15.6813Z" fill="#777777"/>
<path d="M56.8215 15.2742C56.6255 15.3345 56.4446 15.4325 56.4144 15.4928C56.3918 15.5531 56.3315 15.6059 56.2787 15.6059C56.2259 15.6059 56.1129 15.7265 56.0224 15.8773C55.8791 16.1186 55.8641 16.2618 55.8641 17.3097C55.8641 18.418 55.8565 18.4708 55.7133 18.4708C55.5776 18.4708 55.5625 18.5235 55.5625 19.0739V19.677H59.2566H62.9508V19.0739V18.4708H62.7321H62.5135L62.4834 17.3173C62.4381 15.8622 62.4004 15.7718 61.5184 15.327C61.2846 15.2063 60.9982 15.1913 59.2189 15.1762C57.5905 15.1611 57.108 15.1837 56.8215 15.2742ZM61.2168 17.3776V18.4708H59.0682H56.9195V17.3776V16.2844H59.0682H61.2168V17.3776Z" fill="#777777"/>
<path d="M101.558 15.229C101.422 15.2591 101.211 15.3571 101.091 15.4476C100.978 15.5381 100.849 15.6059 100.819 15.6059C100.789 15.6059 100.684 15.7265 100.593 15.8698C100.435 16.111 100.42 16.2166 100.42 17.3022C100.42 18.418 100.412 18.4708 100.269 18.4708C100.133 18.4708 100.118 18.5235 100.118 19.0739V19.677H103.812H107.506V19.0739V18.4708H107.288H107.069L107.039 17.3173C107.001 15.8773 106.941 15.7115 106.27 15.4024L105.81 15.1913L103.812 15.1762C102.712 15.1686 101.701 15.1913 101.558 15.229ZM105.772 17.3776V18.4708H103.699H101.626V17.3776V16.2844H103.699H105.772V17.3776Z" fill="#777777"/>
</g>
<defs>
<clipPath id="clip0_2302_1558">
<rect width="193" height="22.1648" fill="white"/>
</clipPath>
</defs>
</svg>
