<svg width="320" height="270" viewBox="0 0 320 270" fill="none" xmlns="http://www.w3.org/2000/svg">
<mask id="path-1-inside-1_578_13246" fill="white">
<path fill-rule="evenodd" clip-rule="evenodd" d="M320 63.3174C320 59.4665 315.756 56.9798 312.085 58.1419C308.272 59.3489 304.212 60 300 60C277.909 60 260 42.0914 260 20C260 15.7878 260.651 11.7278 261.858 7.91487C263.02 4.24355 260.533 0 256.683 0H30C13.4315 0 0 13.4315 0 30V240C0 256.569 13.4315 270 30 270H290C306.569 270 320 256.569 320 240V63.3174Z"/>
</mask>
<path fill-rule="evenodd" clip-rule="evenodd" d="M320 63.3174C320 59.4665 315.756 56.9798 312.085 58.1419C308.272 59.3489 304.212 60 300 60C277.909 60 260 42.0914 260 20C260 15.7878 260.651 11.7278 261.858 7.91487C263.02 4.24355 260.533 0 256.683 0H30C13.4315 0 0 13.4315 0 30V240C0 256.569 13.4315 270 30 270H290C306.569 270 320 256.569 320 240V63.3174Z" fill="white" fill-opacity="0.5"/>
<path d="M261.858 7.91487L263.765 8.51846L261.858 7.91487ZM312.085 58.1419L312.689 60.0487L312.085 58.1419ZM311.482 56.2352C307.862 57.3811 304.005 58 300 58V62C304.419 62 308.683 61.3168 312.689 60.0487L311.482 56.2352ZM300 58C279.013 58 262 40.9868 262 20H258C258 43.196 276.804 62 300 62V58ZM262 20C262 15.995 262.619 12.1384 263.765 8.51846L259.951 7.31128C258.683 11.3171 258 15.5807 258 20H262ZM30 2H256.683V-2H30V2ZM2 30C2 14.536 14.536 2 30 2V-2C12.3269 -2 -2 12.3269 -2 30H2ZM2 240V30H-2V240H2ZM30 268C14.536 268 2 255.464 2 240H-2C-2 257.673 12.3269 272 30 272V268ZM290 268H30V272H290V268ZM318 240C318 255.464 305.464 268 290 268V272C307.673 272 322 257.673 322 240H318ZM318 63.3174V240H322V63.3174H318ZM263.765 8.51846C264.535 6.08508 264.093 3.49868 262.842 1.51438C261.581 -0.486843 259.405 -2 256.683 -2V2C257.811 2 258.804 2.60862 259.458 3.647C260.123 4.70231 260.343 6.07334 259.951 7.31128L263.765 8.51846ZM312.689 60.0487C313.927 59.6568 315.298 59.8768 316.353 60.5418C317.391 61.1962 318 62.189 318 63.3174H322C322 60.5949 320.487 58.4189 318.486 57.1577C316.501 55.9072 313.915 55.4649 311.482 56.2352L312.689 60.0487Z" fill="white" mask="url(#path-1-inside-1_578_13246)"/>
</svg>
