<svg width="345" height="123" viewBox="0 0 345 123" fill="none" xmlns="http://www.w3.org/2000/svg">
<mask id="path-1-inside-1_578_13942" fill="white">
<path fill-rule="evenodd" clip-rule="evenodd" d="M345 36.2604C345 34.8185 343.513 33.8418 342.131 34.2524C339.871 34.9237 337.478 35.2842 335 35.2842C321.193 35.2842 310 24.0913 310 10.2842C310 7.80642 310.36 5.41285 311.032 3.15305C311.442 1.77087 310.466 0.28418 309.024 0.28418H20C8.95431 0.28418 0 9.23848 0 20.2842V102.284C0 113.33 8.9543 122.284 20 122.284H325C336.046 122.284 345 113.33 345 102.284V36.2604Z"/>
</mask>
<path fill-rule="evenodd" clip-rule="evenodd" d="M345 36.2604C345 34.8185 343.513 33.8418 342.131 34.2524C339.871 34.9237 337.478 35.2842 335 35.2842C321.193 35.2842 310 24.0913 310 10.2842C310 7.80642 310.36 5.41285 311.032 3.15305C311.442 1.77087 310.466 0.28418 309.024 0.28418H20C8.95431 0.28418 0 9.23848 0 20.2842V102.284C0 113.33 8.9543 122.284 20 122.284H325C336.046 122.284 345 113.33 345 102.284V36.2604Z" fill="white" fill-opacity="0.5"/>
<path d="M311.032 3.15305L311.99 3.43783L311.032 3.15305ZM342.131 34.2524L341.846 33.2938L342.131 34.2524ZM341.846 33.2938C339.678 33.938 337.38 34.2842 335 34.2842V36.2842C337.575 36.2842 340.065 35.9095 342.416 35.211L341.846 33.2938ZM335 34.2842C321.745 34.2842 311 23.539 311 10.2842H309C309 24.6436 320.641 36.2842 335 36.2842V34.2842ZM311 10.2842C311 7.90387 311.346 5.60618 311.99 3.43783L310.073 2.86827C309.375 5.21953 309 7.70898 309 10.2842H311ZM20 1.28418H309.024V-0.71582H20V1.28418ZM1 20.2842C1 9.79077 9.50659 1.28418 20 1.28418V-0.71582C8.40202 -0.71582 -1 8.6862 -1 20.2842H1ZM1 102.284V20.2842H-1V102.284H1ZM20 121.284C9.50659 121.284 1 112.778 1 102.284H-1C-1 113.882 8.40202 123.284 20 123.284V121.284ZM325 121.284H20V123.284H325V121.284ZM344 102.284C344 112.778 335.493 121.284 325 121.284V123.284C336.598 123.284 346 113.882 346 102.284H344ZM344 36.2604V102.284H346V36.2604H344ZM311.99 3.43783C312.566 1.50189 311.223 -0.71582 309.024 -0.71582V1.28418C309.709 1.28418 310.319 2.03986 310.073 2.86827L311.99 3.43783ZM342.416 35.211C343.244 34.9649 344 35.5756 344 36.2604H346C346 34.0614 343.782 32.7187 341.846 33.2938L342.416 35.211Z" fill="white" mask="url(#path-1-inside-1_578_13942)"/>
</svg>
