<svg width="180" height="180" viewBox="0 0 180 180" fill="none" xmlns="http://www.w3.org/2000/svg">
<path d="M86.0041 5.31262C88.0043 2.65327 91.9957 2.65327 93.9959 5.31262L96.6385 8.82601C98.3333 11.0794 101.555 11.4864 103.757 9.72532L107.191 6.9795C109.789 4.90113 113.655 5.89373 114.931 8.96697L116.617 13.0272C117.698 15.6313 120.718 16.8267 123.289 15.6686L127.297 13.8629C130.331 12.4961 133.828 14.4189 134.3 17.7129L134.923 22.0648C135.323 24.856 137.95 26.7648 140.728 26.2824L145.06 25.5302C148.338 24.9609 151.248 27.6931 150.885 31.0009L150.407 35.3711C150.1 38.1739 152.17 40.6762 154.98 40.8998L159.363 41.2484C162.68 41.5123 164.819 44.8823 163.645 47.9961L162.095 52.1098C161.1 54.7483 162.483 57.6867 165.15 58.6023L169.308 60.0299C172.455 61.1104 173.688 64.9064 171.777 67.6305L169.252 71.2294C167.633 73.5377 168.242 76.7276 170.597 78.2777L174.269 80.6944C177.049 82.5237 177.3 86.5072 174.771 88.6704L171.431 91.5284C169.288 93.3614 169.084 96.6025 170.98 98.6896L173.936 101.944C176.174 104.407 175.426 108.327 172.439 109.794L168.492 111.731C165.961 112.974 164.958 116.063 166.275 118.556L168.329 122.443C169.883 125.385 168.184 128.996 164.926 129.674L160.622 130.569C157.861 131.143 156.121 133.885 156.777 136.627L157.8 140.903C158.574 144.139 156.03 147.215 152.706 147.061L148.314 146.857C145.497 146.727 143.13 148.95 143.083 151.769L143.011 156.165C142.956 159.492 139.727 161.838 136.545 160.862L132.342 159.573C129.647 158.746 126.801 160.311 126.054 163.03L124.891 167.269C124.01 170.478 120.299 171.948 117.46 170.211L113.71 167.917C111.304 166.446 108.159 167.254 106.76 169.702L104.579 173.519C102.927 176.408 98.9675 176.908 96.6498 174.52L93.5877 171.366C91.6237 169.343 88.3763 169.343 86.4123 171.366L83.3502 174.52C81.0325 176.908 77.0726 176.408 75.4215 173.519L73.2401 169.702C71.841 167.254 68.6955 166.446 66.2902 167.917L62.5398 170.211C59.701 171.948 55.99 170.478 55.1092 167.269L53.9456 163.03C53.1992 160.311 50.3535 158.746 47.6578 159.573L43.4547 160.862C40.2734 161.838 37.0444 159.492 36.9893 156.165L36.9165 151.769C36.8698 148.95 34.5025 146.727 31.6859 146.857L27.2943 147.061C23.9703 147.215 21.4261 144.139 22.2002 140.903L23.2229 136.627C23.8788 133.885 22.1387 131.143 19.3781 130.569L15.0739 129.674C11.816 128.996 10.1166 125.385 11.6712 122.443L13.7251 118.556C15.0423 116.063 14.0388 112.974 11.5077 111.731L7.56142 109.794C4.57437 108.327 3.82648 104.407 6.06392 101.944L9.01991 98.6896C10.9158 96.6025 10.7119 93.3614 8.56936 91.5284L5.22883 88.6704C2.70033 86.5072 2.95095 82.5237 5.73064 80.6944L9.40303 78.2777C11.7584 76.7276 12.3669 73.5377 10.7476 71.2294L8.22272 67.6305C6.31164 64.9064 7.54502 61.1104 10.6923 60.0299L14.8504 58.6023C17.5172 57.6867 18.8999 54.7483 17.9055 52.1098L16.355 47.9961C15.1814 44.8823 17.3201 41.5123 20.6372 41.2484L25.0196 40.8998C27.8304 40.6762 29.9004 38.1739 29.5934 35.3711L29.1146 31.0009C28.7523 27.6931 31.6618 24.9609 34.9404 25.5302L39.2718 26.2824C42.0499 26.7648 44.6772 24.856 45.0768 22.0648L45.6999 17.7129C46.1716 14.4189 49.6692 12.4961 52.7032 13.8629L56.7115 15.6686C59.2823 16.8267 62.3017 15.6313 63.3829 13.0272L65.0688 8.96697C66.3448 5.89373 70.2107 4.90114 72.8094 6.9795L76.2428 9.72533C78.4448 11.4864 81.6667 11.0794 83.3615 8.82601L86.0041 5.31262Z" fill="#03A081"/>
<path fill-rule="evenodd" clip-rule="evenodd" d="M90.7583 47.7551C94.3311 47.7551 97.2275 50.6515 97.2275 54.2244V54.2675C97.2275 57.8403 94.3311 60.7367 90.7583 60.7367C87.1854 60.7367 84.2891 57.8403 84.2891 54.2675V54.2244C84.2891 50.6515 87.1854 47.7551 90.7583 47.7551Z" fill="white"/>
<path fill-rule="evenodd" clip-rule="evenodd" d="M90.7583 67.1627C94.3311 67.1627 97.2275 70.0591 97.2275 73.6319V73.6751C97.2275 77.2479 94.3311 80.1443 90.7583 80.1443C87.1854 80.1443 84.2891 77.2479 84.2891 73.6751V73.6319C84.2891 70.0591 87.1854 67.1627 90.7583 67.1627Z" fill="white"/>
<path fill-rule="evenodd" clip-rule="evenodd" d="M90.7583 84.4141C94.3311 84.4141 97.2275 87.3104 97.2275 90.8833V90.9264C97.2275 94.4993 94.3311 97.3956 90.7583 97.3956C87.1854 97.3956 84.2891 94.4993 84.2891 90.9264V90.8833C84.2891 87.3104 87.1854 84.4141 90.7583 84.4141Z" fill="white"/>
<path fill-rule="evenodd" clip-rule="evenodd" d="M90.762 103.822C93.1439 103.822 95.0748 105.753 95.0748 108.134V108.178C95.0748 110.56 93.1439 112.49 90.762 112.49C88.3801 112.49 86.4492 110.56 86.4492 108.178V108.134C86.4492 105.753 88.3801 103.822 90.762 103.822Z" fill="white"/>
<path fill-rule="evenodd" clip-rule="evenodd" d="M90.762 119.995C92.5484 119.995 93.9966 121.443 93.9966 123.229V123.273C93.9966 125.059 92.5484 126.507 90.762 126.507C88.9755 126.507 87.5273 125.059 87.5273 123.273V123.229C87.5273 121.443 88.9755 119.995 90.762 119.995Z" fill="white"/>
<path fill-rule="evenodd" clip-rule="evenodd" d="M90.7619 134.011C91.9528 134.011 92.9183 134.977 92.9183 136.168V136.211C92.9183 137.402 91.9528 138.367 90.7619 138.367C89.5709 138.367 88.6055 137.402 88.6055 136.211V136.168C88.6055 134.977 89.5709 134.011 90.7619 134.011Z" fill="white"/>
<path fill-rule="evenodd" clip-rule="evenodd" d="M54.102 67.1627C57.6749 67.1627 60.5713 70.0591 60.5713 73.6319V73.6751C60.5713 77.2479 57.6749 80.1443 54.102 80.1443C50.5292 80.1443 47.6328 77.2479 47.6328 73.6751V73.6319C47.6328 70.0591 50.5292 67.1627 54.102 67.1627Z" fill="white"/>
<path fill-rule="evenodd" clip-rule="evenodd" d="M127.418 67.1627C130.991 67.1627 133.888 70.0591 133.888 73.6319V73.6751C133.888 77.2479 130.991 80.1443 127.418 80.1443C123.846 80.1443 120.949 77.2479 120.949 73.6751V73.6319C120.949 70.0591 123.846 67.1627 127.418 67.1627Z" fill="white"/>
<path fill-rule="evenodd" clip-rule="evenodd" d="M127.418 86.5706C129.8 86.5706 131.731 88.5015 131.731 90.8834V90.9265C131.731 93.3084 129.8 95.2393 127.418 95.2393C125.036 95.2393 123.105 93.3084 123.105 90.9265V90.8834C123.105 88.5015 125.036 86.5706 127.418 86.5706Z" fill="white"/>
<path fill-rule="evenodd" clip-rule="evenodd" d="M54.1019 86.5706C56.4838 86.5706 58.4147 88.5015 58.4147 90.8834V90.9265C58.4147 93.3084 56.4838 95.2393 54.1019 95.2393C51.72 95.2393 49.7891 93.3084 49.7891 90.9265V90.8834C49.7891 88.5015 51.72 86.5706 54.1019 86.5706Z" fill="white"/>
<path fill-rule="evenodd" clip-rule="evenodd" d="M127.418 100.587C129.205 100.587 130.653 102.035 130.653 103.822V103.865C130.653 105.651 129.205 107.099 127.418 107.099C125.632 107.099 124.184 105.651 124.184 103.865V103.822C124.184 102.035 125.632 100.587 127.418 100.587Z" fill="white"/>
<path fill-rule="evenodd" clip-rule="evenodd" d="M127.418 114.604C128.609 114.604 129.575 115.569 129.575 116.76V116.803C129.575 117.994 128.609 118.96 127.418 118.96C126.227 118.96 125.262 117.994 125.262 116.803V116.76C125.262 115.569 126.227 114.604 127.418 114.604Z" fill="white"/>
<path fill-rule="evenodd" clip-rule="evenodd" d="M54.0979 100.587C55.8843 100.587 57.3325 102.035 57.3325 103.822V103.865C57.3325 105.651 55.8843 107.099 54.0979 107.099C52.3115 107.099 50.8633 105.651 50.8633 103.865V103.822C50.8633 102.035 52.3115 100.587 54.0979 100.587Z" fill="white"/>
<path fill-rule="evenodd" clip-rule="evenodd" d="M54.0978 114.604C55.2888 114.604 56.2542 115.569 56.2542 116.76V116.803C56.2542 117.994 55.2888 118.96 54.0978 118.96C52.9069 118.96 51.9414 117.994 51.9414 116.803V116.76C51.9414 115.569 52.9069 114.604 54.0978 114.604Z" fill="white"/>
<path fill-rule="evenodd" clip-rule="evenodd" d="M72.6489 75.7883C76.2218 75.7883 79.1181 78.6847 79.1181 82.2576V82.3007C79.1181 85.8735 76.2218 88.7699 72.6489 88.7699C69.0761 88.7699 66.1797 85.8735 66.1797 82.3007V82.2576C66.1797 78.6847 69.0761 75.7883 72.6489 75.7883Z" fill="white"/>
<path fill-rule="evenodd" clip-rule="evenodd" d="M72.4302 57.6746C76.003 57.6746 78.8994 60.5709 78.8994 64.1438V64.1869C78.8994 67.7598 76.003 70.6561 72.4302 70.6561C68.8573 70.6561 65.9609 67.7598 65.9609 64.1869V64.1438C65.9609 60.5709 68.8573 57.6746 72.4302 57.6746Z" fill="white"/>
<path fill-rule="evenodd" clip-rule="evenodd" d="M108.872 75.7883C112.444 75.7883 115.341 78.6847 115.341 82.2576V82.3007C115.341 85.8735 112.444 88.7699 108.872 88.7699C105.299 88.7699 102.402 85.8735 102.402 82.3007V82.2576C102.402 78.6847 105.299 75.7883 108.872 75.7883Z" fill="white"/>
<path fill-rule="evenodd" clip-rule="evenodd" d="M109.09 57.6746C112.663 57.6746 115.56 60.5709 115.56 64.1438V64.1869C115.56 67.7598 112.663 70.6561 109.09 70.6561C105.517 70.6561 102.621 67.7598 102.621 64.1869V64.1438C102.621 60.5709 105.517 57.6746 109.09 57.6746Z" fill="white"/>
<path fill-rule="evenodd" clip-rule="evenodd" d="M72.6488 95.196C75.0307 95.196 76.9616 97.127 76.9616 99.5089V99.552C76.9616 101.934 75.0307 103.865 72.6488 103.865C70.2669 103.865 68.3359 101.934 68.3359 99.552V99.5089C68.3359 97.127 70.2669 95.196 72.6488 95.196Z" fill="white"/>
<path fill-rule="evenodd" clip-rule="evenodd" d="M72.6526 109.213C74.439 109.213 75.8872 110.661 75.8872 112.447V112.49C75.8872 114.277 74.439 115.725 72.6526 115.725C70.8662 115.725 69.418 114.277 69.418 112.49V112.447C69.418 110.661 70.8662 109.213 72.6526 109.213Z" fill="white"/>
<path fill-rule="evenodd" clip-rule="evenodd" d="M72.6525 123.229C73.8435 123.229 74.8089 124.195 74.8089 125.386V125.429C74.8089 126.62 73.8435 127.585 72.6525 127.585C71.4616 127.585 70.4961 126.62 70.4961 125.429V125.386C70.4961 124.195 71.4616 123.229 72.6525 123.229Z" fill="white"/>
<path fill-rule="evenodd" clip-rule="evenodd" d="M108.871 95.196C111.253 95.196 113.184 97.127 113.184 99.5089V99.552C113.184 101.934 111.253 103.865 108.871 103.865C106.49 103.865 104.559 101.934 104.559 99.552V99.5089C104.559 97.127 106.49 95.196 108.871 95.196Z" fill="white"/>
<path fill-rule="evenodd" clip-rule="evenodd" d="M108.871 109.213C110.658 109.213 112.106 110.661 112.106 112.447V112.49C112.106 114.277 110.658 115.725 108.871 115.725C107.085 115.725 105.637 114.277 105.637 112.49V112.447C105.637 110.661 107.085 109.213 108.871 109.213Z" fill="white"/>
<path fill-rule="evenodd" clip-rule="evenodd" d="M108.871 123.229C110.062 123.229 111.028 124.195 111.028 125.386V125.429C111.028 126.62 110.062 127.585 108.871 127.585C107.68 127.585 106.715 126.62 106.715 125.429V125.386C106.715 124.195 107.68 123.229 108.871 123.229Z" fill="white"/>
</svg>
