<svg width="282" height="209" viewBox="0 0 282 209" fill="none" xmlns="http://www.w3.org/2000/svg">
<path d="M1 188V21C1 9.9543 9.95431 1 21 1H131.542C137.987 1 144.037 4.10534 147.793 9.34167L165.143 33.5255C168.899 38.7618 174.949 41.8671 181.393 41.8671H205.36C211.805 41.8671 217.854 38.7618 221.611 33.5255L238.961 9.34166C242.717 4.10534 248.767 1 255.211 1H261C272.046 1 281 9.95431 281 21V188C281 199.046 272.046 208 261 208H21C9.95431 208 1 199.046 1 188Z" stroke="#03A081" stroke-width="2"/>
</svg>
