<svg width="240" height="240" viewBox="0 0 240 240" fill="none" xmlns="http://www.w3.org/2000/svg">
<rect width="240" height="240" rx="120" fill="white"/>
<path d="M97.5 113.25V111C97.5 104.25 102 99.75 108.75 99.75H131.25C138 99.75 142.5 104.25 142.5 111V129C142.5 135.75 138 140.25 131.25 140.25H129" stroke="#777777" stroke-width="3" stroke-linecap="round" stroke-linejoin="round"/>
<path d="M101.305 119.347C111.7 120.675 119.327 128.325 120.677 138.72" stroke="#777777" stroke-width="3" stroke-linecap="round" stroke-linejoin="round"/>
<path d="M98.8965 126.907C106.524 127.875 112.127 133.5 113.117 141.127" stroke="#777777" stroke-width="3" stroke-linecap="round" stroke-linejoin="round"/>
<path d="M97.4551 135.435C101.258 135.93 104.07 138.72 104.565 142.545" stroke="#777777" stroke-width="3" stroke-linecap="round" stroke-linejoin="round"/>
<path d="M85.8624 219.313L84.4733 218.869L87.1957 210.346L88.5847 210.79L87.4125 214.46L92.2143 215.993L93.3865 212.324L94.7927 212.773L92.0703 221.296L90.6641 220.847L91.8308 217.194L87.0291 215.66L85.8624 219.313Z" fill="#777777"/>
<path d="M81.4665 210.767C80.8502 212.049 79.6664 212.558 77.6907 211.848L74.33 210.612C73.7013 212.127 74.1452 213.239 75.5405 213.91C76.7087 214.472 78.0454 214.475 78.7787 212.95L80.0766 213.574C79.2731 215.246 77.2899 216.13 75.0023 215.03C72.747 213.945 72.1181 211.805 73.1556 209.647L74.8095 206.208L73.6251 205.638L74.1711 204.503L75.5989 205.189C76.2154 205.486 76.3923 205.99 76.1037 206.59L75.8931 207.028L75.2765 207.771L75.6659 207.958C76.567 206.873 77.9808 206.135 79.9278 207.071C82.2641 208.194 81.8721 209.923 81.4665 210.767ZM80.0581 210.289C80.5027 209.365 80.1605 208.581 79.2194 208.128C77.3861 207.247 75.6094 207.951 74.8059 209.622L77.9394 210.749C79.0084 211.143 79.6758 211.084 80.0581 210.289Z" fill="#777777"/>
<path d="M59.2699 205.641L64.2053 198.178L65.4367 198.992L61.1963 205.404L64.9052 207.857L69.1456 201.445L70.3769 202.259L65.4414 209.722L59.2699 205.641Z" fill="#777777"/>
<path d="M53.9672 201.651L52.8634 200.671L53.7361 199.688L54.5925 199.076L54.2829 198.801C53.0678 199.6 51.4382 199.646 49.9037 198.283C47.9654 196.561 48.0406 193.956 49.8098 191.963C51.5671 189.985 54.1459 189.602 56.0842 191.324C57.6187 192.687 57.7659 194.31 57.1281 195.598L57.4377 195.873L57.9322 194.963L60.9805 191.531L62.0843 192.511L53.9672 201.651ZM55.8401 197.319C57.4181 195.542 56.9434 193.772 55.5705 192.553C54.184 191.322 52.4677 191.194 50.9136 192.944C49.3476 194.707 49.6772 196.396 51.0636 197.628C52.4366 198.847 54.2502 199.109 55.8401 197.319Z" fill="#777777"/>
<path d="M47.7302 186.937C46.6422 187.853 45.3536 187.832 43.8434 186.373L41.286 183.867C40.0908 184.991 40.0392 186.187 41.0363 187.372C41.8711 188.363 43.0886 188.915 44.3832 187.825L45.3107 188.927C43.8922 190.121 41.7209 190.114 40.0861 188.172C38.4744 186.258 38.7791 184.048 40.6107 182.506L43.5303 180.048L42.6839 179.042L43.6479 178.231L44.6683 179.443C45.1089 179.966 45.0631 180.499 44.5536 180.928L44.1817 181.241L43.3149 181.665L43.5931 181.995C44.8601 181.376 46.4524 181.282 47.8437 182.935C49.5133 184.918 48.4463 186.334 47.7302 186.937ZM46.6417 185.924C47.4267 185.263 47.4363 184.408 46.7638 183.609C45.4536 182.053 43.5446 181.965 42.1261 183.16L44.5212 185.473C45.3342 186.271 45.9669 186.492 46.6417 185.924Z" fill="#777777"/>
<path d="M41.1081 174.629L33.5449 179.409L31.8136 176.67C30.669 174.859 30.2648 173.411 31.7104 172.497C32.9583 171.708 33.8013 172.368 34.2317 172.948L34.5969 172.717C33.9773 171.703 33.6676 170.472 35.1133 169.558C36.5894 168.625 37.8763 169.515 39.0209 171.326L41.1081 174.629ZM35.9103 176.21L34.9484 174.688C34.1694 173.456 33.743 172.916 32.6777 173.589C31.8103 174.137 32.0237 174.812 32.8028 176.045L33.7646 177.566L35.9103 176.21ZM39.3495 174.036L38.0318 171.952C37.2623 170.734 36.735 170.237 35.7306 170.872C34.6654 171.545 34.8122 172.283 35.5817 173.5L36.8994 175.585L39.3495 174.036Z" fill="#777777"/>
<path d="M23.1971 160.261L31.339 156.551L31.9511 157.894L24.9559 161.082L26.404 164.26C30.8838 162.238 33.5112 161.318 34.7279 163.988L33.5811 164.511C32.8571 162.922 30.4891 164.021 25.8693 166.126L23.1971 160.261Z" fill="#777777"/>
<path d="M25.0736 153.036C22.3098 153.847 20.2135 152.587 19.4983 150.151C18.7881 147.733 19.8588 145.692 22.5016 144.916L23.0543 144.754L25.0478 151.542C26.6461 150.979 27.817 149.791 27.1931 147.666C26.7771 146.25 25.8072 145.503 24.4031 145.577L23.9872 144.161C25.4136 144.099 27.5662 144.592 28.3676 147.321C29.2705 150.396 27.5436 152.31 25.0736 153.036ZM23.9768 151.857L22.3892 146.45C21.0073 146.856 20.1879 148.091 20.6901 149.801C21.1872 151.494 22.595 152.262 23.9768 151.857Z" fill="#777777"/>
<path d="M16.0569 132.804L15.848 131.361L24.7031 130.079L24.9119 131.522L21.0991 132.074L21.821 137.063L25.6339 136.511L25.8453 137.972L16.9902 139.254L16.7788 137.793L20.5738 137.243L19.8519 132.255L16.0569 132.804Z" fill="#777777"/>
<path d="M24.2716 116.156L24.2742 117.614L16.6051 117.628L15.7586 117.395L15.7593 117.809L24.2818 121.772L24.2871 124.743L15.3398 124.759L15.3372 123.283L22.9883 123.269L23.8708 123.501L23.8701 123.087L15.3297 119.124L15.3243 116.172L24.2716 116.156Z" fill="#777777"/>
<path d="M16.6212 103.619L25.4913 104.791L25.3002 106.237L21.4274 105.725L21.2811 106.832L24.2197 109.054C24.6281 109.399 24.8214 109.86 24.7459 110.431L24.5713 111.752L23.3577 111.591L23.5488 110.146L21.021 108.25C20.611 109.703 19.8196 110.47 18.2847 110.267C16.4821 110.029 15.9583 108.634 16.2485 106.439L16.6212 103.619ZM20.2673 105.572L17.5902 105.218L17.4251 106.467C17.2363 107.895 17.4073 108.662 18.4782 108.804C19.549 108.945 19.9134 108.249 20.1022 106.821L20.2673 105.572Z" fill="#777777"/>
<path d="M31.827 82.7343L31.317 84.1004L24.1323 81.4181L23.4215 80.9029L23.2767 81.2908L29.8625 87.9964L28.8236 90.7792L20.4414 87.6498L20.9577 86.2668L28.1256 88.9429L28.8701 89.4706L29.015 89.0827L22.4122 82.3709L23.4449 79.6049L31.827 82.7343Z" fill="#777777"/>
<path d="M34.8844 59.2259L35.7783 57.8962L40.9592 66.0651L43.0359 67.4613C43.6036 67.8429 43.7262 68.4026 43.2243 69.0847L41.1613 71.8628L40.1155 71.1597L42.0479 68.5759L40.1356 67.2902L30.6055 65.5903L31.5095 64.2457L38.8582 65.8023L39.4259 66.1839L39.667 65.8254L39.0992 65.4437L34.8844 59.2259Z" fill="#777777"/>
<path d="M42.4915 56.5616C40.5747 54.8431 40.1508 52.2145 42.0857 50.0564C43.2394 48.7696 45.4414 47.7699 47.5278 49.3262L46.5303 50.4387C45.0887 49.4847 43.8892 49.9326 43.024 50.8977C41.6059 52.4793 42.1097 54.2367 43.4769 55.4625C44.8575 56.7003 46.6592 57.01 48.0773 55.4283C48.9426 54.4632 49.2574 53.2222 48.1522 51.8929L49.1497 50.7803C50.9236 52.6851 50.1693 54.9828 49.0156 56.2696C47.0807 58.4276 44.4216 58.2922 42.4915 56.5616Z" fill="#777777"/>
<path d="M55.4341 37.7373L61.2041 44.5756L60.0758 45.5276L55.1186 39.6525L52.4493 41.9047C55.6049 45.6725 57.2002 47.954 54.9574 49.8463L54.1448 48.8832C55.4794 47.7571 53.7823 45.7736 50.5084 41.8935L55.4341 37.7373Z" fill="#777777"/>
<path d="M66.912 29.9355L68.2679 29.0819L69.6959 38.6492L71.029 40.7669C71.3935 41.3458 71.2789 41.9072 70.5437 42.3275L67.5322 44.0319L66.8609 42.9654L69.6743 41.3857L68.4466 39.4357L60.4219 34.0212L61.793 33.1581L67.8814 37.5578L68.2459 38.1368L68.6115 37.9066L68.247 37.3277L66.912 29.9355Z" fill="#777777"/>
<path d="M77.1408 34.5502L73.375 26.434L79.0416 23.8047L79.572 24.9479L75.2445 26.9558L78.4799 33.9289L77.1408 34.5502Z" fill="#777777"/>
<path d="M95.4973 27.5426L94.106 27.9792L91.8097 20.662L91.7796 19.7846L91.3845 19.9086L90.1382 29.2244L87.3041 30.1139L84.625 21.5771L86.0335 21.1351L88.3244 28.4351L88.3653 29.3469L88.7603 29.2229L90.0013 19.8899L92.8182 19.0058L95.4973 27.5426Z" fill="#777777"/>
<path d="M153.571 20.9333L154.964 21.3659L152.309 29.9104L150.917 29.4778L152.06 25.7987L147.246 24.3033L146.103 27.9824L144.693 27.5445L147.348 19L148.757 19.4379L147.62 23.0999L152.434 24.5953L153.571 20.9333Z" fill="#777777"/>
<path d="M158.036 29.4441C158.642 28.1575 159.822 27.6386 161.803 28.333L165.174 29.5425C165.791 28.0221 165.338 26.9133 163.937 26.2536C162.765 25.7013 161.428 25.7084 160.707 27.2393L159.404 26.6256C160.194 24.9481 162.17 24.0482 164.466 25.1298C166.73 26.1962 167.376 28.3313 166.356 30.4973L164.73 33.95L165.918 34.51L165.381 35.6501L163.948 34.975C163.329 34.6835 163.148 34.1803 163.432 33.5777L163.639 33.138L164.25 32.3909L163.859 32.2067C162.967 33.2987 161.559 34.0485 159.605 33.1279C157.259 32.0232 157.637 30.291 158.036 29.4441ZM159.449 29.9103C159.011 30.8386 159.36 31.6196 160.304 32.0646C162.145 32.9315 163.916 32.2135 164.706 30.536L161.563 29.4339C160.491 29.0483 159.824 29.1122 159.449 29.9103Z" fill="#777777"/>
<path d="M180.276 34.393L175.4 41.895L174.163 41.0906L178.352 34.6452L174.623 32.222L170.434 38.6674L169.196 37.8629L174.072 30.3609L180.276 34.393Z" fill="#777777"/>
<path d="M185.604 38.3405L186.716 39.3119L185.851 40.3015L184.999 40.9201L185.311 41.1926C186.52 40.3841 188.149 40.3255 189.694 41.6761C191.646 43.382 191.592 45.9884 189.839 47.9946C188.097 49.9872 185.522 50.3901 183.57 48.6842C182.024 47.3336 181.864 45.7113 182.492 44.4188L182.18 44.1463L181.693 45.0594L178.672 48.516L177.56 47.5446L185.604 38.3405ZM183.766 42.6872C182.202 44.4765 182.691 46.2426 184.073 47.451C185.47 48.6712 187.187 48.7853 188.727 47.0232C190.279 45.2474 189.936 43.5608 188.54 42.3406C187.157 41.1322 185.341 40.8844 183.766 42.6872Z" fill="#777777"/>
<path d="M191.96 53.0043C193.041 52.0797 194.33 52.0906 195.851 53.5369L198.429 56.0229C199.615 54.8895 199.657 53.6925 198.651 52.5161C197.808 51.5313 196.586 50.9893 195.3 52.0895L194.364 50.9952C195.773 49.7897 197.944 49.7799 199.594 51.7086C201.221 53.6099 200.934 55.8221 199.115 57.3787L196.215 59.8599L197.069 60.8585L196.112 61.6777L195.082 60.474C194.637 59.9542 194.679 59.4212 195.185 58.9881L195.554 58.6721L196.418 58.2413L196.137 57.913C194.875 58.5426 193.283 58.6486 191.879 57.0072C190.193 55.0374 191.249 53.6129 191.96 53.0043ZM193.057 54.0089C192.277 54.676 192.274 55.5313 192.953 56.3247C194.276 57.8704 196.185 57.9424 197.594 56.7369L195.181 54.4423C194.362 53.6508 193.727 53.4354 193.057 54.0089Z" fill="#777777"/>
<path d="M198.68 65.2596L206.205 60.4191L207.958 63.1444C209.117 64.9462 209.533 66.3911 208.095 67.3164C206.853 68.115 206.005 67.4619 205.57 66.8855L205.206 67.1193C205.834 68.1283 206.154 69.357 204.715 70.2822C203.247 71.227 201.953 70.3469 200.794 68.5451L198.68 65.2596ZM203.865 63.6367L204.839 65.1508C205.628 66.3771 206.059 66.9135 207.119 66.2318C207.982 65.6766 207.763 65.0039 206.974 63.7775L206 62.2634L203.865 63.6367ZM200.444 65.8378L201.778 67.9121C202.557 69.1233 203.088 69.6164 204.087 68.9736C205.147 68.2918 204.995 67.5553 204.215 66.344L202.881 64.2698L200.444 65.8378Z" fill="#777777"/>
<path d="M216.708 79.4842L208.596 83.2588L207.973 81.9204L214.942 78.6774L213.469 75.5109C209.006 77.568 206.386 78.509 205.148 75.8485L206.29 75.3169C207.027 76.9001 209.386 75.7826 213.989 73.6408L216.708 79.4842Z" fill="#777777"/>
<path d="M214.886 86.724C217.643 85.8904 219.75 87.1343 220.484 89.564C221.214 91.9766 220.159 94.0256 217.523 94.8227L216.971 94.9894L214.924 88.2172C213.33 88.7931 212.169 89.9905 212.809 92.1101C213.237 93.5231 214.212 94.2625 215.616 94.1767L216.043 95.5898C214.617 95.6635 212.461 95.1871 211.638 92.4644C210.71 89.397 212.422 87.469 214.886 86.724ZM215.992 87.8942L217.623 93.2878C219.001 92.8711 219.811 91.6295 219.295 89.9235C218.785 88.2348 217.371 87.4774 215.992 87.8942Z" fill="#777777"/>
<path d="M224.063 106.883L224.283 108.325L215.439 109.677L215.218 108.235L219.027 107.653L218.265 102.67L214.457 103.252L214.234 101.793L223.078 100.441L223.301 101.9L219.511 102.48L220.272 107.463L224.063 106.883Z" fill="#777777"/>
<path d="M215.983 123.597L215.969 122.138L223.637 122.063L224.486 122.289L224.482 121.875L215.928 117.98L215.899 115.01L224.846 114.922L224.86 116.398L217.209 116.473L216.325 116.248L216.329 116.662L224.901 120.557L224.93 123.509L215.983 123.597Z" fill="#777777"/>
<path d="M223.735 136.072L214.856 134.97L215.035 133.523L218.912 134.004L219.05 132.896L216.094 130.697C215.682 130.356 215.485 129.896 215.556 129.325L215.72 128.002L216.935 128.153L216.756 129.6L219.299 131.476C219.697 130.02 220.482 129.246 222.019 129.437C223.823 129.661 224.358 131.052 224.085 133.249L223.735 136.072ZM220.074 134.148L222.753 134.481L222.909 133.23C223.086 131.801 222.909 131.035 221.837 130.902C220.765 130.769 220.406 131.468 220.229 132.897L220.074 134.148Z" fill="#777777"/>
<path d="M208.691 157.077L209.19 155.707L216.396 158.332L217.111 158.841L217.253 158.452L210.614 151.799L211.63 149.008L220.037 152.071L219.532 153.458L212.343 150.839L211.594 150.317L211.452 150.706L218.108 157.365L217.098 160.139L208.691 157.077Z" fill="#777777"/>
<path d="M205.823 180.609L204.939 181.946L199.694 173.818L197.606 172.439C197.035 172.062 196.908 171.503 197.405 170.817L199.445 168.022L200.497 168.717L198.585 171.316L200.507 172.587L210.051 174.211L209.158 175.562L201.797 174.064L201.226 173.687L200.988 174.048L201.558 174.425L205.823 180.609Z" fill="#777777"/>
<path d="M198.238 183.334C200.168 185.037 200.613 187.662 198.695 189.836C197.552 191.131 195.358 192.149 193.259 190.609L194.248 189.489C195.697 190.431 196.893 189.974 197.75 189.002C199.156 187.409 198.638 185.656 197.261 184.441C195.871 183.214 194.067 182.919 192.661 184.512C191.804 185.484 191.499 186.727 192.614 188.048L191.626 189.168C189.837 187.277 190.573 184.974 191.716 183.678C193.634 181.504 196.294 181.619 198.238 183.334Z" fill="#777777"/>
<path d="M185.448 202.261L179.624 195.469L180.744 194.508L185.748 200.343L188.399 198.07C185.214 194.327 183.601 192.058 185.828 190.148L186.648 191.105C185.323 192.242 187.036 194.211 190.34 198.065L185.448 202.261Z" fill="#777777"/>
<path d="M174.031 210.154L172.682 211.018L171.178 201.462L169.828 199.355C169.459 198.779 169.569 198.217 170.301 197.791L173.298 196.063L173.978 197.124L171.177 198.726L172.421 200.666L180.488 206.016L179.124 206.89L173.001 202.539L172.632 201.963L172.268 202.196L172.637 202.772L174.031 210.154Z" fill="#777777"/>
<path d="M163.763 205.621L167.594 213.707L161.948 216.381L161.409 215.242L165.72 213.2L162.429 206.253L163.763 205.621Z" fill="#777777"/>
<path d="M145.463 212.774L146.851 212.327L149.206 219.625L149.243 220.503L149.637 220.375L150.809 211.05L153.636 210.138L156.383 218.653L154.978 219.106L152.629 211.825L152.581 210.913L152.187 211.04L151.02 220.383L148.21 221.29L145.463 212.774Z" fill="#777777"/>
</svg>
