<svg width="190" height="105" viewBox="0 0 190 105" fill="none" xmlns="http://www.w3.org/2000/svg">
<path d="M49.3005 4.25377C50.9021 2.12445 54.0979 2.12445 55.6995 4.25377C57.0565 6.05803 59.6363 6.38393 61.3994 4.97384C63.4802 3.30971 66.5756 4.10448 67.5973 6.56519C68.463 8.65026 70.8807 9.60747 72.9391 8.68015C75.3684 7.58578 78.1689 9.12537 78.5465 11.7629C78.8665 13.9977 80.9701 15.5261 83.1945 15.1398C85.8196 14.684 88.1493 16.8716 87.8591 19.5202C87.6133 21.7644 89.2707 23.7679 91.5213 23.947C94.1773 24.1583 95.8897 26.8566 94.95 29.3498C94.1538 31.4624 95.2609 33.8151 97.3962 34.5482C99.9162 35.4134 100.904 38.4528 99.3736 40.634C98.077 42.4822 98.5642 45.0363 100.45 46.2774C102.676 47.7421 102.876 50.9316 100.852 52.6637C99.1364 54.1314 98.9732 56.7265 100.491 58.3977C102.283 60.3698 101.684 63.509 99.2921 64.6832C97.2655 65.6782 96.462 68.1512 97.5168 70.1473C98.7615 72.503 97.4008 75.3947 94.7922 75.9372C92.5819 76.3969 91.1886 78.5924 91.7138 80.7881C92.3336 83.3794 90.2965 85.8418 87.6349 85.7185C85.3797 85.6141 83.4842 87.3941 83.4468 89.6514C83.4027 92.3154 80.8173 94.1939 78.27 93.4126C76.1116 92.7506 73.833 94.0033 73.2354 96.1804C72.5302 98.7498 69.5588 99.9262 67.2858 98.536C65.3599 97.358 62.8413 98.0047 61.7211 99.9648C60.399 102.278 57.2284 102.679 55.3726 100.767C53.8001 99.1468 51.1999 99.1468 49.6274 100.767C47.7716 102.679 44.601 102.278 43.2789 99.9648C42.1587 98.0047 39.6401 97.358 37.7142 98.536C35.4412 99.9262 32.4698 98.7498 31.7646 96.1804C31.167 94.0033 28.8884 92.7506 26.73 93.4126C24.1827 94.1939 21.5973 92.3154 21.5532 89.6514C21.5158 87.3941 19.6203 85.6141 17.3651 85.7185C14.7035 85.8418 12.6664 83.3794 13.2862 80.7881C13.8114 78.5924 12.4181 76.3969 10.2078 75.9372C7.5992 75.3947 6.23849 72.503 7.48324 70.1473C8.53797 68.1511 7.73446 65.6782 5.70786 64.6832C3.31616 63.509 2.71733 60.3698 4.50882 58.3977C6.02684 56.7265 5.86357 54.1314 4.14808 52.6637C2.12353 50.9316 2.32419 47.7421 4.54987 46.2774C6.43578 45.0363 6.92302 42.4822 5.62642 40.634C4.09623 38.4528 5.08379 35.4134 7.6038 34.5482C9.73911 33.8151 10.8462 31.4624 10.05 29.3498C9.11032 26.8566 10.8227 24.1583 13.4787 23.947C15.7293 23.7679 17.3867 21.7644 17.1409 19.5202C16.8507 16.8716 19.1804 14.684 21.8055 15.1398C24.0299 15.5261 26.1335 13.9977 26.4535 11.7629C26.8311 9.12537 29.6316 7.58578 32.0609 8.68015C34.1193 9.60747 36.537 8.65026 37.4027 6.56519C38.4244 4.10448 41.5198 3.30971 43.6006 4.97384C45.3637 6.38393 47.9435 6.05803 49.3005 4.25377Z" fill="white"/>
<path fill-rule="evenodd" clip-rule="evenodd" d="M52.9339 27.8571C55.018 27.8571 56.7076 29.5466 56.7076 31.6308V31.6559C56.7076 33.7401 55.018 35.4296 52.9339 35.4296C50.8497 35.4296 49.1602 33.7401 49.1602 31.6559V31.6308C49.1602 29.5466 50.8497 27.8571 52.9339 27.8571Z" fill="#050505"/>
<path fill-rule="evenodd" clip-rule="evenodd" d="M52.9339 39.1781C55.018 39.1781 56.7076 40.8676 56.7076 42.9518V42.977C56.7076 45.0611 55.018 46.7507 52.9339 46.7507C50.8497 46.7507 49.1602 45.0611 49.1602 42.977V42.9518C49.1602 40.8676 50.8497 39.1781 52.9339 39.1781Z" fill="#050505"/>
<path fill-rule="evenodd" clip-rule="evenodd" d="M52.9339 49.2415C55.018 49.2415 56.7076 50.931 56.7076 53.0152V53.0403C56.7076 55.1245 55.018 56.814 52.9339 56.814C50.8497 56.814 49.1602 55.1245 49.1602 53.0403V53.0152C49.1602 50.931 50.8497 49.2415 52.9339 49.2415Z" fill="#050505"/>
<path fill-rule="evenodd" clip-rule="evenodd" d="M52.9338 60.5625C54.3232 60.5625 55.4496 61.6889 55.4496 63.0783V63.1035C55.4496 64.4929 54.3232 65.6193 52.9338 65.6193C51.5443 65.6193 50.418 64.4929 50.418 63.1035V63.0783C50.418 61.6889 51.5443 60.5625 52.9338 60.5625Z" fill="#050505"/>
<path fill-rule="evenodd" clip-rule="evenodd" d="M52.9337 69.9968C53.9758 69.9968 54.8206 70.8416 54.8206 71.8837V71.9088C54.8206 72.9509 53.9758 73.7957 52.9337 73.7957C51.8916 73.7957 51.0469 72.9509 51.0469 71.9088V71.8837C51.0469 70.8416 51.8916 69.9968 52.9337 69.9968Z" fill="#050505"/>
<path fill-rule="evenodd" clip-rule="evenodd" d="M52.9337 78.1732C53.6284 78.1732 54.1916 78.7364 54.1916 79.4311V79.4563C54.1916 80.151 53.6284 80.7142 52.9337 80.7142C52.239 80.7142 51.6758 80.151 51.6758 79.4563V79.4311C51.6758 78.7364 52.239 78.1732 52.9337 78.1732Z" fill="#050505"/>
<path fill-rule="evenodd" clip-rule="evenodd" d="M31.5511 39.1782C33.6352 39.1782 35.3248 40.8678 35.3248 42.9519V42.9771C35.3248 45.0613 33.6352 46.7508 31.5511 46.7508C29.4669 46.7508 27.7773 45.0613 27.7773 42.9771V42.9519C27.7773 40.8678 29.4669 39.1782 31.5511 39.1782Z" fill="#050505"/>
<path fill-rule="evenodd" clip-rule="evenodd" d="M74.3167 39.1781C76.4008 39.1781 78.0904 40.8676 78.0904 42.9518V42.977C78.0904 45.0611 76.4008 46.7507 74.3167 46.7507C72.2325 46.7507 70.543 45.0611 70.543 42.977V42.9518C70.543 40.8676 72.2325 39.1781 74.3167 39.1781Z" fill="#050505"/>
<path fill-rule="evenodd" clip-rule="evenodd" d="M74.3166 50.4994C75.706 50.4994 76.8324 51.6258 76.8324 53.0152V53.0404C76.8324 54.4298 75.706 55.5562 74.3166 55.5562C72.9271 55.5562 71.8008 54.4298 71.8008 53.0404V53.0152C71.8008 51.6258 72.9271 50.4994 74.3166 50.4994Z" fill="#050505"/>
<path fill-rule="evenodd" clip-rule="evenodd" d="M31.551 50.4994C32.9404 50.4994 34.0668 51.6258 34.0668 53.0152V53.0404C34.0668 54.4298 32.9404 55.5562 31.551 55.5562C30.1615 55.5562 29.0352 54.4298 29.0352 53.0404V53.0152C29.0352 51.6258 30.1615 50.4994 31.551 50.4994Z" fill="#050505"/>
<path fill-rule="evenodd" clip-rule="evenodd" d="M74.3165 58.6757C75.3586 58.6757 76.2034 59.5204 76.2034 60.5625V60.5877C76.2034 61.6298 75.3586 62.4745 74.3165 62.4745C73.2745 62.4745 72.4297 61.6298 72.4297 60.5877V60.5625C72.4297 59.5204 73.2745 58.6757 74.3165 58.6757Z" fill="#050505"/>
<path fill-rule="evenodd" clip-rule="evenodd" d="M74.3165 66.8522C75.0112 66.8522 75.5744 67.4154 75.5744 68.1101V68.1352C75.5744 68.83 75.0112 69.3931 74.3165 69.3931C73.6218 69.3931 73.0586 68.83 73.0586 68.1352V68.1101C73.0586 67.4154 73.6218 66.8522 74.3165 66.8522Z" fill="#050505"/>
<path fill-rule="evenodd" clip-rule="evenodd" d="M31.5509 58.6757C32.593 58.6757 33.4378 59.5204 33.4378 60.5625V60.5877C33.4378 61.6298 32.593 62.4745 31.5509 62.4745C30.5088 62.4745 29.6641 61.6298 29.6641 60.5877V60.5625C29.6641 59.5204 30.5088 58.6757 31.5509 58.6757Z" fill="#050505"/>
<path fill-rule="evenodd" clip-rule="evenodd" d="M31.5509 66.8522C32.2456 66.8522 32.8088 67.4154 32.8088 68.1101V68.1352C32.8088 68.83 32.2456 69.3931 31.5509 69.3931C30.8562 69.3931 30.293 68.83 30.293 68.1352V68.1101C30.293 67.4154 30.8562 66.8522 31.5509 66.8522Z" fill="#050505"/>
<path fill-rule="evenodd" clip-rule="evenodd" d="M42.3753 44.2098C44.4594 44.2098 46.149 45.8994 46.149 47.9836V48.0087C46.149 50.0929 44.4594 51.7824 42.3753 51.7824C40.2911 51.7824 38.6016 50.0929 38.6016 48.0087V47.9836C38.6016 45.8994 40.2911 44.2098 42.3753 44.2098Z" fill="#050505"/>
<path fill-rule="evenodd" clip-rule="evenodd" d="M42.2425 33.6434C44.3266 33.6434 46.0162 35.333 46.0162 37.4171V37.4423C46.0162 39.5265 44.3266 41.216 42.2425 41.216C40.1583 41.216 38.4688 39.5265 38.4688 37.4423V37.4171C38.4688 35.333 40.1583 33.6434 42.2425 33.6434Z" fill="#050505"/>
<path fill-rule="evenodd" clip-rule="evenodd" d="M63.5003 44.2098C65.5844 44.2098 67.274 45.8994 67.274 47.9836V48.0087C67.274 50.0929 65.5844 51.7824 63.5003 51.7824C61.4161 51.7824 59.7266 50.0929 59.7266 48.0087V47.9836C59.7266 45.8994 61.4161 44.2098 63.5003 44.2098Z" fill="#050505"/>
<path fill-rule="evenodd" clip-rule="evenodd" d="M63.6253 33.6433C65.7094 33.6433 67.399 35.3329 67.399 37.417V37.4422C67.399 39.5263 65.7094 41.2159 63.6253 41.2159C61.5411 41.2159 59.8516 39.5263 59.8516 37.4422V37.417C59.8516 35.3329 61.5411 33.6433 63.6253 33.6433Z" fill="#050505"/>
<path fill-rule="evenodd" clip-rule="evenodd" d="M42.3713 55.5309C43.7607 55.5309 44.8871 56.6572 44.8871 58.0467V58.0719C44.8871 59.4613 43.7607 60.5877 42.3713 60.5877C40.9818 60.5877 39.8555 59.4613 39.8555 58.0719V58.0467C39.8555 56.6572 40.9818 55.5309 42.3713 55.5309Z" fill="#050505"/>
<path fill-rule="evenodd" clip-rule="evenodd" d="M42.3751 63.7073C43.4172 63.7073 44.262 64.552 44.262 65.5941V65.6193C44.262 66.6614 43.4172 67.5061 42.3751 67.5061C41.3331 67.5061 40.4883 66.6614 40.4883 65.6193V65.5941C40.4883 64.552 41.3331 63.7073 42.3751 63.7073Z" fill="#050505"/>
<path fill-rule="evenodd" clip-rule="evenodd" d="M42.3712 71.8838C43.0659 71.8838 43.6291 72.447 43.6291 73.1417V73.1669C43.6291 73.8616 43.0659 74.4248 42.3712 74.4248C41.6765 74.4248 41.1133 73.8616 41.1133 73.1669V73.1417C41.1133 72.447 41.6765 71.8838 42.3712 71.8838Z" fill="#050505"/>
<path fill-rule="evenodd" clip-rule="evenodd" d="M63.5002 55.5309C64.8896 55.5309 66.016 56.6572 66.016 58.0467V58.0719C66.016 59.4613 64.8896 60.5877 63.5002 60.5877C62.1107 60.5877 60.9844 59.4613 60.9844 58.0719V58.0467C60.9844 56.6572 62.1107 55.5309 63.5002 55.5309Z" fill="#050505"/>
<path fill-rule="evenodd" clip-rule="evenodd" d="M63.504 63.7073C64.5461 63.7073 65.3909 64.552 65.3909 65.5941V65.6193C65.3909 66.6614 64.5461 67.5061 63.504 67.5061C62.462 67.5061 61.6172 66.6614 61.6172 65.6193V65.5941C61.6172 64.552 62.462 63.7073 63.504 63.7073Z" fill="#050505"/>
<path fill-rule="evenodd" clip-rule="evenodd" d="M63.504 71.8838C64.1987 71.8838 64.7619 72.447 64.7619 73.1417V73.1669C64.7619 73.8616 64.1987 74.4248 63.504 74.4248C62.8093 74.4248 62.2461 73.8616 62.2461 73.1669V73.1417C62.2461 72.447 62.8093 71.8838 63.504 71.8838Z" fill="#050505"/>
<path d="M134.301 4.25377C135.902 2.12445 139.098 2.12445 140.699 4.25377C142.057 6.05803 144.636 6.38393 146.399 4.97384C148.48 3.30971 151.576 4.10448 152.597 6.56519C153.463 8.65026 155.881 9.60747 157.939 8.68015C160.368 7.58578 163.169 9.12537 163.547 11.7629C163.867 13.9977 165.97 15.5261 168.195 15.1398C170.82 14.684 173.149 16.8716 172.859 19.5202C172.613 21.7644 174.271 23.7679 176.521 23.947C179.177 24.1583 180.89 26.8566 179.95 29.3498C179.154 31.4624 180.261 33.8151 182.396 34.5482C184.916 35.4134 185.904 38.4528 184.374 40.634C183.077 42.4822 183.564 45.0363 185.45 46.2774C187.676 47.7421 187.876 50.9316 185.852 52.6637C184.136 54.1314 183.973 56.7265 185.491 58.3977C187.283 60.3698 186.684 63.509 184.292 64.6832C182.266 65.6782 181.462 68.1512 182.517 70.1473C183.762 72.503 182.401 75.3947 179.792 75.9372C177.582 76.3969 176.189 78.5924 176.714 80.7881C177.334 83.3794 175.296 85.8418 172.635 85.7185C170.38 85.6141 168.484 87.3941 168.447 89.6514C168.403 92.3154 165.817 94.1939 163.27 93.4126C161.112 92.7506 158.833 94.0033 158.235 96.1804C157.53 98.7498 154.559 99.9262 152.286 98.536C150.36 97.358 147.841 98.0047 146.721 99.9648C145.399 102.278 142.228 102.679 140.373 100.767C138.8 99.1468 136.2 99.1468 134.627 100.767C132.772 102.679 129.601 102.278 128.279 99.9648C127.159 98.0047 124.64 97.358 122.714 98.536C120.441 99.9262 117.47 98.7498 116.765 96.1804C116.167 94.0033 113.888 92.7506 111.73 93.4126C109.183 94.1939 106.597 92.3154 106.553 89.6514C106.516 87.3941 104.62 85.6141 102.365 85.7185C99.7035 85.8418 97.6664 83.3794 98.2862 80.7881C98.8114 78.5924 97.4181 76.3969 95.2078 75.9372C92.5992 75.3947 91.2385 72.503 92.4832 70.1473C93.538 68.1511 92.7345 65.6782 90.7079 64.6832C88.3162 63.509 87.7173 60.3698 89.5088 58.3977C91.0268 56.7265 90.8636 54.1314 89.1481 52.6637C87.1235 50.9316 87.3242 47.7421 89.5499 46.2774C91.4358 45.0363 91.923 42.4822 90.6264 40.634C89.0962 38.4528 90.0838 35.4134 92.6038 34.5482C94.7391 33.8151 95.8462 31.4624 95.05 29.3498C94.1103 26.8566 95.8227 24.1583 98.4787 23.947C100.729 23.7679 102.387 21.7644 102.141 19.5202C101.851 16.8716 104.18 14.684 106.805 15.1398C109.03 15.5261 111.133 13.9977 111.453 11.7629C111.831 9.12537 114.632 7.58578 117.061 8.68015C119.119 9.60747 121.537 8.65026 122.403 6.56519C123.424 4.10448 126.52 3.30971 128.601 4.97384C130.364 6.38393 132.943 6.05803 134.301 4.25377Z" fill="#050505"/>
<path fill-rule="evenodd" clip-rule="evenodd" d="M141.919 44.2857C141.031 44.2857 140.311 45.0052 140.311 45.8928C140.311 46.7804 141.031 47.5 141.919 47.5C142.806 47.5 143.526 46.7804 143.526 45.8928C143.526 45.0052 142.806 44.2857 141.919 44.2857ZM138.883 45.8928C138.883 44.2163 140.242 42.8571 141.919 42.8571C143.595 42.8571 144.954 44.2163 144.954 45.8928C144.954 47.5694 143.595 48.9285 141.919 48.9285C140.242 48.9285 138.883 47.5694 138.883 45.8928Z" fill="white"/>
<path fill-rule="evenodd" clip-rule="evenodd" d="M133.797 44.2857C132.91 44.2857 132.19 45.0052 132.19 45.8928C132.19 46.7804 132.91 47.5 133.797 47.5C134.685 47.5 135.405 46.7804 135.405 45.8928C135.405 45.0052 134.685 44.2857 133.797 44.2857ZM130.762 45.8928C130.762 44.2163 132.121 42.8571 133.797 42.8571C135.474 42.8571 136.833 44.2163 136.833 45.8928C136.833 47.5694 135.474 48.9285 133.797 48.9285C132.121 48.9285 130.762 47.5694 130.762 45.8928Z" fill="white"/>
<path fill-rule="evenodd" clip-rule="evenodd" d="M145.981 51.2499C145.093 51.2499 144.374 51.9695 144.374 52.8571C144.374 53.7447 145.093 54.4642 145.981 54.4642C146.869 54.4642 147.588 53.7447 147.588 52.8571C147.588 51.9695 146.869 51.2499 145.981 51.2499ZM142.945 52.8571C142.945 51.1805 144.304 49.8214 145.981 49.8214C147.658 49.8214 149.017 51.1805 149.017 52.8571C149.017 54.5336 147.658 55.8928 145.981 55.8928C144.304 55.8928 142.945 54.5336 142.945 52.8571Z" fill="white"/>
<path fill-rule="evenodd" clip-rule="evenodd" d="M149.815 44.866C149.248 44.866 148.788 45.3257 148.788 45.8928C148.788 46.4599 149.248 46.9196 149.815 46.9196C150.382 46.9196 150.842 46.4599 150.842 45.8928C150.842 45.3257 150.382 44.866 149.815 44.866ZM147.359 45.8928C147.359 44.5367 148.459 43.4374 149.815 43.4374C151.171 43.4374 152.27 44.5367 152.27 45.8928C152.27 47.2489 151.171 48.3482 149.815 48.3482C148.459 48.3482 147.359 47.2489 147.359 45.8928Z" fill="white"/>
<path fill-rule="evenodd" clip-rule="evenodd" d="M149.815 58.7945C149.248 58.7945 148.788 59.2542 148.788 59.8213C148.788 60.3884 149.248 60.8481 149.815 60.8481C150.382 60.8481 150.842 60.3884 150.842 59.8213C150.842 59.2542 150.382 58.7945 149.815 58.7945ZM147.359 59.8213C147.359 58.4653 148.459 57.366 149.815 57.366C151.171 57.366 152.27 58.4653 152.27 59.8213C152.27 61.1774 151.171 62.2767 149.815 62.2767C148.459 62.2767 147.359 61.1774 147.359 59.8213Z" fill="white"/>
<path fill-rule="evenodd" clip-rule="evenodd" d="M155.854 51.8303C155.287 51.8303 154.827 52.29 154.827 52.8571C154.827 53.4242 155.287 53.8839 155.854 53.8839C156.421 53.8839 156.881 53.4242 156.881 52.8571C156.881 52.29 156.421 51.8303 155.854 51.8303ZM153.398 52.8571C153.398 51.501 154.498 50.4017 155.854 50.4017C157.21 50.4017 158.309 51.501 158.309 52.8571C158.309 54.2131 157.21 55.3124 155.854 55.3124C154.498 55.3124 153.398 54.2131 153.398 52.8571Z" fill="white"/>
<path fill-rule="evenodd" clip-rule="evenodd" d="M125.787 44.866C125.22 44.866 124.761 45.3257 124.761 45.8928C124.761 46.4599 125.22 46.9196 125.787 46.9196C126.354 46.9196 126.814 46.4599 126.814 45.8928C126.814 45.3257 126.354 44.866 125.787 44.866ZM123.332 45.8928C123.332 44.5367 124.431 43.4374 125.787 43.4374C127.143 43.4374 128.243 44.5367 128.243 45.8928C128.243 47.2489 127.143 48.3482 125.787 48.3482C124.431 48.3482 123.332 47.2489 123.332 45.8928Z" fill="white"/>
<path fill-rule="evenodd" clip-rule="evenodd" d="M125.787 58.7945C125.22 58.7945 124.761 59.2542 124.761 59.8213C124.761 60.3884 125.22 60.8481 125.787 60.8481C126.354 60.8481 126.814 60.3884 126.814 59.8213C126.814 59.2542 126.354 58.7945 125.787 58.7945ZM123.332 59.8213C123.332 58.4653 124.431 57.366 125.787 57.366C127.143 57.366 128.243 58.4653 128.243 59.8213C128.243 61.1774 127.143 62.2767 125.787 62.2767C124.431 62.2767 123.332 61.1774 123.332 59.8213Z" fill="white"/>
<path fill-rule="evenodd" clip-rule="evenodd" d="M119.748 51.8303C119.181 51.8303 118.722 52.29 118.722 52.8571C118.722 53.4242 119.181 53.8839 119.748 53.8839C120.315 53.8839 120.775 53.4242 120.775 52.8571C120.775 52.29 120.315 51.8303 119.748 51.8303ZM117.293 52.8571C117.293 51.501 118.392 50.4017 119.748 50.4017C121.104 50.4017 122.204 51.501 122.204 52.8571C122.204 54.2131 121.104 55.3124 119.748 55.3124C118.392 55.3124 117.293 54.2131 117.293 52.8571Z" fill="white"/>
<path fill-rule="evenodd" clip-rule="evenodd" d="M146.916 36.0447C146.349 36.0447 145.89 36.5044 145.89 37.0714C145.89 37.6385 146.349 38.0982 146.916 38.0982C147.483 38.0982 147.943 37.6385 147.943 37.0714C147.943 36.5044 147.483 36.0447 146.916 36.0447ZM144.461 37.0714C144.461 35.7154 145.56 34.6161 146.916 34.6161C148.272 34.6161 149.372 35.7154 149.372 37.0714C149.372 38.4275 148.272 39.5268 146.916 39.5268C145.56 39.5268 144.461 38.4275 144.461 37.0714Z" fill="white"/>
<path fill-rule="evenodd" clip-rule="evenodd" d="M128.803 36.0447C128.236 36.0447 127.776 36.5044 127.776 37.0714C127.776 37.6385 128.236 38.0982 128.803 38.0982C129.37 38.0982 129.83 37.6385 129.83 37.0714C129.83 36.5044 129.37 36.0447 128.803 36.0447ZM126.348 37.0714C126.348 35.7154 127.447 34.6161 128.803 34.6161C130.159 34.6161 131.258 35.7154 131.258 37.0714C131.258 38.4275 130.159 39.5268 128.803 39.5268C127.447 39.5268 126.348 38.4275 126.348 37.0714Z" fill="white"/>
<path fill-rule="evenodd" clip-rule="evenodd" d="M137.975 37.9017C137.408 37.9017 136.948 38.3614 136.948 38.9285C136.948 39.4956 137.408 39.9553 137.975 39.9553C138.542 39.9553 139.002 39.4956 139.002 38.9285C139.002 38.3614 138.542 37.9017 137.975 37.9017ZM135.52 38.9285C135.52 37.5724 136.619 36.4731 137.975 36.4731C139.331 36.4731 140.43 37.5724 140.43 38.9285C140.43 40.2846 139.331 41.3839 137.975 41.3839C136.619 41.3839 135.52 40.2846 135.52 38.9285Z" fill="white"/>
<path fill-rule="evenodd" clip-rule="evenodd" d="M146.916 68.0803C146.349 68.0803 145.89 68.54 145.89 69.1071C145.89 69.6742 146.349 70.1339 146.916 70.1339C147.483 70.1339 147.943 69.6742 147.943 69.1071C147.943 68.54 147.483 68.0803 146.916 68.0803ZM144.461 69.1071C144.461 67.751 145.56 66.6517 146.916 66.6517C148.272 66.6517 149.372 67.751 149.372 69.1071C149.372 70.4631 148.272 71.5624 146.916 71.5624C145.56 71.5624 144.461 70.4631 144.461 69.1071Z" fill="white"/>
<path fill-rule="evenodd" clip-rule="evenodd" d="M128.803 68.0803C128.236 68.0803 127.776 68.54 127.776 69.1071C127.776 69.6742 128.236 70.1339 128.803 70.1339C129.37 70.1339 129.83 69.6742 129.83 69.1071C129.83 68.54 129.37 68.0803 128.803 68.0803ZM126.348 69.1071C126.348 67.751 127.447 66.6517 128.803 66.6517C130.159 66.6517 131.258 67.751 131.258 69.1071C131.258 70.4631 130.159 71.5624 128.803 71.5624C127.447 71.5624 126.348 70.4631 126.348 69.1071Z" fill="white"/>
<path fill-rule="evenodd" clip-rule="evenodd" d="M137.975 66.2232C137.408 66.2232 136.948 66.6829 136.948 67.25C136.948 67.8171 137.408 68.2768 137.975 68.2768C138.542 68.2768 139.002 67.8171 139.002 67.25C139.002 66.6829 138.542 66.2232 137.975 66.2232ZM135.52 67.25C135.52 65.8939 136.619 64.7946 137.975 64.7946C139.331 64.7946 140.43 65.8939 140.43 67.25C140.43 68.606 139.331 69.7053 137.975 69.7053C136.619 69.7053 135.52 68.606 135.52 67.25Z" fill="white"/>
<path fill-rule="evenodd" clip-rule="evenodd" d="M129.731 51.2499C128.843 51.2499 128.124 51.9695 128.124 52.8571C128.124 53.7447 128.843 54.4642 129.731 54.4642C130.619 54.4642 131.338 53.7447 131.338 52.8571C131.338 51.9695 130.619 51.2499 129.731 51.2499ZM126.695 52.8571C126.695 51.1805 128.054 49.8214 129.731 49.8214C131.408 49.8214 132.767 51.1805 132.767 52.8571C132.767 54.5336 131.408 55.8928 129.731 55.8928C128.054 55.8928 126.695 54.5336 126.695 52.8571Z" fill="white"/>
<path fill-rule="evenodd" clip-rule="evenodd" d="M133.797 58.2142C132.91 58.2142 132.19 58.9338 132.19 59.8214C132.19 60.709 132.91 61.4285 133.797 61.4285C134.685 61.4285 135.405 60.709 135.405 59.8214C135.405 58.9338 134.685 58.2142 133.797 58.2142ZM130.762 59.8214C130.762 58.1448 132.121 56.7856 133.797 56.7856C135.474 56.7856 136.833 58.1448 136.833 59.8214C136.833 61.4979 135.474 62.8571 133.797 62.8571C132.121 62.8571 130.762 61.4979 130.762 59.8214Z" fill="white"/>
<path fill-rule="evenodd" clip-rule="evenodd" d="M141.919 58.2142C141.031 58.2142 140.311 58.9338 140.311 59.8214C140.311 60.709 141.031 61.4285 141.919 61.4285C142.806 61.4285 143.526 60.709 143.526 59.8214C143.526 58.9338 142.806 58.2142 141.919 58.2142ZM138.883 59.8214C138.883 58.1448 140.242 56.7856 141.919 56.7856C143.595 56.7856 144.954 58.1448 144.954 59.8214C144.954 61.4979 143.595 62.8571 141.919 62.8571C140.242 62.8571 138.883 61.4979 138.883 59.8214Z" fill="white"/>
<path fill-rule="evenodd" clip-rule="evenodd" d="M137.857 31.7589C137.265 31.7589 136.785 31.2792 136.785 30.6875C136.785 30.0957 137.265 29.6161 137.857 29.6161C138.448 29.6161 138.928 30.0957 138.928 30.6875C138.928 31.2792 138.448 31.7589 137.857 31.7589Z" fill="white"/>
<path fill-rule="evenodd" clip-rule="evenodd" d="M150.626 32.6874C150.034 32.6874 149.555 32.2077 149.555 31.6159C149.555 31.0242 150.034 30.5445 150.626 30.5445C151.218 30.5445 151.698 31.0242 151.698 31.6159C151.698 32.2077 151.218 32.6874 150.626 32.6874Z" fill="white"/>
<path fill-rule="evenodd" clip-rule="evenodd" d="M150.626 75.2858C150.034 75.2858 149.555 74.8061 149.555 74.2143C149.555 73.6226 150.034 73.1429 150.626 73.1429C151.218 73.1429 151.698 73.6226 151.698 74.2143C151.698 74.8061 151.218 75.2858 150.626 75.2858Z" fill="white"/>
<path fill-rule="evenodd" clip-rule="evenodd" d="M156.427 64.3749C155.835 64.3749 155.355 63.8952 155.355 63.3035C155.355 62.7118 155.835 62.2321 156.427 62.2321C157.019 62.2321 157.498 62.7118 157.498 63.3035C157.498 63.8952 157.019 64.3749 156.427 64.3749Z" fill="white"/>
<path fill-rule="evenodd" clip-rule="evenodd" d="M156.427 42.3214C155.835 42.3214 155.355 41.8417 155.355 41.2499C155.355 40.6582 155.835 40.1785 156.427 40.1785C157.019 40.1785 157.498 40.6582 157.498 41.2499C157.498 41.8417 157.019 42.3214 156.427 42.3214Z" fill="white"/>
<path fill-rule="evenodd" clip-rule="evenodd" d="M119.282 64.3749C118.691 64.3749 118.211 63.8952 118.211 63.3035C118.211 62.7118 118.691 62.2321 119.282 62.2321C119.874 62.2321 120.354 62.7118 120.354 63.3035C120.354 63.8952 119.874 64.3749 119.282 64.3749Z" fill="white"/>
<path fill-rule="evenodd" clip-rule="evenodd" d="M119.282 42.3214C118.691 42.3214 118.211 41.8417 118.211 41.2499C118.211 40.6582 118.691 40.1785 119.282 40.1785C119.874 40.1785 120.354 40.6582 120.354 41.2499C120.354 41.8417 119.874 42.3214 119.282 42.3214Z" fill="white"/>
<path fill-rule="evenodd" clip-rule="evenodd" d="M125.087 32.6874C124.495 32.6874 124.016 32.2077 124.016 31.6159C124.016 31.0242 124.495 30.5445 125.087 30.5445C125.679 30.5445 126.158 31.0242 126.158 31.6159C126.158 32.2077 125.679 32.6874 125.087 32.6874Z" fill="white"/>
<path fill-rule="evenodd" clip-rule="evenodd" d="M125.087 75.2858C124.495 75.2858 124.016 74.8061 124.016 74.2143C124.016 73.6226 124.495 73.1429 125.087 73.1429C125.679 73.1429 126.158 73.6226 126.158 74.2143C126.158 74.8061 125.679 75.2858 125.087 75.2858Z" fill="white"/>
<path fill-rule="evenodd" clip-rule="evenodd" d="M137.857 75.9821C137.265 75.9821 136.785 75.5024 136.785 74.9106C136.785 74.3189 137.265 73.8392 137.857 73.8392C138.448 73.8392 138.928 74.3189 138.928 74.9106C138.928 75.5024 138.448 75.9821 137.857 75.9821Z" fill="white"/>
<path fill-rule="evenodd" clip-rule="evenodd" d="M113.603 53.9285C113.011 53.9285 112.531 53.4488 112.531 52.8571C112.531 52.2654 113.011 51.7857 113.603 51.7857C114.194 51.7857 114.674 52.2654 114.674 52.8571C114.674 53.4488 114.194 53.9285 113.603 53.9285Z" fill="white"/>
<path fill-rule="evenodd" clip-rule="evenodd" d="M162.232 53.9285C161.64 53.9285 161.16 53.4488 161.16 52.857C161.16 52.2653 161.64 51.7856 162.232 51.7856C162.823 51.7856 163.303 52.2653 163.303 52.857C163.303 53.4488 162.823 53.9285 162.232 53.9285Z" fill="white"/>
</svg>
