<svg width="563" height="437" viewBox="0 0 563 437" fill="none" xmlns="http://www.w3.org/2000/svg">
<path fill-rule="evenodd" clip-rule="evenodd" d="M0 -86C0 -108.091 17.9086 -126 40 -126H241.5C263.591 -126 281.5 -108.091 281.5 -86V89.8772C281.5 107.281 288.414 123.973 300.72 136.28C313.027 148.586 329.719 155.5 347.123 155.5H523C545.091 155.5 563 173.409 563 195.5V397C563 419.091 545.091 437 523 437H321.5C299.409 437 281.5 419.091 281.5 397V221.126C281.5 203.721 274.586 187.029 262.278 174.722C249.971 162.414 233.279 155.5 215.874 155.5H40C17.9086 155.5 0 137.591 0 115.5V-86Z" fill="white"/>
</svg>
