<svg width="563" height="563" viewBox="0 0 563 563" fill="none" xmlns="http://www.w3.org/2000/svg">
<path fill-rule="evenodd" clip-rule="evenodd" d="M523 -1.74846e-06C545.091 -7.8281e-07 563 17.9086 563 40L563 241.5C563 263.591 545.091 281.5 523 281.5L347.123 281.5C329.719 281.5 313.027 288.414 300.72 300.72C288.414 313.027 281.5 329.719 281.5 347.123L281.5 523C281.5 545.091 263.591 563 241.5 563L40 563C17.9086 563 -2.38267e-05 545.091 -2.28611e-05 523L-1.40532e-05 321.5C-1.30876e-05 299.409 17.9086 281.5 40 281.5L215.874 281.5C233.279 281.5 249.971 274.586 262.278 262.278C274.586 249.971 281.5 233.279 281.5 215.874L281.5 40C281.5 17.9086 299.409 -1.15219e-05 321.5 -1.05563e-05L523 -1.74846e-06Z" fill="#03A081"/>
</svg>
