<svg width="32" height="32" viewBox="0 0 32 32" fill="none" xmlns="http://www.w3.org/2000/svg">
<path d="M29.3333 11.3332C29.3333 16.1198 25.4533 19.9998 20.6667 19.9998C20.44 19.9998 20.2 19.9865 19.9733 19.9732C19.64 15.7465 16.2533 12.3598 12.0267 12.0265C12.0133 11.7998 12 11.5598 12 11.3332C12 6.5465 15.88 2.6665 20.6667 2.6665C25.4533 2.6665 29.3333 6.5465 29.3333 11.3332Z" stroke="white" stroke-width="1.5" stroke-linecap="round" stroke-linejoin="round"/>
<path d="M20.0013 20.6667C20.0013 25.4533 16.1213 29.3333 11.3346 29.3333C6.54797 29.3333 2.66797 25.4533 2.66797 20.6667C2.66797 15.88 6.54797 12 11.3346 12C11.5613 12 11.8013 12.0133 12.028 12.0267C16.2546 12.36 19.6413 15.7467 19.9747 19.9733C19.988 20.2 20.0013 20.44 20.0013 20.6667Z" stroke="white" stroke-width="1.5" stroke-linecap="round" stroke-linejoin="round"/>
<path d="M7.45463 2.6665H4.0013C3.26797 2.6665 2.66797 3.2665 2.66797 3.99984V7.45317C2.66797 8.63983 4.10796 9.23982 4.94796 8.39982L8.40129 4.94649C9.22795 4.10649 8.6413 2.6665 7.45463 2.6665Z" stroke="white" stroke-width="1.5" stroke-linecap="round" stroke-linejoin="round"/>
<path d="M24.5476 29.3333H28.0009C28.7343 29.3333 29.3343 28.7333 29.3343 28V24.5467C29.3343 23.36 27.8943 22.76 27.0543 23.6L23.6009 27.0534C22.7743 27.8934 23.3609 29.3333 24.5476 29.3333Z" stroke="white" stroke-width="1.5" stroke-linecap="round" stroke-linejoin="round"/>
</svg>
