<svg width="1680" height="279" viewBox="0 0 1680 279" fill="none" xmlns="http://www.w3.org/2000/svg">
<path fill-rule="evenodd" clip-rule="evenodd" d="M277.333 12.0465C269.806 4.34299 259.492 0 248.722 0H40C17.9086 0 0 17.9086 0 40V239C0 261.091 17.9087 279 40 279H1640C1662.09 279 1680 261.091 1680 239V40C1680 17.9086 1662.09 0 1640 0H1432C1421.06 0 1410.6 4.47684 1403.05 12.3889L1361.82 55.6111C1354.27 63.5232 1343.81 68 1332.88 68H348.842C338.072 68 327.757 63.657 320.23 55.9535L277.333 12.0465Z" fill="white"/>
</svg>
