<svg width="16" height="28" viewBox="0 0 16 28" xmlns="http://www.w3.org/2000/svg">
<path d="M9 1.00006C9 0.447776 8.55228 6.10272e-05 8 6.10694e-05C7.44772 6.10272e-05 7 0.447776 7 1.00006H9ZM7.29289 27.163C7.68342 27.5535 8.31658 27.5535 8.70711 27.163L15.0711 20.7991C15.4616 20.4085 15.4616 19.7754 15.0711 19.3848C14.6805 18.9943 14.0474 18.9943 13.6569 19.3848L8 25.0417L2.34315 19.3848C1.95262 18.9943 1.31946 18.9943 0.928932 19.3848C0.538408 19.7754 0.538408 20.4085 0.928932 20.7991L7.29289 27.163ZM7 1.00006L7 26.4559H9L9 1.00006H7Z"/>
</svg>
