<svg xmlns="http://www.w3.org/2000/svg" width="26" height="26" viewBox="0 0 26 26" fill="none">
<path d="M23.8337 18.135V5.05917C23.8337 3.75917 22.772 2.795 21.4828 2.90333H21.4178C19.1428 3.09833 15.687 4.2575 13.7587 5.47083L13.5745 5.59C13.2603 5.785 12.7403 5.785 12.4262 5.59L12.1553 5.4275C10.227 4.225 6.78199 3.07667 4.50699 2.8925C3.21783 2.78417 2.16699 3.75917 2.16699 5.04833V18.135C2.16699 19.175 3.01199 20.15 4.05199 20.28L4.36616 20.3233C6.71699 20.6375 10.3462 21.8292 12.4262 22.9667L12.4695 22.9883C12.762 23.1508 13.2278 23.1508 13.5095 22.9883C15.5895 21.84 19.2295 20.6375 21.5912 20.3233L21.9487 20.28C22.9887 20.15 23.8337 19.175 23.8337 18.135Z" stroke="#03A081" stroke-width="1.5" stroke-linecap="round" stroke-linejoin="round"/>
<path d="M13 5.94751V22.1975" stroke="#03A081" stroke-width="1.5" stroke-linecap="round" stroke-linejoin="round"/>
<path d="M8.39551 9.19751H5.95801" stroke="#03A081" stroke-width="1.5" stroke-linecap="round" stroke-linejoin="round"/>
<path d="M9.20801 12.4475H5.95801" stroke="#03A081" stroke-width="1.5" stroke-linecap="round" stroke-linejoin="round"/>
</svg>