<svg width="24" height="24" viewBox="0 0 24 24" fill="none" xmlns="http://www.w3.org/2000/svg">
<path d="M16.001 8.00024H8.00098V16.0002H16.001V8.00024Z" stroke="#050505" stroke-width="1.5" stroke-linecap="round" stroke-linejoin="round"/>
<path d="M5.00098 21.9998C6.65098 21.9998 8.00098 20.6498 8.00098 18.9998V15.9998H5.00098C3.35098 15.9998 2.00098 17.3498 2.00098 18.9998C2.00098 20.6498 3.35098 21.9998 5.00098 21.9998Z" stroke="#050505" stroke-width="1.5" stroke-linecap="round" stroke-linejoin="round"/>
<path d="M5.00098 8.00024H8.00098V5.00024C8.00098 3.35024 6.65098 2.00024 5.00098 2.00024C3.35098 2.00024 2.00098 3.35024 2.00098 5.00024C2.00098 6.65024 3.35098 8.00024 5.00098 8.00024Z" stroke="#050505" stroke-width="1.5" stroke-linecap="round" stroke-linejoin="round"/>
<path d="M15.999 8.00024H18.999C20.649 8.00024 21.999 6.65024 21.999 5.00024C21.999 3.35024 20.649 2.00024 18.999 2.00024C17.349 2.00024 15.999 3.35024 15.999 5.00024V8.00024Z" stroke="#050505" stroke-width="1.5" stroke-linecap="round" stroke-linejoin="round"/>
<path d="M18.999 21.9998C20.649 21.9998 21.999 20.6498 21.999 18.9998C21.999 17.3498 20.649 15.9998 18.999 15.9998H15.999V18.9998C15.999 20.6498 17.349 21.9998 18.999 21.9998Z" stroke="#050505" stroke-width="1.5" stroke-linecap="round" stroke-linejoin="round"/>
</svg>
