<svg width="36" height="36" viewBox="0 0 36 36" fill="none" xmlns="http://www.w3.org/2000/svg">
<path d="M18 24V28.5" stroke="white" stroke-width="1.5" stroke-miterlimit="10" stroke-linecap="round" stroke-linejoin="round"/>
<path d="M18 34.5C19.6569 34.5 21 33.1569 21 31.5C21 29.8431 19.6569 28.5 18 28.5C16.3431 28.5 15 29.8431 15 31.5C15 33.1569 16.3431 34.5 18 34.5Z" stroke="white" stroke-width="1.5" stroke-miterlimit="10" stroke-linecap="round" stroke-linejoin="round"/>
<path d="M27 31.5H21" stroke="white" stroke-width="1.5" stroke-miterlimit="10" stroke-linecap="round" stroke-linejoin="round"/>
<path d="M15 31.5H9" stroke="white" stroke-width="1.5" stroke-miterlimit="10" stroke-linecap="round" stroke-linejoin="round"/>
<path d="M28.5 12.4501V18.75C28.5 22.95 27.45 24 23.25 24H12.75C8.55 24 7.5 22.95 7.5 18.75V8.25C7.5 4.05 8.55 3 12.75 3H14.325C15.9 3 16.245 3.46495 16.845 4.25995L18.42 6.35999C18.825 6.88499 19.05 7.20007 20.1 7.20007H23.25C27.45 7.20007 28.5 8.25007 28.5 12.4501Z" stroke="white" stroke-width="1.5" stroke-miterlimit="10"/>
</svg>
