<svg width="38" height="38" viewBox="0 0 38 38" fill="none" xmlns="http://www.w3.org/2000/svg">
<path d="M31.6673 15.2C31.6673 8.86671 29.134 6.33337 22.8007 6.33337H15.2007C8.86732 6.33337 6.33398 8.86671 6.33398 15.2V22.8C6.33398 29.1334 8.86732 31.6667 15.2007 31.6667" stroke="white" stroke-width="2" stroke-linecap="round" stroke-linejoin="round"/>
<path d="M25.8882 12.6667C25.0173 11.5584 23.5607 11.0834 21.3757 11.0834H16.6257C12.6673 11.0834 11.084 12.6667 11.084 16.625V21.375C11.084 23.56 11.559 25.0167 12.6515 25.8875" stroke="white" stroke-width="2" stroke-linecap="round" stroke-linejoin="round"/>
<path d="M12.6816 6.33329V3.16663" stroke="white" stroke-width="2" stroke-linecap="round" stroke-linejoin="round"/>
<path d="M19 6.33329V3.16663" stroke="white" stroke-width="2" stroke-linecap="round" stroke-linejoin="round"/>
<path d="M25.334 6.33329V3.16663" stroke="white" stroke-width="2" stroke-linecap="round" stroke-linejoin="round"/>
<path d="M31.666 12.6666H34.8327" stroke="white" stroke-width="2" stroke-linecap="round" stroke-linejoin="round"/>
<path d="M12.6816 31.6666V34.8333" stroke="white" stroke-width="2" stroke-linecap="round" stroke-linejoin="round"/>
<path d="M3.16602 12.6666H6.33268" stroke="white" stroke-width="2" stroke-linecap="round" stroke-linejoin="round"/>
<path d="M3.16602 19H6.33268" stroke="white" stroke-width="2" stroke-linecap="round" stroke-linejoin="round"/>
<path d="M3.16602 25.3334H6.33268" stroke="white" stroke-width="2" stroke-linecap="round" stroke-linejoin="round"/>
<path d="M26.457 29.4342C27.8473 29.4342 28.9745 28.307 28.9745 26.9167C28.9745 25.5263 27.8473 24.3992 26.457 24.3992C25.0666 24.3992 23.9395 25.5263 23.9395 26.9167C23.9395 28.307 25.0666 29.4342 26.457 29.4342Z" stroke="white" stroke-width="2" stroke-miterlimit="10" stroke-linecap="round" stroke-linejoin="round"/>
<path d="M18.0664 27.645V26.1725C18.0664 25.3016 18.7789 24.5891 19.6497 24.5891C21.1697 24.5891 21.7872 23.5125 21.0272 22.1983C20.5839 21.4383 20.8531 20.4566 21.6131 20.0291L23.0539 19.19C23.7189 18.7941 24.5739 19.0316 24.9697 19.6966L25.0647 19.855C25.8247 21.1691 27.0597 21.1691 27.8197 19.855L27.9147 19.6966C28.3106 19.0316 29.1656 18.81 29.8306 19.19L31.2714 20.0291C32.0314 20.4725 32.3006 21.4383 31.8572 22.1983C31.0972 23.5125 31.7147 24.5891 33.2347 24.5891C34.1056 24.5891 34.8181 25.3016 34.8181 26.1725V27.645C34.8181 28.5158 34.1056 29.2283 33.2347 29.2283C31.7147 29.2283 31.0972 30.305 31.8572 31.6191C32.3006 32.3791 32.0314 33.3608 31.2714 33.7883L29.8306 34.6275C29.1656 35.0233 28.3106 34.7858 27.9147 34.1208L27.8197 33.9625C27.0597 32.6483 25.8247 32.6483 25.0647 33.9625L24.9697 34.1208C24.5739 34.7858 23.7189 35.0075 23.0539 34.6275L21.6131 33.7883C20.8531 33.345 20.5839 32.3791 21.0272 31.6191C21.7872 30.305 21.1697 29.2283 19.6497 29.2283C18.7789 29.2441 18.0664 28.5316 18.0664 27.645Z" stroke="white" stroke-width="2" stroke-miterlimit="10" stroke-linecap="round" stroke-linejoin="round"/>
</svg>
