<svg width="38" height="38" viewBox="0 0 38 38" fill="none" xmlns="http://www.w3.org/2000/svg">
<path d="M18.9993 34.8334C27.7439 34.8334 34.8327 27.7445 34.8327 19C34.8327 10.2555 27.7439 3.16669 18.9993 3.16669C10.2548 3.16669 3.16602 10.2555 3.16602 19C3.16602 27.7445 10.2548 34.8334 18.9993 34.8334Z" stroke="#777777" stroke-width="2" stroke-linecap="round" stroke-linejoin="round"/>
<path d="M12.6659 4.75H14.2492C11.1617 13.9967 11.1617 24.0033 14.2492 33.25H12.6659" stroke="#777777" stroke-width="2" stroke-linecap="round" stroke-linejoin="round"/>
<path d="M23.75 4.75C26.8375 13.9967 26.8375 24.0033 23.75 33.25" stroke="#777777" stroke-width="2" stroke-linecap="round" stroke-linejoin="round"/>
<path d="M4.75 25.3333V23.75C13.9967 26.8375 24.0033 26.8375 33.25 23.75V25.3333" stroke="#777777" stroke-width="2" stroke-linecap="round" stroke-linejoin="round"/>
<path d="M4.75 14.25C13.9967 11.1625 24.0033 11.1625 33.25 14.25" stroke="#777777" stroke-width="2" stroke-linecap="round" stroke-linejoin="round"/>
</svg>
