<svg width="24" height="25" viewBox="0 0 24 25" fill="none" xmlns="http://www.w3.org/2000/svg">
<path d="M8 7.5H12M8 11.5H16M8 15.5H16M5 2.5H19C20.1046 2.5 21 3.39543 21 4.5V19.6543C21 21.0396 19.6259 22.0053 18.3226 21.5361L16.7608 20.9739C16.2728 20.7982 15.7356 20.819 15.2626 21.0318L12.8207 22.1307C12.2988 22.3655 11.7012 22.3655 11.1793 22.1307L8.73737 21.0318C8.26439 20.819 7.72721 20.7982 7.2392 20.9739L5.67744 21.5361C4.37412 22.0053 3 21.0396 3 19.6543V4.5C3 3.39543 3.89543 2.5 5 2.5Z" stroke="#03A081" stroke-width="2" stroke-linecap="round"/>
</svg>
