<svg width="205" height="29" viewBox="0 0 205 29" fill="none" xmlns="http://www.w3.org/2000/svg">
<path d="M0 0.894531H23.9453C28.3854 0.894531 31.875 3.19271 34.4141 7.78906C35.1823 9.2474 35.5664 10.8229 35.5664 12.5156V29H12.9102C7.12891 29 3.06641 26.181 0.722656 20.543C0.240885 19.3711 0 17.9844 0 16.3828V11.2266H31.8359C31.1589 8.79167 29.8177 6.92318 27.8125 5.62109C26.263 4.86589 24.8763 4.48828 23.6523 4.48828H0V0.894531ZM3.59375 14.8008V15.8164C3.59375 20.8555 6.17188 24.0065 11.3281 25.2695C12.0573 25.3607 12.8711 25.4062 13.7695 25.4062H31.9727V14.8008H3.59375ZM39.0625 0.972656H42.6367V4.41016C45.1107 2.11849 47.8255 0.972656 50.7812 0.972656H64.6484V4.54688H50.9375C47.8385 4.54688 45.3581 6.16797 43.4961 9.41016C42.9232 10.543 42.6367 11.8776 42.6367 13.4141V29H39.0625V0.972656ZM68.3594 0.894531H92.3047C96.7448 0.894531 100.234 3.19271 102.773 7.78906C103.542 9.2474 103.926 10.8229 103.926 12.5156V29H81.2695C75.4883 29 71.4258 26.181 69.082 20.543C68.6003 19.3711 68.3594 17.9844 68.3594 16.3828V11.2266H100.195C99.5182 8.79167 98.1771 6.92318 96.1719 5.62109C94.6224 4.86589 93.2357 4.48828 92.0117 4.48828H68.3594V0.894531ZM71.9531 14.8008V15.8164C71.9531 20.8555 74.5312 24.0065 79.6875 25.2695C80.4167 25.3607 81.2305 25.4062 82.1289 25.4062H100.332V14.8008H71.9531ZM107.422 0.972656H110.996V16.8516C110.996 20.7057 113.138 23.4661 117.422 25.1328C118.62 25.3281 119.622 25.4258 120.43 25.4258H135.156V29H119.863C115.02 29 111.348 26.8581 108.848 22.5742C107.897 20.8685 107.422 18.9609 107.422 16.8516V0.972656ZM151.348 1.05078H163.457C167.793 1.05078 171.263 3.28385 173.867 7.75C174.635 9.50781 175.02 10.9792 175.02 12.1641V12.8867C175.02 12.9779 175.065 13.0234 175.156 13.0234L175.02 13.3164V17.0273C175.02 22.1185 172.357 25.8685 167.031 28.2773C165.56 28.7591 164.082 29 162.598 29H152.051C146.27 29 142.279 26.0508 140.078 20.1523C139.792 18.9544 139.648 17.8151 139.648 16.7344V13.3164C139.648 7.54818 142.643 3.55729 148.633 1.34375C149.779 1.14844 150.684 1.05078 151.348 1.05078ZM143.223 13.6094V16.168C143.223 20.6471 145.312 23.5964 149.492 25.0156C150.208 25.2891 151.25 25.4258 152.617 25.4258H162.031C166.745 25.4258 169.785 23.2448 171.152 18.8828C171.348 18.1146 171.445 17.3073 171.445 16.4609V12.75C171.445 9.40365 169.544 6.83203 165.742 5.03516C164.727 4.76172 163.874 4.625 163.184 4.625H151.484C148.203 4.625 145.684 6.38281 143.926 9.89844C143.457 10.9661 143.223 12.2031 143.223 13.6094ZM178.711 0.972656H182.285C182.507 0.972656 183.314 4.16927 184.707 10.5625C187.09 19.9505 188.281 24.9049 188.281 25.4258H194.297C194.518 25.4258 195.326 22.2292 196.719 15.8359C199.102 6.42188 200.293 1.46745 200.293 0.972656H204.023V1.10938C204.023 1.4349 201.784 10.7318 197.305 29H185.43C185.339 28.1927 183.099 18.8503 178.711 0.972656Z" fill="#050505"/>
<path d="M0 0.894531V0.394531H-0.5V0.894531H0ZM34.4141 7.78906L34.8565 7.55598L34.8517 7.54729L34.4141 7.78906ZM35.5664 29V29.5H36.0664V29H35.5664ZM0.722656 20.543L0.260207 20.7331L0.26096 20.7349L0.722656 20.543ZM0 11.2266V10.7266H-0.5V11.2266H0ZM31.8359 11.2266V11.7266H32.4939L32.3177 11.0926L31.8359 11.2266ZM27.8125 5.62109L28.0848 5.20175L28.0591 5.18506L28.0316 5.17164L27.8125 5.62109ZM0 4.48828H-0.5V4.98828H0V4.48828ZM3.59375 14.8008V14.3008H3.09375V14.8008H3.59375ZM11.3281 25.2695L11.2092 25.7552L11.2373 25.7621L11.2661 25.7657L11.3281 25.2695ZM31.9727 25.4062V25.9062H32.4727V25.4062H31.9727ZM31.9727 14.8008H32.4727V14.3008H31.9727V14.8008ZM0 1.39453H23.9453V0.394531H0V1.39453ZM23.9453 1.39453C28.1668 1.39453 31.5061 3.55899 33.9764 8.03083L34.8517 7.54729C32.2439 2.82643 28.604 0.394531 23.9453 0.394531V1.39453ZM33.9717 8.0221C34.701 9.4066 35.0664 10.9019 35.0664 12.5156H36.0664C36.0664 10.744 35.6636 9.08819 34.8564 7.55603L33.9717 8.0221ZM35.0664 12.5156V29H36.0664V12.5156H35.0664ZM35.5664 28.5H12.9102V29.5H35.5664V28.5ZM12.9102 28.5C10.1037 28.5 7.74648 27.817 5.81239 26.475C3.8764 25.1315 2.32814 23.1025 1.18435 20.351L0.26096 20.7349C1.46093 23.6215 3.11579 25.8209 5.24229 27.2965C7.37071 28.7735 9.93535 29.5 12.9102 29.5V28.5ZM1.1851 20.3529C0.733731 19.2549 0.5 17.9357 0.5 16.3828H-0.5C-0.5 18.033 -0.25196 19.4873 0.260211 20.7331L1.1851 20.3529ZM0.5 16.3828V11.2266H-0.5V16.3828H0.5ZM0 11.7266H31.8359V10.7266H0V11.7266ZM32.3177 11.0926C31.6099 8.54754 30.1985 6.57426 28.0848 5.20175L27.5402 6.04044C29.4369 7.27209 30.7078 9.0358 31.3542 11.3605L32.3177 11.0926ZM28.0316 5.17164C26.4399 4.39588 24.9767 3.98828 23.6523 3.98828V4.98828C24.7759 4.98828 26.0861 5.33589 27.5934 6.07055L28.0316 5.17164ZM23.6523 3.98828H0V4.98828H23.6523V3.98828ZM0.5 4.48828V0.894531H-0.5V4.48828H0.5ZM3.09375 14.8008V15.8164H4.09375V14.8008H3.09375ZM3.09375 15.8164C3.09375 18.4231 3.76213 20.5911 5.14037 22.2756C6.51638 23.9574 8.55778 25.1057 11.2092 25.7552L11.4471 24.7839C8.94222 24.1703 7.11643 23.1116 5.91432 21.6424C4.71443 20.1758 4.09375 18.2488 4.09375 15.8164H3.09375ZM11.2661 25.7657C12.0198 25.8599 12.8547 25.9062 13.7695 25.9062V24.9062C12.8875 24.9062 12.0948 24.8615 11.3901 24.7734L11.2661 25.7657ZM13.7695 25.9062H31.9727V24.9062H13.7695V25.9062ZM32.4727 25.4062V14.8008H31.4727V25.4062H32.4727ZM31.9727 14.3008H3.59375V15.3008H31.9727V14.3008ZM39.0625 0.972656V0.472656H38.5625V0.972656H39.0625ZM42.6367 0.972656H43.1367V0.472656H42.6367V0.972656ZM42.6367 4.41016H42.1367V5.55487L42.9765 4.77697L42.6367 4.41016ZM64.6484 0.972656H65.1484V0.472656H64.6484V0.972656ZM64.6484 4.54688V5.04688H65.1484V4.54688H64.6484ZM43.4961 9.41016L43.0625 9.16115L43.0559 9.17266L43.0499 9.1845L43.4961 9.41016ZM42.6367 29V29.5H43.1367V29H42.6367ZM39.0625 29H38.5625V29.5H39.0625V29ZM39.0625 1.47266H42.6367V0.472656H39.0625V1.47266ZM42.1367 0.972656V4.41016H43.1367V0.972656H42.1367ZM42.9765 4.77697C45.372 2.55796 47.9694 1.47266 50.7812 1.47266V0.472656C47.6817 0.472656 44.8493 1.67902 42.2969 4.04335L42.9765 4.77697ZM50.7812 1.47266H64.6484V0.472656H50.7812V1.47266ZM64.1484 0.972656V4.54688H65.1484V0.972656H64.1484ZM64.6484 4.04688H50.9375V5.04688H64.6484V4.04688ZM50.9375 4.04688C47.6198 4.04688 44.9919 5.80152 43.0625 9.16115L43.9297 9.65916C45.7242 6.53441 48.0573 5.04688 50.9375 5.04688V4.04688ZM43.0499 9.1845C42.4349 10.4005 42.1367 11.8155 42.1367 13.4141H43.1367C43.1367 11.9397 43.4114 10.6854 43.9423 9.63581L43.0499 9.1845ZM42.1367 13.4141V29H43.1367V13.4141H42.1367ZM42.6367 28.5H39.0625V29.5H42.6367V28.5ZM39.5625 29V0.972656H38.5625V29H39.5625ZM68.3594 0.894531V0.394531H67.8594V0.894531H68.3594ZM102.773 7.78906L103.216 7.55598L103.211 7.54729L102.773 7.78906ZM103.926 29V29.5H104.426V29H103.926ZM69.082 20.543L68.6196 20.7331L68.6203 20.7349L69.082 20.543ZM68.3594 11.2266V10.7266H67.8594V11.2266H68.3594ZM100.195 11.2266V11.7266H100.853L100.677 11.0926L100.195 11.2266ZM96.1719 5.62109L96.4442 5.20175L96.4185 5.18506L96.3909 5.17164L96.1719 5.62109ZM68.3594 4.48828H67.8594V4.98828H68.3594V4.48828ZM71.9531 14.8008V14.3008H71.4531V14.8008H71.9531ZM79.6875 25.2695L79.5685 25.7552L79.5967 25.7621L79.6255 25.7657L79.6875 25.2695ZM100.332 25.4062V25.9062H100.832V25.4062H100.332ZM100.332 14.8008H100.832V14.3008H100.332V14.8008ZM68.3594 1.39453H92.3047V0.394531H68.3594V1.39453ZM92.3047 1.39453C96.5262 1.39453 99.8655 3.55899 102.336 8.03083L103.211 7.54729C100.603 2.82643 96.9634 0.394531 92.3047 0.394531V1.39453ZM102.331 8.0221C103.06 9.4066 103.426 10.9019 103.426 12.5156H104.426C104.426 10.744 104.023 9.08819 103.216 7.55603L102.331 8.0221ZM103.426 12.5156V29H104.426V12.5156H103.426ZM103.926 28.5H81.2695V29.5H103.926V28.5ZM81.2695 28.5C78.4631 28.5 76.1059 27.817 74.1718 26.475C72.2358 25.1315 70.6875 23.1025 69.5437 20.351L68.6203 20.7349C69.8203 23.6215 71.4752 25.8209 73.6017 27.2965C75.7301 28.7735 78.2947 29.5 81.2695 29.5V28.5ZM69.5445 20.3529C69.0931 19.2549 68.8594 17.9357 68.8594 16.3828H67.8594C67.8594 18.033 68.1074 19.4873 68.6196 20.7331L69.5445 20.3529ZM68.8594 16.3828V11.2266H67.8594V16.3828H68.8594ZM68.3594 11.7266H100.195V10.7266H68.3594V11.7266ZM100.677 11.0926C99.9693 8.54754 98.5578 6.57426 96.4442 5.20175L95.8996 6.04044C97.7963 7.27209 99.0671 9.0358 99.7136 11.3605L100.677 11.0926ZM96.3909 5.17164C94.7993 4.39588 93.3361 3.98828 92.0117 3.98828V4.98828C93.1353 4.98828 94.4455 5.33589 95.9528 6.07055L96.3909 5.17164ZM92.0117 3.98828H68.3594V4.98828H92.0117V3.98828ZM68.8594 4.48828V0.894531H67.8594V4.48828H68.8594ZM71.4531 14.8008V15.8164H72.4531V14.8008H71.4531ZM71.4531 15.8164C71.4531 18.4231 72.1215 20.5911 73.4997 22.2756C74.8758 23.9574 76.9172 25.1057 79.5685 25.7552L79.8065 24.7839C77.3016 24.1703 75.4758 23.1116 74.2737 21.6424C73.0738 20.1758 72.4531 18.2488 72.4531 15.8164H71.4531ZM79.6255 25.7657C80.3791 25.8599 81.2141 25.9062 82.1289 25.9062V24.9062C81.2468 24.9062 80.4542 24.8615 79.7495 24.7734L79.6255 25.7657ZM82.1289 25.9062H100.332V24.9062H82.1289V25.9062ZM100.832 25.4062V14.8008H99.832V25.4062H100.832ZM100.332 14.3008H71.9531V15.3008H100.332V14.3008ZM107.422 0.972656V0.472656H106.922V0.972656H107.422ZM110.996 0.972656H111.496V0.472656H110.996V0.972656ZM117.422 25.1328L117.241 25.5988L117.29 25.6178L117.341 25.6263L117.422 25.1328ZM135.156 25.4258H135.656V24.9258H135.156V25.4258ZM135.156 29V29.5H135.656V29H135.156ZM108.848 22.5742L108.411 22.8177L108.416 22.8262L108.848 22.5742ZM107.422 1.47266H110.996V0.472656H107.422V1.47266ZM110.496 0.972656V16.8516H111.496V0.972656H110.496ZM110.496 16.8516C110.496 18.8775 111.061 20.642 112.208 22.119C113.349 23.5899 115.04 24.7427 117.241 25.5988L117.603 24.6668C115.52 23.8562 113.998 22.7955 112.998 21.506C112.002 20.2226 111.496 18.6798 111.496 16.8516H110.496ZM117.341 25.6263C118.554 25.824 119.586 25.9258 120.43 25.9258V24.9258C119.659 24.9258 118.685 24.8322 117.502 24.6393L117.341 25.6263ZM120.43 25.9258H135.156V24.9258H120.43V25.9258ZM134.656 25.4258V29H135.656V25.4258H134.656ZM135.156 28.5H119.863V29.5H135.156V28.5ZM119.863 28.5C115.203 28.5 111.693 26.457 109.279 22.3222L108.416 22.8262C111.003 27.2591 114.837 29.5 119.863 29.5V28.5ZM109.284 22.3308C108.379 20.7054 107.922 18.8828 107.922 16.8516H106.922C106.922 19.0391 107.416 21.0315 108.411 22.8176L109.284 22.3308ZM107.922 16.8516V0.972656H106.922V16.8516H107.922ZM173.867 7.75L174.325 7.54977L174.314 7.5232L174.299 7.49814L173.867 7.75ZM175.156 13.0234L175.609 13.2349L175.941 12.5234H175.156V13.0234ZM175.02 13.3164L174.566 13.105L174.52 13.2055V13.3164H175.02ZM167.031 28.2773L167.187 28.7525L167.213 28.7441L167.237 28.7329L167.031 28.2773ZM140.078 20.1523L139.592 20.2686L139.599 20.2984L139.61 20.3271L140.078 20.1523ZM148.633 1.34375L148.549 0.850859L148.503 0.85866L148.459 0.874753L148.633 1.34375ZM149.492 25.0156L149.671 24.5485L149.662 24.5452L149.653 24.5422L149.492 25.0156ZM171.152 18.8828L171.629 19.0324L171.634 19.0193L171.637 19.006L171.152 18.8828ZM165.742 5.03516L165.956 4.5831L165.915 4.56398L165.872 4.55235L165.742 5.03516ZM143.926 9.89844L143.479 9.67483L143.473 9.686L143.468 9.69744L143.926 9.89844ZM151.348 1.55078H163.457V0.550781H151.348V1.55078ZM163.457 1.55078C167.578 1.55078 170.9 3.65446 173.435 8.00186L174.299 7.49814C171.626 2.91324 168.008 0.550781 163.457 0.550781V1.55078ZM173.409 7.95023C174.165 9.67932 174.52 11.0777 174.52 12.1641H175.52C175.52 10.8806 175.106 9.33631 174.325 7.54977L173.409 7.95023ZM174.52 12.1641V12.8867H175.52V12.1641H174.52ZM174.52 12.8867C174.52 13.0094 174.551 13.1932 174.7 13.3428C174.85 13.4924 175.034 13.5234 175.156 13.5234V12.5234C175.188 12.5234 175.303 12.5317 175.407 12.6357C175.511 12.7398 175.52 12.8552 175.52 12.8867H174.52ZM174.703 12.812L174.566 13.105L175.473 13.5278L175.609 13.2349L174.703 12.812ZM174.52 13.3164V17.0273H175.52V13.3164H174.52ZM174.52 17.0273C174.52 19.4808 173.88 21.5873 172.615 23.3687C171.347 25.1544 169.429 26.6441 166.825 27.8218L167.237 28.7329C169.959 27.5017 172.035 25.912 173.43 23.9477C174.828 21.9791 175.52 19.665 175.52 17.0273H174.52ZM166.876 27.8022C165.452 28.2682 164.027 28.5 162.598 28.5V29.5C164.137 29.5 165.667 29.25 167.187 28.7525L166.876 27.8022ZM162.598 28.5H152.051V29.5H162.598V28.5ZM152.051 28.5C149.249 28.5 146.915 27.7869 145.019 26.386C143.12 24.9826 141.622 22.8603 140.547 19.9776L139.61 20.3271C140.735 23.3429 142.333 25.6443 144.425 27.1902C146.52 28.7385 149.071 29.5 152.051 29.5V28.5ZM140.564 20.0361C140.286 18.871 140.148 17.7709 140.148 16.7344H139.148C139.148 17.8593 139.298 19.0378 139.592 20.2686L140.564 20.0361ZM140.148 16.7344V13.3164H139.148V16.7344H140.148ZM140.148 13.3164C140.148 10.523 140.872 8.19298 142.294 6.29717C143.72 4.3975 145.877 2.89542 148.806 1.81275L148.459 0.874753C145.399 2.00562 143.064 3.60575 141.495 5.69697C139.922 7.79205 139.148 10.3416 139.148 13.3164H140.148ZM148.717 1.83664C149.852 1.64311 150.725 1.55078 151.348 1.55078V0.550781C150.642 0.550781 149.705 0.653764 148.549 0.850859L148.717 1.83664ZM142.723 13.6094V16.168H143.723V13.6094H142.723ZM142.723 16.168C142.723 18.4861 143.264 20.4509 144.382 22.0283C145.5 23.6064 147.164 24.7532 149.331 25.4891L149.653 24.5422C147.64 23.8588 146.17 22.8213 145.198 21.4502C144.226 20.0784 143.723 18.329 143.723 16.168H142.723ZM149.314 25.4827C150.115 25.7887 151.229 25.9258 152.617 25.9258V24.9258C151.271 24.9258 150.302 24.7894 149.671 24.5485L149.314 25.4827ZM152.617 25.9258H162.031V24.9258H152.617V25.9258ZM162.031 25.9258C164.465 25.9258 166.513 25.362 168.138 24.1963C169.764 23.0297 170.921 21.2933 171.629 19.0324L170.675 18.7333C170.017 20.8343 168.969 22.3694 167.555 23.3838C166.14 24.3991 164.311 24.9258 162.031 24.9258V25.9258ZM171.637 19.006C171.843 18.1949 171.945 17.346 171.945 16.4609H170.945C170.945 17.2685 170.852 18.0343 170.668 18.7596L171.637 19.006ZM171.945 16.4609V12.75H170.945V16.4609H171.945ZM171.945 12.75C171.945 10.9751 171.439 9.39032 170.422 8.0143C169.409 6.6445 167.909 5.50608 165.956 4.5831L165.529 5.48721C167.378 6.36111 168.729 7.40693 169.617 8.60875C170.501 9.80434 170.945 11.1785 170.945 12.75H171.945ZM165.872 4.55235C164.834 4.2728 163.934 4.125 163.184 4.125V5.125C163.813 5.125 164.619 5.25064 165.612 5.51796L165.872 4.55235ZM163.184 4.125H151.484V5.125H163.184V4.125ZM151.484 4.125C149.749 4.125 148.197 4.59178 146.848 5.5333C145.503 6.47145 144.385 7.86274 143.479 9.67483L144.373 10.122C145.225 8.41851 146.245 7.17308 147.42 6.35342C148.59 5.53713 149.939 5.125 151.484 5.125V4.125ZM143.468 9.69744C142.966 10.8402 142.723 12.1479 142.723 13.6094H143.723C143.723 12.2584 143.948 11.0921 144.384 10.0994L143.468 9.69744ZM178.711 0.972656V0.472656H178.073L178.225 1.09184L178.711 0.972656ZM184.707 10.5625L184.218 10.669L184.22 10.6773L184.222 10.6855L184.707 10.5625ZM188.281 25.4258H187.781V25.9258H188.281V25.4258ZM196.719 15.8359L196.234 15.7133L196.232 15.7213L196.23 15.7295L196.719 15.8359ZM200.293 0.972656V0.472656H199.793V0.972656H200.293ZM204.023 0.972656H204.523V0.472656H204.023V0.972656ZM197.305 29V29.5H197.697L197.79 29.1191L197.305 29ZM185.43 29L184.933 29.0561L184.983 29.5H185.43V29ZM178.711 1.47266H182.285V0.472656H178.711V1.47266ZM182.285 1.47266C182.14 1.47266 182.041 1.40805 182.001 1.37733C181.959 1.34468 181.937 1.3143 181.931 1.30683C181.92 1.29119 181.924 1.29275 181.941 1.33156C181.975 1.40366 182.022 1.53065 182.085 1.72518C182.209 2.10908 182.371 2.69591 182.572 3.49255C182.973 5.08263 183.522 7.47358 184.218 10.669L185.196 10.456C184.499 7.25819 183.947 4.85422 183.541 3.24769C183.339 2.44602 183.171 1.83411 183.037 1.41886C182.971 1.21382 182.909 1.04112 182.85 0.913438C182.822 0.852346 182.784 0.778986 182.736 0.713405C182.712 0.680959 182.672 0.631846 182.614 0.586708C182.558 0.543508 182.445 0.472656 182.285 0.472656V1.47266ZM184.222 10.6855C185.414 15.3789 186.307 18.9621 186.902 21.4362C187.199 22.6737 187.422 23.6311 187.569 24.3102C187.643 24.6501 187.698 24.9168 187.734 25.1126C187.751 25.2106 187.764 25.2874 187.772 25.3448C187.781 25.4081 187.781 25.4295 187.781 25.4258H188.781C188.781 25.3071 188.753 25.1268 188.717 24.9327C188.679 24.7211 188.621 24.442 188.546 24.0975C188.396 23.4078 188.172 22.4422 187.874 21.2024C187.277 18.7221 186.383 15.1341 185.192 10.4395L184.222 10.6855ZM188.281 25.9258H194.297V24.9258H188.281V25.9258ZM194.297 25.9258C194.456 25.9258 194.57 25.8549 194.625 25.8117C194.684 25.7666 194.724 25.7175 194.748 25.685C194.796 25.6195 194.833 25.5461 194.862 25.485C194.92 25.3573 194.983 25.1846 195.049 24.9796C195.182 24.5643 195.351 23.9524 195.553 23.1507C195.959 21.5442 196.51 19.1403 197.207 15.9424L196.23 15.7295C195.534 18.9249 194.985 21.3158 194.584 22.9059C194.382 23.7025 194.22 24.2894 194.097 24.6733C194.034 24.8678 193.986 24.9948 193.953 25.0669C193.935 25.1057 193.931 25.1072 193.943 25.0916C193.948 25.0841 193.971 25.0538 194.013 25.0211C194.053 24.9904 194.151 24.9258 194.297 24.9258V25.9258ZM197.203 15.9586C198.395 11.2511 199.289 7.65663 199.886 5.17647C200.184 3.93676 200.408 2.97294 200.558 2.28673C200.633 1.94399 200.69 1.66712 200.729 1.45822C200.764 1.26797 200.793 1.08909 200.793 0.972656H199.793C199.793 0.966111 199.793 0.984988 199.784 1.04762C199.776 1.10374 199.763 1.17934 199.745 1.27628C199.71 1.4698 199.655 1.73472 199.581 2.07314C199.433 2.74922 199.211 3.70517 198.913 4.94267C198.318 7.41693 197.425 11.0068 196.234 15.7133L197.203 15.9586ZM200.293 1.47266H204.023V0.472656H200.293V1.47266ZM203.523 0.972656V1.10938H204.523V0.972656H203.523ZM203.523 1.10938C203.523 1.07463 203.528 1.0564 203.523 1.08817C203.52 1.10777 203.515 1.13791 203.506 1.18057C203.49 1.26529 203.465 1.38633 203.43 1.54548C203.361 1.86306 203.256 2.32158 203.117 2.9223C202.837 4.12318 202.417 5.88518 201.858 8.20907C200.738 12.8565 199.059 19.747 196.819 28.8809L197.79 29.1191C200.03 19.9848 201.71 13.0927 202.83 8.44327C203.39 6.11873 203.81 4.35371 204.09 3.14899C204.231 2.54691 204.336 2.08299 204.407 1.75848C204.442 1.59658 204.469 1.46667 204.488 1.37052C204.497 1.32274 204.505 1.27997 204.511 1.24418C204.514 1.22057 204.523 1.16446 204.523 1.10938H203.523ZM197.305 28.5H185.43V29.5H197.305V28.5ZM185.927 28.9439C185.9 28.7059 185.733 27.9327 185.446 26.6823C185.154 25.4112 184.728 23.6072 184.168 21.2711C183.048 16.5986 181.391 9.79251 179.197 0.85347L178.225 1.09184C180.419 10.0304 182.076 16.8344 183.195 21.5043C183.755 23.8394 184.18 25.6397 184.471 26.9061C184.767 28.1931 184.914 28.8905 184.933 29.0561L185.927 28.9439Z" fill="#050505"/>
</svg>
