<svg width="32" height="32" viewBox="0 0 32 32" fill="none" xmlns="http://www.w3.org/2000/svg">
<path d="M12.2124 14.4934C12.0791 14.48 11.9191 14.48 11.7724 14.4934C8.5991 14.3867 6.0791 11.7867 6.0791 8.58669C6.0791 5.32002 8.7191 2.66669 11.9991 2.66669C15.2658 2.66669 17.9191 5.32002 17.9191 8.58669C17.9058 11.7867 15.3858 14.3867 12.2124 14.4934Z" stroke="#03A081" stroke-width="2" stroke-linecap="round" stroke-linejoin="round"/>
<path d="M21.8804 5.33331C24.467 5.33331 26.547 7.42665 26.547 9.99998C26.547 12.52 24.547 14.5733 22.0537 14.6666C21.947 14.6533 21.827 14.6533 21.707 14.6666" stroke="#03A081" stroke-width="2" stroke-linecap="round" stroke-linejoin="round"/>
<path d="M5.545 19.4134C2.31833 21.5734 2.31833 25.0934 5.545 27.24C9.21167 29.6934 15.225 29.6934 18.8917 27.24C22.1183 25.08 22.1183 21.56 18.8917 19.4134C15.2383 16.9734 9.225 16.9734 5.545 19.4134Z" stroke="#03A081" stroke-width="2" stroke-linecap="round" stroke-linejoin="round"/>
<path d="M24.4541 26.6667C25.4141 26.4667 26.3208 26.08 27.0674 25.5067C29.1474 23.9467 29.1474 21.3734 27.0674 19.8134C26.3341 19.2534 25.4408 18.88 24.4941 18.6667" stroke="#03A081" stroke-width="2" stroke-linecap="round" stroke-linejoin="round"/>
</svg>
