<svg width="24" height="24" viewBox="0 0 24 24" fill="none" xmlns="http://www.w3.org/2000/svg">
<path d="M22 8.49988C22 12.0899 19.09 14.9999 15.5 14.9999C15.33 14.9999 15.15 14.9899 14.98 14.9799C14.73 11.8099 12.19 9.26987 9.01999 9.01987C9.00999 8.84987 9 8.66988 9 8.49988C9 4.90988 11.91 1.99988 15.5 1.99988C19.09 1.99988 22 4.90988 22 8.49988Z" stroke="#050505" stroke-width="1.5" stroke-linecap="round" stroke-linejoin="round"/>
<path d="M15.001 15.5C15.001 19.09 12.091 22 8.50098 22C4.91098 22 2.00098 19.09 2.00098 15.5C2.00098 11.91 4.91098 9 8.50098 9C8.67098 9 8.85097 9.00999 9.02097 9.01999C12.191 9.26999 14.731 11.81 14.981 14.98C14.991 15.15 15.001 15.33 15.001 15.5Z" stroke="#050505" stroke-width="1.5" stroke-linecap="round" stroke-linejoin="round"/>
<path d="M5.59097 1.99988H3.00098C2.45098 1.99988 2.00098 2.44988 2.00098 2.99988V5.58987C2.00098 6.47987 3.08097 6.92987 3.71097 6.29987L6.30096 3.70987C6.92096 3.07987 6.48097 1.99988 5.59097 1.99988Z" stroke="#050505" stroke-width="1.5" stroke-linecap="round" stroke-linejoin="round"/>
<path d="M18.4107 22H21.0007C21.5507 22 22.0007 21.55 22.0007 21V18.41C22.0007 17.52 20.9207 17.07 20.2907 17.7L17.7007 20.29C17.0807 20.92 17.5207 22 18.4107 22Z" stroke="#050505" stroke-width="1.5" stroke-linecap="round" stroke-linejoin="round"/>
</svg>
