<svg width="193" height="31" viewBox="0 0 193 31" fill="none" xmlns="http://www.w3.org/2000/svg">
<g clip-path="url(#clip0_2302_3165)">
<path d="M50.2949 17.7721C49.089 19.3203 48.0113 20.0025 46.0356 20.0025C43.2902 20.0025 40.9641 17.9296 40.9641 15.1218C40.9641 12.3928 43.1875 10.2934 46.0613 10.2934C47.7804 10.2934 49.1146 11.1594 50.064 12.4977L53.0661 9.40127C51.3213 6.88217 48.7041 5.98999 45.7277 5.98999C40.442 5.98999 36.2686 9.9261 36.2686 15.253C36.2686 20.6061 40.4677 24.411 45.7277 24.411C48.8837 24.411 51.4239 23.1777 53.3483 20.7111L50.2949 17.7721Z" fill="#777777"/>
<path d="M55.6201 24.0192H60.0473L60.1901 13.7591L63.389 19.1707H65.8454L69.0443 13.763L69.1871 24.0192H73.6196L73.334 6.5166H69.0292L64.6068 13.5814L60.1901 6.5166H55.9058L55.6201 24.0192Z" fill="#777777"/>
<path d="M76.2275 17.8988H80.4609H84.695V14.2869H80.4609H76.2275V17.8988Z" fill="#777777"/>
<path d="M92.1479 16.8276H93.2257C94.483 16.8276 95.5385 18.129 96.1286 19.3623L98.4891 24.0192H103.672L100.387 17.4574C99.5923 15.9616 98.7194 15.0433 97.1802 14.5446C98.4121 14.0198 99.2055 13.2588 100.027 11.5794L102.695 6.5166H97.6917L95.5623 10.6611C94.9468 11.9993 94.2264 12.5766 92.9175 12.5766H92.1479V6.5166H87.6064V24.0192H92.1479V16.8276Z" fill="#777777"/>
<path d="M108.283 11.2144C108.283 18.28 107.531 20.2142 104.974 20.2142V24.0168C104.974 24.0168 105.487 24.0122 105.769 24.0122C109.49 24.0122 112.055 21.3218 112.055 14.9405H114.082V24.0192H118.418V11.2144H108.283Z" fill="#777777"/>
<path d="M133.783 24.0192V11.2144H130.036L125.443 17.7529V11.2144H121.312V24.0192H124.802L129.652 17.4799V24.0192H133.783Z" fill="#777777"/>
<path d="M144.79 11.2144V15.7108H141.018V11.2144H136.682V24.0192H141.018V19.3227H144.79V24.0192H149.126V11.2144H144.79Z" fill="#777777"/>
<path d="M164.496 24.0192V11.2144H160.749L156.156 17.7529V11.2144H152.025V24.0192H155.515L160.364 17.4513V24.0192H164.496Z" fill="#777777"/>
<path d="M171.653 19.1799H172.424C173.347 19.1799 173.909 20.0714 174.294 20.7799L175.86 24.0192H180.48L178.427 19.7573C177.632 18.2878 176.913 17.553 175.708 17.1594C176.709 16.8183 177.401 16.305 178.094 14.9668L179.941 11.2144H175.528L174.091 14.2321C173.655 15.1504 173.296 15.4538 172.397 15.4538H171.653V11.2144H167.395V24.0192H171.653V19.1799Z" fill="#777777"/>
<path d="M192.999 24.0192V16.4619C192.999 12.9718 190.715 11.135 187.38 11.135C184.506 11.135 182.306 12.025 181.407 13.1103L183.406 15.281C184.125 14.7563 185.225 14.3626 186.764 14.3626C187.636 14.3626 188.766 14.6513 188.766 15.9371V16.1733C188.175 16.0945 187.842 16.0683 187.046 16.0683C183.941 16.0683 181.273 17.6165 181.273 20.6604C181.273 23.6518 183.454 24.4391 185.045 24.4391C186.687 24.4391 187.662 24.0454 188.766 22.8646V24.0192H192.999ZM188.766 19.4008C188.633 21.0934 187.531 21.5361 186.634 21.5361C185.684 21.5361 185.206 20.949 185.206 20.0044C185.206 19.1385 186.148 18.4561 187.585 18.4561C188.15 18.4561 188.534 18.4824 188.766 18.5611V19.4008Z" fill="#777777"/>
<path d="M0.703125 9.76186C0.703125 5.49222 0.703125 3.3574 2.02953 2.031C3.35593 0.70459 5.49075 0.70459 9.76039 0.70459H20.8993C25.1689 0.70459 27.3037 0.70459 28.6301 2.031C29.9565 3.3574 29.9565 5.49222 29.9565 9.76186V20.9007C29.9565 25.1703 29.9565 27.3052 28.6301 28.6315C27.3037 29.958 25.1689 29.958 20.8993 29.958H9.76039C5.49075 29.958 3.35593 29.958 2.02953 28.6315C0.703125 27.3052 0.703125 25.1703 0.703125 20.9007V9.76186Z" fill="#777777"/>
<path fill-rule="evenodd" clip-rule="evenodd" d="M9.70798 2.15122e-07H20.9543C23.0436 -1.23888e-05 24.6835 -2.22855e-05 25.9636 0.172083C27.2749 0.348386 28.3137 0.716828 29.1296 1.53274C29.9455 2.34864 30.3139 3.38738 30.4902 4.69871C30.6623 5.97881 30.6623 7.6187 30.6623 9.7079V20.9544C30.6623 23.0436 30.6623 24.6835 30.4902 25.9636C30.3139 27.2749 29.9455 28.3137 29.1296 29.1296C28.3137 29.9455 27.2749 30.3139 25.9636 30.4902C24.6835 30.6623 23.0436 30.6623 20.9544 30.6623H9.7079C7.6187 30.6623 5.97881 30.6623 4.69871 30.4902C3.38739 30.3139 2.34864 29.9455 1.53274 29.1296C0.716829 28.3137 0.348386 27.2749 0.172083 25.9636C-2.22499e-05 24.6835 -1.23888e-05 23.0436 2.15122e-07 20.9543V9.70798C-1.23888e-05 7.61871 -2.22855e-05 5.97881 0.172083 4.69871C0.348386 3.38739 0.716828 2.34864 1.53274 1.53274C2.34864 0.716829 3.38738 0.348386 4.69871 0.172083C5.97881 -2.22499e-05 7.6187 -1.23888e-05 9.70798 2.15122e-07ZM4.88644 1.56842C3.73135 1.72372 3.03948 2.01849 2.52898 2.52898C2.01849 3.03948 1.72372 3.73135 1.56842 4.88644C1.4104 6.0618 1.40891 7.60699 1.40891 9.76175V20.9006C1.40891 23.0553 1.4104 24.6005 1.56842 25.7758C1.72372 26.931 2.01849 27.6228 2.52898 28.1333C3.03948 28.6438 3.73135 28.9386 4.88644 29.0938C6.0618 29.2519 7.60699 29.2534 9.76175 29.2534H20.9006C23.0553 29.2534 24.6005 29.2519 25.7758 29.0938C26.931 28.9386 27.6228 28.6438 28.1333 28.1333C28.6438 27.6228 28.9386 26.931 29.0938 25.7758C29.2519 24.6005 29.2534 23.0553 29.2534 20.9006V9.76175C29.2534 7.60698 29.2519 6.0618 29.0938 4.88644C28.9386 3.73135 28.6438 3.03948 28.1333 2.52898C27.6228 2.01849 26.931 1.72372 25.7758 1.56842C24.6005 1.4104 23.0553 1.40891 20.9006 1.40891H9.76175C7.60698 1.40891 6.0618 1.4104 4.88644 1.56842Z" fill="white"/>
<path fill-rule="evenodd" clip-rule="evenodd" d="M15.5414 24.0552C9.61511 24.0552 4.43465 20.1691 4.5498 16.0238C4.40278 12.9922 6.09682 9.78931 9.90913 8.0859C11.3337 7.44716 13.762 6.91485 16.1193 6.8895C16.6386 6.87405 16.9752 6.80814 17.4328 6.71849C17.7257 6.66113 18.0682 6.59405 18.54 6.52426C19.3182 6.40911 20.3823 6.29397 21.3105 6.66644C22.3973 7.21514 23.455 8.02117 23.455 8.42052C23.455 8.81986 22.7428 9.51808 22.2822 9.57566C21.4856 9.67518 20.4696 9.51569 19.2145 9.31864C18.2455 9.16655 17.134 8.99205 15.8709 8.89706C10.5327 8.82105 6.6159 12.4208 6.73757 15.9087C6.85924 20.3648 12.4338 22.2993 15.8709 22.2993C25.4472 22.355 25.1406 13.8213 22.8953 13.4134C22.1615 13.2801 21.5794 14.5515 20.9379 15.9526C20.1939 17.5774 19.3701 19.3766 18.137 19.3631C16.9794 19.3511 16.0677 17.424 15.3077 15.8177C14.7763 14.6944 14.3191 13.728 13.9039 13.6827C13.1652 13.6024 12.6007 15.3463 12.1062 16.8736C11.7731 17.9025 11.472 18.833 11.1707 19.0415C10.4798 19.7324 8.66949 18.2355 8.92531 17.6597C9.1755 17.0969 9.40805 17.3105 9.66086 17.5427C9.87355 17.738 10.1006 17.9466 10.3646 17.7173C10.4632 17.6306 10.6038 17.2167 10.7969 16.6479C11.3492 15.0217 12.3317 12.1289 13.9918 11.9937C15.1864 11.9016 16.1379 14.0548 16.8944 15.767C17.3867 16.8812 17.7966 17.8086 18.137 17.8086C18.5282 17.801 18.9172 16.9428 19.3918 15.8954C20.1843 14.1468 21.2157 11.871 22.8953 12.1468C27.1987 12.8534 27.5359 24.0603 15.5414 24.0552ZM21.066 7.59146C21.066 7.78751 20.7654 7.79556 20.1463 7.76782C19.6819 7.75394 19.3892 7.61521 19.4618 7.37646C19.5345 7.13771 19.9428 7.11239 20.386 7.21647C20.5991 7.26653 21.066 7.39542 21.066 7.59146Z" fill="white"/>
</g>
<defs>
<clipPath id="clip0_2302_3165">
<rect width="193" height="30.9753" fill="white"/>
</clipPath>
</defs>
</svg>
