<svg width="193" height="61" viewBox="0 0 193 61" fill="none" xmlns="http://www.w3.org/2000/svg">
<path d="M25.527 15.6813C25.5722 15.8924 25.7531 16.5709 25.9341 17.1891C26.3713 18.7874 26.4769 20.7475 26.1904 22.2553C25.5722 25.5273 23.8985 28.181 19.7822 32.4481C14.2485 38.1929 12.605 41.0276 12.6352 44.782C12.6502 47.3302 13.6002 49.9538 15.5452 52.7734C16.5856 54.3114 17.7014 55.578 17.5808 55.1106C17.5356 54.9447 17.3697 54.2963 17.1888 53.6781C16.5102 51.2958 16.6309 48.7476 17.5054 46.4406C18.4704 43.9075 19.9028 41.9624 23.8985 37.7406C28.814 32.5537 30.2464 30.0809 30.4123 26.5375C30.4877 25.09 30.4424 24.5924 30.1861 23.552C29.6131 21.3054 28.0601 18.4406 26.1904 16.209C25.6174 15.5305 25.4516 15.3948 25.527 15.6813Z" fill="#777777"/>
<path d="M36.9414 39.354V41.3142H40.1832H43.425V47.8731V54.4321L47.1644 54.402L50.8887 54.3567L50.9339 47.8279L50.9641 41.3142H54.2059H57.4477V39.354V37.3938H47.1945H36.9414V39.354Z" fill="#777777"/>
<path d="M63.7652 37.7256C63.4184 38.389 56.5729 50.9038 55.6532 52.5624C55.1556 53.4822 54.7334 54.2813 54.7334 54.3417C54.7334 54.3869 55.8341 54.4321 57.1911 54.4321H59.6338L60.3877 52.9997L61.1265 51.5673H66.2682H71.3947L72.1486 52.9997L72.8875 54.4321H77.0189C80.7884 54.4321 81.1503 54.4171 81.0598 54.1909C80.9995 54.0552 79.2957 50.8737 77.245 47.1343C75.1944 43.3949 73.1739 39.6857 72.7367 38.9017L71.9526 37.4692L67.9569 37.424L63.9461 37.3938L63.7652 37.7256ZM67.8966 44.7067C68.6957 46.3201 69.3592 47.6771 69.3592 47.7224C69.3592 47.7676 67.972 47.7978 66.2682 47.7978C64.5643 47.7978 63.1771 47.7525 63.1771 47.7073C63.1771 47.647 63.539 46.9232 63.9914 46.0788C64.4286 45.2495 65.1222 43.9227 65.5143 43.1537C65.9214 42.3998 66.2832 41.7665 66.3285 41.7665C66.3888 41.7665 67.0824 43.0934 67.8966 44.7067Z" fill="#777777"/>
<path d="M78.5566 39.354V41.3142H81.7984H85.0402V47.8731V54.4321H88.8098H92.5793V47.8731V41.3142H95.5949H98.6105V39.354V37.3938H88.5836H78.5566V39.354Z" fill="#777777"/>
<path d="M17.7014 5.29253C18.6061 8.278 18.7569 10.1175 18.2593 12.2586C17.5356 15.3647 15.9825 17.732 11.6852 22.2554C9.04657 25.0298 8.3379 25.8289 7.32767 27.2915C5.48814 29.9151 4.9604 31.3023 4.85485 33.7902C4.79454 35.2226 4.83978 35.7503 5.0961 36.7757C5.72939 39.2635 7.22212 41.9324 9.40845 44.4806C9.80048 44.948 9.84571 44.9631 9.74017 44.6314C8.98626 42.0078 8.98626 41.9927 8.98626 39.9571C8.98626 38.1478 9.0315 37.7859 9.40845 36.64C10.3433 33.7751 11.7908 31.7094 15.6809 27.6685C18.6061 24.6378 20.5663 22.165 21.486 20.3707C22.5867 18.1994 22.9184 15.2742 22.3304 12.9673C21.7725 10.8111 20.6869 8.7605 18.8172 6.30276C17.8371 5.00605 17.5356 4.73464 17.7014 5.29253Z" fill="#777777"/>
<path d="M101.023 45.913V54.4321H103.587H106.15L106.18 49.8182L106.225 45.2194L107.462 46.1693C108.14 46.6971 109.316 47.5867 110.085 48.1747C110.839 48.7477 112 49.6373 112.634 50.1349C113.282 50.6324 114.428 51.507 115.197 52.095C115.966 52.668 116.946 53.437 117.383 53.7838L118.197 54.4321H120.911H123.641V45.913V37.3938H121.077H118.514V41.5554C118.514 43.8473 118.454 45.6868 118.393 45.6567C118.318 45.6265 115.679 43.7568 112.528 41.4951L106.798 37.3938H103.918H101.023V45.913Z" fill="#777777"/>
<path d="M127.561 45.913V54.4321H137.512H147.464V52.5474V50.6626H141.282H135.1V49.2302V47.7978H139.849H144.599V45.913V44.0282H139.849H135.1V42.6712V41.3142H141.206H147.313V39.354V37.3938H137.437H127.561V45.913Z" fill="#777777"/>
<path d="M150.705 37.5748C150.66 37.6803 150.645 41.4951 150.66 46.0638L150.705 54.3567L154.445 54.402L158.169 54.4321V51.3411V48.2501H162.24H166.311V46.3653V44.4806H162.24H158.169V42.8974V41.3142H166.16H174.152V47.8731V54.4321H177.846H181.54V47.8731V41.3142H184.857H188.174V39.354V37.3938H169.477C154.656 37.3938 150.75 37.4391 150.705 37.5748Z" fill="#777777"/>
</svg>
