<svg width="193" height="71" viewBox="0 0 193 71" fill="none" xmlns="http://www.w3.org/2000/svg">
<g clip-path="url(#clip0_2302_3093)">
<path d="M17.5768 7.36384C10.592 11.3962 3.77958 15.3366 2.44696 16.1178L0 17.5193V35.0961V52.6729L7.26048 56.866C11.2583 59.1751 15.5549 61.6566 16.8301 62.3918C18.0938 63.1156 21.6091 65.149 24.642 66.9066C27.6748 68.6643 30.2137 70.1118 30.2711 70.1118C30.3401 70.1118 34.0277 67.998 38.4851 65.4247C48.2155 59.7955 56.0045 55.2922 58.6123 53.7872L60.5423 52.6729V35.0961V17.5193L57.923 16.0029C56.487 15.1757 49.8928 11.3617 43.2527 7.52467C36.6241 3.68765 30.9834 0.425034 30.7307 0.287178L30.2711 0.0114594L17.5768 7.36384ZM37.7958 10.7413C41.8052 13.0619 47.3769 16.2786 50.18 17.8984L55.2577 20.8394V35.0961V49.3528L54.5455 49.7664C54.1434 49.9962 50.226 52.2593 45.8375 54.7982C41.4491 57.3371 36.1645 60.3929 34.0967 61.5877C32.0288 62.7824 30.3171 63.7589 30.2826 63.7589C30.2482 63.7589 28.0539 62.5067 25.4232 60.9788C19.8399 57.7621 14.3486 54.5914 9.05262 51.5241L5.28452 49.3413V35.0961V20.8509L12.3842 16.7496C16.2786 14.4865 21.8733 11.2468 24.8143 9.53509C27.7552 7.83485 30.2367 6.45628 30.3286 6.47926C30.4205 6.50224 33.7865 8.40926 37.7958 10.7413Z" fill="#777777"/>
<path d="M30.4434 34.9699C30.4434 49.6631 30.4663 61.6912 30.4893 61.6912C30.5123 61.6912 34.5216 59.3591 39.4156 56.51C44.3095 53.661 49.4332 50.6741 50.8118 49.8814L53.3047 48.4224V43.5629C53.3047 40.8862 53.2702 38.7265 53.2243 38.7494C53.1668 38.7839 49.9501 40.6909 46.0557 43.0115C42.1497 45.3206 38.8871 47.2506 38.7837 47.2851C38.6114 47.354 38.5999 46.2741 38.5999 34.9239C38.5999 28.1 38.6344 22.5282 38.6918 22.5512C38.7378 22.5742 40.7137 23.746 43.0803 25.159C45.4468 26.5721 48.7209 28.5135 50.3522 29.4785L53.3047 31.2247V26.3653V21.5058L52.1329 20.8165C34.648 10.6381 30.7306 8.35194 30.5927 8.30598C30.4663 8.26003 30.4434 12.6715 30.4434 34.9699Z" fill="#777777"/>
<path d="M17.6688 15.7156L13.6709 17.9788V31.3164V44.6541L17.6802 46.9058C19.886 48.1465 21.7241 49.1689 21.7585 49.1689C21.793 49.1689 21.8274 41.1273 21.8274 31.305C21.8274 21.4826 21.793 13.441 21.747 13.4525C21.6896 13.4525 19.863 14.4749 17.6688 15.7156Z" fill="#777777"/>
<path d="M74.6729 24.6994V35.1536L78.889 35.1306L83.1051 35.0961L89.5155 26.7098C93.0423 22.1031 96.0062 18.2546 96.0981 18.1627C96.2475 18.0018 96.2705 18.9094 96.2705 26.572V35.1536H98.8553H101.44V24.6994V14.2452H97.1551H92.87L86.4481 22.6545L80.0148 31.0638L79.9574 22.6775L79.8999 14.3027L77.2921 14.2682L74.6729 14.2452V24.6994Z" fill="#777777"/>
<path d="M132.228 14.3602C129.563 14.7048 127.518 16.7267 127.162 19.3805C127.082 19.9549 127.059 22.1376 127.082 25.3428C127.128 29.7887 127.151 30.4665 127.334 31.0179C127.966 32.9594 129.448 34.3954 131.413 34.9698C132.32 35.234 145.957 35.2455 146.968 34.9813C148.002 34.7171 148.76 34.269 149.587 33.4419C150.851 32.1782 151.299 31.0294 151.299 29.042V27.8012H148.771H146.244V28.2723C146.244 29.042 146.003 29.6623 145.486 30.1793C145.221 30.4435 144.808 30.7192 144.555 30.7882C144.256 30.8801 142.568 30.903 139.052 30.8801L133.986 30.8456L133.504 30.5124C133.239 30.3286 132.883 29.938 132.711 29.6508L132.401 29.1224L132.366 24.8718L132.332 20.6212L132.653 19.9893C133.067 19.1852 133.802 18.6567 134.675 18.5533C134.997 18.5074 137.318 18.4959 139.81 18.5189C144.199 18.5533 144.36 18.5648 144.808 18.8061C145.75 19.3115 146.244 20.1157 146.244 21.1382V21.7126H148.783H151.322L151.276 20.2421C151.23 19.0818 151.172 18.6452 150.965 18.1283C150.552 17.0714 149.874 16.1523 149.024 15.5205C148.128 14.8427 147.289 14.498 146.186 14.3602C145.256 14.2338 133.17 14.2338 132.228 14.3602Z" fill="#777777"/>
<path d="M104.484 20.4718C104.45 20.5522 104.438 23.8723 104.45 27.8586L104.484 35.0961L106.931 35.1306L109.367 35.1536V32.0518V28.95L114.283 28.973L119.189 29.0074L119.223 32.0748L119.246 35.1536H121.659H124.071V27.7437V20.3339H121.659H119.246V22.8039V25.2738H114.306H109.367V22.8039V20.3339H106.954C105.127 20.3339 104.519 20.3684 104.484 20.4718Z" fill="#777777"/>
<path d="M156.296 20.6097C154.791 21.0922 153.711 22.218 153.309 23.7345C153.056 24.6995 153.056 30.903 153.309 31.8565C153.642 33.1317 154.607 34.2576 155.848 34.832L156.41 35.0962H162.614H168.818L169.587 34.7286C170.977 34.0738 171.931 32.7641 172.08 31.2936C172.126 30.8915 172.138 30.5239 172.103 30.501C172.08 30.4665 171 30.4435 169.714 30.4435C167.588 30.4435 167.37 30.4665 167.313 30.6388C167.163 31.1788 166.83 31.6727 166.463 31.914C166.072 32.1782 166.072 32.1782 162.545 32.1438L159.007 32.1093L158.639 31.7646C158.122 31.2707 157.961 30.8111 157.961 29.7542V28.8352L165.061 28.8122L172.149 28.7777L172.138 26.4227C172.126 23.7115 172.046 23.2864 171.242 22.1951C170.702 21.4598 169.863 20.8624 169.036 20.6097C168.289 20.3914 156.996 20.3914 156.296 20.6097ZM165.946 23.4473C166.83 23.7 167.382 24.5616 167.382 25.6989V26.1929H162.671H157.961V25.5381C157.961 24.4238 158.49 23.6426 159.397 23.4243C159.972 23.2864 165.429 23.3094 165.946 23.4473Z" fill="#777777"/>
<path d="M173.7 22.2295V24.0101H177.262H180.823V29.5818V35.1536H183.35H185.878V29.5818V24.0101H189.439H193V22.2295V20.4488H183.35H173.7V22.2295Z" fill="#777777"/>
<path d="M96.5691 44.3439C96.1441 44.4818 95.8339 44.7575 95.5352 45.3204C95.3284 45.7225 95.2939 45.9638 95.2939 47.3308C95.2939 49.0885 95.4433 49.5825 96.1556 50.0535C97.2354 50.7888 98.7978 49.9386 98.7978 48.6175C98.7978 48.2729 98.7748 48.2499 98.4072 48.2499C98.0396 48.2499 98.0166 48.2729 97.9592 48.7324C97.8788 49.2953 97.5571 49.6285 97.0746 49.6285C96.4428 49.6285 96.0522 48.9851 96.0407 47.9282V47.5606H97.4307H98.8323L98.7748 46.6071C98.6829 45.1481 98.2349 44.4473 97.2929 44.298C97.0746 44.2635 96.7529 44.2865 96.5691 44.3439ZM97.626 45.24C97.8098 45.4928 98.0166 46.251 97.9707 46.5611C97.9362 46.8024 97.8788 46.8139 97.0172 46.8139H96.0981L96.1211 46.3314C96.1326 46.0557 96.213 45.6995 96.2934 45.5272C96.5691 44.9413 97.2699 44.792 97.626 45.24Z" fill="#777777"/>
<path d="M108.62 44.3556C108.16 44.482 107.77 44.8496 107.563 45.3665C107.115 46.412 107.172 48.6521 107.655 49.5137C108.31 50.6626 110.079 50.5821 110.63 49.3644C110.757 49.1002 110.86 48.744 110.86 48.5602C110.86 48.2845 110.814 48.2501 110.47 48.2501C110.113 48.2501 110.079 48.273 110.01 48.7096C109.907 49.3414 109.585 49.6516 109.057 49.6056C108.482 49.5597 108.195 49.1346 108.126 48.2501L108.08 47.5608H109.482H110.895L110.826 46.6302C110.722 45.378 110.424 44.7347 109.78 44.4475C109.263 44.2177 109.125 44.2062 108.62 44.3556ZM109.642 45.2517C109.861 45.4929 110.102 46.6417 109.964 46.7796C109.907 46.837 109.482 46.8715 109.011 46.8485L108.16 46.814L108.126 46.412C108.046 45.3551 109.045 44.5968 109.642 45.2517Z" fill="#777777"/>
<path d="M114.881 44.3556C114.72 44.4245 114.479 44.5854 114.341 44.7117L114.077 44.953V44.7117C114.077 44.5049 114.008 44.459 113.675 44.459H113.272V48.3075V52.156H113.675H114.077V50.9268V49.709L114.375 49.9848C114.617 50.2145 114.789 50.2605 115.34 50.2605C115.926 50.2605 116.064 50.2145 116.363 49.9273C117.201 49.1231 117.408 46.4809 116.73 45.1598C116.386 44.5049 115.49 44.1143 114.881 44.3556ZM115.777 45.2976C116.122 45.6193 116.259 46.1707 116.259 47.2506C116.259 48.8704 115.892 49.6286 115.099 49.6286C114.352 49.6286 114.031 48.8015 114.1 47.0438C114.134 46.2396 114.203 45.7801 114.352 45.5159C114.674 44.884 115.237 44.8036 115.777 45.2976Z" fill="#777777"/>
<path d="M134.778 44.3096C134.376 44.39 133.79 45.0448 133.618 45.6077C133.262 46.8025 133.354 48.6061 133.813 49.5022C134.342 50.5361 136.076 50.5936 136.674 49.6171C136.812 49.3988 136.95 49.0082 136.996 48.7325L137.076 48.25H136.662C136.283 48.25 136.249 48.273 136.18 48.6751C136.076 49.2495 135.72 49.6286 135.307 49.6286C134.595 49.6286 134.296 49.1805 134.296 48.1236V47.5722L135.651 47.5377L136.996 47.5033L136.961 46.6417C136.927 45.6767 136.616 44.8955 136.134 44.5623C135.824 44.3326 135.192 44.2177 134.778 44.3096ZM135.571 45.0333C135.801 45.0333 136.134 45.7916 136.134 46.32V46.8714H135.215H134.296V46.4119C134.296 45.5273 134.801 44.8151 135.307 44.9874C135.399 45.0104 135.514 45.0333 135.571 45.0333Z" fill="#777777"/>
<path d="M145.715 44.3554C145.244 44.4933 144.681 45.1366 144.497 45.7455C144.417 46.0212 144.359 46.8024 144.348 47.5032C144.348 49.0541 144.6 49.7204 145.336 50.088C146.576 50.7313 147.783 50.065 148.024 48.6175L148.104 48.135H147.702C147.335 48.135 147.3 48.158 147.231 48.5716C147.139 49.1919 146.772 49.6285 146.347 49.6285C145.496 49.6285 145.209 49.0311 145.209 47.2964C145.209 46.4003 145.267 46.0097 145.428 45.6536C145.692 45.0792 145.795 45.0103 146.312 45.0103C146.806 45.0103 147.139 45.286 147.231 45.7915C147.3 46.1476 147.335 46.182 147.702 46.182C148.093 46.182 148.093 46.1706 148.024 45.8029C147.886 45.1711 147.576 44.7575 147.047 44.4818C146.507 44.2061 146.278 44.1946 145.715 44.3554Z" fill="#777777"/>
<path d="M157.789 44.4015C156.801 44.7576 156.422 45.7226 156.491 47.6641C156.56 49.5597 156.997 50.203 158.272 50.2834C158.8 50.3179 159.019 50.2834 159.317 50.0881C159.754 49.8239 160.133 49.0657 160.144 48.5028C160.144 48.1466 160.122 48.1236 159.777 48.1581C159.432 48.1926 159.398 48.227 159.317 48.7095C159.168 49.5711 158.456 49.9043 157.812 49.3988C157.422 49.0886 157.227 48.1351 157.307 46.9174C157.387 45.5963 157.743 44.9989 158.444 44.9989C158.869 44.9989 159.34 45.4699 159.34 45.9064C159.34 46.1477 159.398 46.1822 159.742 46.1822C160.076 46.1822 160.144 46.1362 160.144 45.9294C160.144 45.5273 159.719 44.7576 159.375 44.5508C158.892 44.2636 158.306 44.2062 157.789 44.4015Z" fill="#777777"/>
<path d="M168.715 44.3439C167.796 44.6311 167.439 45.4698 167.439 47.3883C167.439 48.9966 167.669 49.6744 168.324 50.088C168.864 50.4326 169.898 50.3637 170.323 49.9616C170.737 49.5825 170.943 49.1345 170.943 48.652C170.943 48.2499 170.932 48.2384 170.576 48.2728C170.231 48.3073 170.197 48.3533 170.128 48.7553C170.001 49.5365 169.22 49.8927 168.657 49.4217C168.439 49.2493 168.186 48.3303 168.186 47.6984C168.186 47.595 168.542 47.5606 169.553 47.5606C170.311 47.5606 170.955 47.5261 170.978 47.4687C171.093 47.2849 170.851 45.6076 170.645 45.194C170.277 44.4588 169.484 44.1027 168.715 44.3439ZM169.507 45.0332C169.863 45.1711 170.139 45.757 170.139 46.4118V46.8828L169.197 46.8483L168.244 46.8139L168.278 46.2969C168.347 45.5042 168.588 45.1251 169.186 44.9298C169.197 44.9183 169.335 44.9643 169.507 45.0332Z" fill="#777777"/>
<path d="M74.6729 47.3309V50.2029H75.1668H75.6608L76.6373 47.9857L77.6023 45.78L77.6368 47.9857L77.6598 50.2029H78.0618H78.4639V47.3309V44.4588H77.9699H77.4874L76.5109 46.6645L75.5345 48.8817L75.5 46.6645L75.477 44.4588H75.0749H74.6729V47.3309Z" fill="#777777"/>
<path d="M81.0142 47.2964L81.0487 50.1454L81.4278 50.1799L81.7954 50.2144V48.8932V47.5606H82.8293H83.8632V48.8817V50.2029H84.2653H84.6674V47.3308V44.4588H84.2653H83.8632V45.6651V46.8828L82.8638 46.8483L81.8528 46.8139L81.8184 45.6306L81.7839 44.4588H81.3818H80.9912L81.0142 47.2964Z" fill="#777777"/>
<path d="M87.5967 45.5502L88.4698 46.653L87.7001 48.1695C87.2865 49.0081 86.896 49.7319 86.8385 49.7893C86.6088 50.042 86.7466 50.2029 87.1717 50.2029H87.5967L88.3205 48.7554L89.0442 47.3079L89.3774 47.7444C89.6876 48.158 89.7105 48.2614 89.722 49.2034V50.2144L90.1011 50.1799L90.4688 50.1454L90.5032 49.123C90.5262 48.3188 90.5836 48.0316 90.7674 47.7674C90.8938 47.5951 91.0432 47.4457 91.0891 47.4457C91.1236 47.4457 91.4682 48.0661 91.8473 48.8243L92.5251 50.2029H92.9617C93.2029 50.2029 93.3982 50.1454 93.3982 50.0765C93.3982 50.0191 93.0076 49.2149 92.5366 48.3188L91.675 46.6645L92.169 46.0557C92.4332 45.711 92.8353 45.217 93.0421 44.9413L93.4212 44.4588H92.9157L92.4217 44.4703L91.4797 45.7455L90.5262 47.0322V45.7455V44.4588H90.1241H89.722V45.7225C89.722 46.4118 89.6876 46.9862 89.6416 46.9747C89.5842 46.9747 89.1361 46.4118 88.6421 45.711L87.7231 44.4588H87.2291H86.7236L87.5967 45.5502Z" fill="#777777"/>
<path d="M101.21 47.3309V50.2029H101.612H102.014V48.8817V47.5606H103.048H104.082V48.8817V50.2029H104.484H104.886V47.3309V44.4588H104.484H104.093L104.059 45.6306L104.025 46.8139H103.048H102.072L102.037 45.6306L102.003 44.4588H101.612H101.21V47.3309Z" fill="#777777"/>
<path d="M119.477 47.3309V50.2029H119.879H120.281V48.8817V47.5606H121.315H122.349V48.8817V50.2029H122.751H123.153V47.3309V44.4588H122.751H122.36L122.326 45.6306L122.291 46.8139H121.315H120.338L120.304 45.6306L120.269 44.4588H119.879H119.477V47.3309Z" fill="#777777"/>
<path d="M125.703 47.2964L125.737 50.1454L126.783 50.1799C128.081 50.2143 128.621 50.0535 128.988 49.5136C129.218 49.1689 129.252 49.0081 129.218 48.3877C129.184 47.7559 129.126 47.618 128.804 47.2964C128.46 46.9517 128.368 46.9288 127.483 46.8713L126.541 46.8139L126.507 45.6306L126.472 44.4588H126.07H125.68L125.703 47.2964ZM128.138 47.7099C128.46 47.9512 128.517 48.8128 128.23 49.1689C128.035 49.4217 127.908 49.4561 127.265 49.4561H126.541L126.507 48.5026L126.472 47.5606H127.208C127.621 47.5606 128.023 47.6295 128.138 47.7099Z" fill="#777777"/>
<path d="M130.275 47.3423V50.2144L130.654 50.1799L131.022 50.1454L131.057 47.2964L131.08 44.4588H130.677H130.275V47.3423Z" fill="#777777"/>
<path d="M150.265 47.3309V50.2029H150.759H151.241L152.149 48.1006C152.643 46.9518 153.102 45.9638 153.148 45.9063C153.206 45.8374 153.252 46.7679 153.252 47.9972V50.2029H153.654H154.056V47.3309V44.4588H153.55H153.056L152.091 46.6645L151.126 48.8588L151.092 46.6645L151.069 44.4588H150.667H150.265V47.3309Z" fill="#777777"/>
<path d="M161.752 44.8035V45.1482H162.499H163.245L163.268 47.6411L163.303 50.1455H163.705H164.107L164.141 47.6411L164.164 45.1482H164.854C165.543 45.1482 165.543 45.1482 165.543 44.8035V44.4589H163.647H161.752V44.8035Z" fill="#777777"/>
<path d="M173.355 47.3423V50.2144L173.735 50.1799L174.102 50.1454L174.16 47.7674L174.217 45.3779L174.895 47.7904C175.561 50.1454 175.596 50.2144 175.871 50.1799C176.124 50.1454 176.193 49.9961 176.813 47.8019C177.181 46.5152 177.514 45.4353 177.549 45.4008C177.583 45.3664 177.606 46.4348 177.606 47.7789V50.2144L177.985 50.1799L178.353 50.1454L178.387 47.2964L178.41 44.4473L177.755 44.4818L177.089 44.5163L176.79 45.5502C176.63 46.1131 176.377 47.0781 176.227 47.6755C175.883 49.1115 175.86 49.1689 175.802 48.8817C175.734 48.5486 174.86 45.2745 174.723 44.8264C174.608 44.4703 174.585 44.4588 173.976 44.4588H173.355V47.3423Z" fill="#777777"/>
<path d="M180.96 47.2964L180.995 50.1454L182.04 50.1799C183.327 50.2143 183.878 50.0535 184.235 49.5251C184.545 49.0655 184.591 48.1924 184.338 47.6984C184.016 47.0781 183.741 46.9287 182.73 46.8713L181.799 46.8139L181.765 45.6306L181.73 44.4588H181.328H180.938L180.96 47.2964ZM183.453 47.8593C183.752 48.2384 183.764 48.8243 183.476 49.1804C183.293 49.4102 183.155 49.4561 182.523 49.4561H181.799L181.765 48.5026L181.73 47.5606H182.477C183.143 47.5606 183.247 47.5951 183.453 47.8593Z" fill="#777777"/>
<path d="M185.441 47.2964L185.475 50.1454L185.855 50.1799L186.222 50.2144V47.3423V44.4588H185.82H185.418L185.441 47.2964Z" fill="#777777"/>
</g>
<defs>
<clipPath id="clip0_2302_3093">
<rect width="193" height="70.1923" fill="white"/>
</clipPath>
</defs>
</svg>
